<?xml version="1.0" standalone="no"?>
<!DOCTYPE svg PUBLIC "-//W3C//DTD SVG 1.1//EN" "http://www.w3.org/Graphics/SVG/1.1/DTD/svg11.dtd" >
<svg xmlns="http://www.w3.org/2000/svg" xmlns:xlink="http://www.w3.org/1999/xlink" version="1.1">
<metadata>
Created by FontForge 20201107 at Mon Jul 29 21:16:53 2024
 By 
Copyright (c) 2023 Mars, Inc. All rights reserved.
</metadata>
<defs>
<font id="GoForGoldText-Regular" horiz-adv-x="1222" >
  <font-face 
    font-family="GoForGoldText-Regular"
    font-weight="400"
    font-stretch="normal"
    units-per-em="2048"
    panose-1="0 0 0 0 0 0 0 0 0 0"
    ascent="1587"
    descent="-461"
    x-height="1096"
    cap-height="1434"
    bbox="-384 -469 2968 2393"
    underline-thickness="102"
    underline-position="-255"
    unicode-range="U+000D-FEFF"
  />
<missing-glyph horiz-adv-x="1097" 
d="M82 0v1434h934v-1434h-934zM220 130h656v1174h-656v-1174z" />
    <glyph glyph-name="fi" unicode="fi" horiz-adv-x="1482" 
d="M72 922v174h247v1q0 239 104.5 351.5t286.5 112.5q85 0 181 -25l-21 -178q-70 18 -139 18q-121 0 -170 -61.5t-51 -218.5h360v-174h-356v-922h-195v922h-247zM1112 0v1096h201v-1096h-201zM1100 1300v236h225v-236h-225z" />
    <glyph glyph-name="fl" unicode="fl" horiz-adv-x="1482" 
d="M72 922v174h247v1q0 239 104.5 351.5t286.5 112.5q85 0 181 -25l-21 -178q-70 18 -139 18q-121 0 -170 -61.5t-51 -218.5h360v-174h-356v-922h-195v922h-247zM1112 0v1536h201v-1536h-201z" />
    <glyph glyph-name=".notdef" horiz-adv-x="1097" 
d="M82 0v1434h934v-1434h-934zM220 130h656v1174h-656v-1174z" />
    <glyph glyph-name=".null" horiz-adv-x="0" 
 />
    <glyph glyph-name="nonmarkingreturn" horiz-adv-x="682" 
 />
    <glyph glyph-name="NULL" horiz-adv-x="0" 
 />
    <glyph glyph-name="NULL" horiz-adv-x="0" 
 />
    <glyph glyph-name="CR" unicode="&#xd;" horiz-adv-x="655" 
 />
    <glyph glyph-name="space" unicode=" " horiz-adv-x="655" 
 />
    <glyph glyph-name="exclam" unicode="!" horiz-adv-x="512" 
d="M133 0v229h246v-229h-246zM189 496l-46 938h226l-46 -938h-134z" />
    <glyph glyph-name="quotedbl" unicode="&#x22;" horiz-adv-x="819" 
d="M133 983l-31 553h205l-31 -553h-143zM543 983l-31 553h205l-31 -553h-143z" />
    <glyph glyph-name="numbersign" unicode="#" horiz-adv-x="1676" 
d="M282 0l76 338h-257v184h300l88 389h-312v185h355l77 338h203l-77 -338h380l78 338h203l-78 -338h257v-185h-299l-89 -389h312v-184h-354l-78 -338h-204l78 338h-380l-77 -338h-202zM604 522h379l90 389h-381z" />
    <glyph glyph-name="dollar" unicode="$" horiz-adv-x="1253" 
d="M542 -193v203q-177 29 -286 133t-145 243l182 53q39 -127 135 -194.5t247 -67.5q139 0 209 50t70 138q0 55 -27 98t-72.5 71.5t-104.5 52.5t-124 45t-130 43.5t-124 54.5t-104.5 72.5t-72.5 101.5t-27 138q0 70 22 133t65.5 116.5t117 90t169.5 48.5v197h200v-201
q109 -17 191.5 -72.5t130 -127.5t75.5 -165l-180 -53q-94 248 -332 248q-124 0 -193 -57.5t-69 -138.5q0 -50 27 -90.5t72.5 -68.5t105 -53t125 -47.5t131 -47.5t125 -59t105 -75.5t72.5 -102t27 -134.5q0 -154 -109 -256.5t-304 -121.5v-197h-200z" />
    <glyph glyph-name="percent" unicode="%" horiz-adv-x="2148" 
d="M388 0l523 589h174l-492 -589h-205zM1063 835l492 599h205l-523 -599h-174zM1630 -20q-186 0 -290 113t-104 286t104 286.5t290 113.5q187 0 291 -113.5t104 -286.5t-104 -286t-291 -113zM1630 130q111 0 171.5 65t60.5 184t-61 184.5t-171 65.5t-170 -65.5t-60 -184.5
t59.5 -184t170.5 -65zM517 654q-186 0 -290 113.5t-104 286.5t104 286.5t290 113.5q187 0 291 -113.5t104 -286.5t-104 -286.5t-291 -113.5zM517 805q111 0 171.5 65t60.5 184t-61 184.5t-171 65.5t-170 -65.5t-60 -184.5t59.5 -184t170.5 -65z" />
    <glyph glyph-name="ampersand" unicode="&#x26;" horiz-adv-x="1463" 
d="M498 -27q-179 0 -288.5 97t-109.5 245q0 241 293 405v20q-101 91 -146 166.5t-45 175.5q0 171 128 275t317 104q188 0 304 -100.5t116 -246.5q0 -70 -29.5 -131t-86.5 -111t-116.5 -87t-142.5 -77v-21l324 -319q139 136 206 327l174 -51q-114 -217 -293 -350l293 -294
h-262l-172 170h-21q-80 -91 -195.5 -144t-247.5 -53zM305 353q0 -197 260 -197q176 0 314 98l-368 364q-111 -61 -158.5 -125t-47.5 -140zM403 1082q0 -69 35.5 -126.5t124.5 -144.5q76 33 127 60t99.5 62.5t72 77t23.5 89.5q0 76 -58.5 128.5t-179.5 52.5q-118 0 -181 -53
t-63 -146z" />
    <glyph glyph-name="quotesingle" unicode="'" horiz-adv-x="409" 
d="M133 983l-31 553h205l-31 -553h-143z" />
    <glyph glyph-name="parenleft" unicode="(" horiz-adv-x="768" 
d="M707 -410q-294 -38 -439 80t-145 402v983q0 284 145 402t439 79v-180q-215 23 -299 -46.5t-84 -254.5v-983q0 -185 84 -254.5t299 -46.5v-181z" />
    <glyph glyph-name="parenright" unicode=")" horiz-adv-x="768" 
d="M61 1536q294 39 439 -79t145 -402v-983q0 -284 -145 -402t-439 -80v181q215 -23 299 46.5t84 254.5v983q0 185 -84 254.5t-299 46.5v180z" />
    <glyph glyph-name="asterisk" unicode="*" horiz-adv-x="929" 
d="M543 863l-99 260l-182 -211l-122 127l228 157l-270 112l88 144l231 -166l15 275l172 -31l-79 -262l274 77l32 -167l-290 -12l159 -226z" />
    <glyph glyph-name="plus" unicode="+" horiz-adv-x="1191" 
d="M504 1181h184v-371h402v-184h-402v-373h-184v373h-402v184h402v371z" />
    <glyph glyph-name="comma" unicode="," horiz-adv-x="491" 
d="M102 -133q84 0 117 28.5t33 104.5h-129v246h246v-213q0 -150 -62 -214.5t-205 -64.5v113z" />
    <glyph glyph-name="hyphen" unicode="-" horiz-adv-x="802" 
d="M102 650v185h598v-185h-598z" />
    <glyph glyph-name="period" unicode="." horiz-adv-x="491" 
d="M123 0v246h246v-246h-246z" />
    <glyph glyph-name="slash" unicode="/" horiz-adv-x="1110" 
d="M-4 -410l909 1946h209l-909 -1946h-209z" />
    <glyph glyph-name="zero" unicode="0" horiz-adv-x="1474" 
d="M737 -23q-194 0 -337.5 96.5t-216 263t-72.5 381.5q0 161 42.5 296.5t121 234t197.5 154t265 55.5q194 0 337.5 -96t216.5 -262.5t73 -381.5t-73 -381.5t-216.5 -263t-337.5 -96.5zM737 166q201 0 310.5 144.5t109.5 407.5t-109.5 407.5t-310.5 144.5t-310.5 -144.5
t-109.5 -407.5t109.5 -407.5t310.5 -144.5z" />
    <glyph glyph-name="one" unicode="1" horiz-adv-x="1038" 
d="M102 0v184h342v1009h-20q-58 -40 -127.5 -57t-183.5 -17v185h237q70 0 101.5 27t41.5 103h154v-1250h301v-184h-846z" />
    <glyph glyph-name="two" unicode="2" horiz-adv-x="1261" 
d="M127 169q0 76 10.5 136.5t39.5 124t78 116t128 105t187 99.5q207 89 289 167t82 166q0 91 -71.5 142.5t-202.5 51.5q-146 0 -232.5 -67t-130.5 -193l-186 55q115 387 549 387q233 0 353 -101t120 -280q0 -152 -97.5 -258.5t-340.5 -207.5q-119 -50 -192.5 -94t-114 -94.5
t-54 -102t-13.5 -127.5v-15l808 5v-184h-1009v169z" />
    <glyph glyph-name="three" unicode="3" horiz-adv-x="1277" 
d="M671 -23q-441 0 -559 388l190 55q46 -127 133 -193.5t236 -66.5q146 0 229.5 64.5t83.5 172.5q0 117 -98 181.5t-289 64.5h-75v180h75q184 0 270 57t86 175q0 105 -72.5 163.5t-204.5 58.5q-145 0 -227.5 -66t-127.5 -194l-187 55q20 66 47.5 120.5t72 105.5t101.5 85.5
t139 55t182 20.5q228 0 347 -100.5t119 -275.5q0 -140 -74 -219t-217 -121v-20q332 -83 332 -354q0 -178 -132.5 -285t-379.5 -107z" />
    <glyph glyph-name="four" unicode="4" horiz-adv-x="1380" 
d="M835 0v364h-767v154l668 916h301v-886h243v-184h-243v-364h-202zM301 540h542v704h-21z" />
    <glyph glyph-name="five" unicode="5" horiz-adv-x="1334" 
d="M1186 1239l-817 4v-535h20q163 196 404 196q202 0 323 -121.5t121 -332.5q0 -101 -30.5 -185.5t-92.5 -150t-165.5 -102.5t-240.5 -37q-102 0 -190 21.5t-150.5 56.5t-112 82t-78.5 96t-45 102l189 65q39 -113 135.5 -176.5t245.5 -63.5q160 0 245 75t85 217
q0 75 -24.5 129t-69 84.5t-99 44t-121.5 13.5q-198 0 -349 -116h-183v829h1000v-195z" />
    <glyph glyph-name="six" unicode="6" horiz-adv-x="1336" 
d="M702 150q155 0 243 78.5t88 213.5q0 134 -88.5 213.5t-242.5 79.5t-242 -79t-88 -214q0 -134 88 -213t242 -79zM711 -25q-149 0 -264 52.5t-188 148.5t-110.5 227.5t-37.5 292.5q0 164 33.5 299.5t102 240.5t182 163.5t264.5 58.5q104 0 190.5 -26t147 -71.5t102 -97.5
t69.5 -114l-180 -92q-35 68 -74 112.5t-105.5 75.5t-154.5 31q-199 0 -290 -159.5t-91 -477.5h21q63 128 182 199t269 71q202 0 330.5 -127t128.5 -340q0 -220 -141.5 -343.5t-385.5 -123.5z" />
    <glyph glyph-name="seven" unicode="7" horiz-adv-x="1227" 
d="M432 58q0 246 30.5 436.5t91.5 328.5t145 232.5t199 163.5v20h-808v195h1048v-170q-186 -90 -295 -235.5t-157.5 -365t-48.5 -550.5v-113h-205v58z" />
    <glyph glyph-name="eight" unicode="8" horiz-adv-x="1255" 
d="M628 159q158 0 246 64t88 173t-90 178.5t-244 69.5t-244 -69.5t-90 -178.5t88 -173t246 -64zM628 821q152 0 232.5 59.5t80.5 168.5t-80.5 168t-232.5 59t-233 -59t-81 -168t81 -168.5t233 -59.5zM628 -24q-259 0 -396 107t-137 285q0 272 322 355v20
q-148 42 -224.5 120.5t-76.5 218.5q0 175 130 275.5t382 100.5t382 -100.5t130 -275.5q0 -140 -76.5 -218.5t-224.5 -120.5v-20q321 -83 321 -355q0 -179 -136.5 -285.5t-395.5 -106.5z" />
    <glyph glyph-name="nine" unicode="9" horiz-adv-x="1336" 
d="M634 698q154 0 242.5 79.5t88.5 213.5t-88.5 213.5t-242.5 79.5q-155 0 -243 -78.5t-88 -214.5q0 -134 88.5 -213.5t242.5 -79.5zM643 -25q-104 0 -190.5 26t-147 72t-102 98t-69.5 114l180 92q35 -68 74 -112.5t105.5 -75.5t154.5 -31q199 0 290 159.5t91 477.5h-20
q-63 -128 -182.5 -199.5t-269.5 -71.5q-202 0 -330.5 127t-128.5 340q0 220 142 343.5t386 123.5q149 0 264 -52.5t188 -148.5t110.5 -227.5t37.5 -292.5q0 -130 -20.5 -243t-66 -209t-112.5 -164.5t-165 -107t-219 -38.5z" />
    <glyph glyph-name="colon" unicode=":" horiz-adv-x="491" 
d="M123 0v246h246v-246h-246zM123 737v246h246v-246h-246z" />
    <glyph glyph-name="semicolon" unicode=";" horiz-adv-x="491" 
d="M123 737v246h246v-246h-246zM102 -133q84 0 117 28.5t33 104.5h-129v246h246v-213q0 -150 -62 -214.5t-205 -64.5v113z" />
    <glyph glyph-name="less" unicode="&#x3c;" horiz-adv-x="983" 
d="M881 1148v-195l-615 -222v-20l615 -224v-200l-789 315v232z" />
    <glyph glyph-name="equal" unicode="=" horiz-adv-x="1191" 
d="M102 378v184h988v-184h-988zM102 872v185h988v-185h-988z" />
    <glyph glyph-name="greater" unicode="&#x3e;" horiz-adv-x="983" 
d="M102 287v194l615 222v21l-615 223v201l789 -315v-232z" />
    <glyph glyph-name="question" unicode="?" 
d="M476 0v229h246v-229h-246zM513 496q0 59 17 110t51.5 92.5t68.5 72t85 66.5q97 69 143 123t46 126q0 89 -72 140t-203 51q-99 0 -171.5 -33t-117 -88.5t-73.5 -138.5l-187 55q115 387 549 387q232 0 352.5 -98t120.5 -265q0 -54 -14 -101t-32 -78.5t-54 -67t-60.5 -55
t-71.5 -52.5q-42 -30 -60 -43.5t-49 -41t-45.5 -48t-29 -50.5t-19.5 -63h-174z" />
    <glyph glyph-name="at" unicode="@" horiz-adv-x="2092" 
d="M1024 241q156 0 236.5 121.5t80.5 317.5v85q-55 56 -142.5 89.5t-174.5 33.5q-130 0 -208 -81.5t-78 -242.5t77.5 -242t208.5 -81zM1036 -338q-204 0 -372 58.5t-288.5 169t-186.5 278.5t-66 380q0 293 115.5 499t327 309t504.5 103q415 0 657 -217t242 -595
q0 -265 -93 -419.5t-262 -154.5q-109 0 -180.5 59t-86.5 160h-19q-123 -219 -360 -219q-183 0 -299 127.5t-116 363.5q0 120 34 215t93 154.5t136 91t166 31.5q117 0 210.5 -53.5t152.5 -144.5h18q0 76 9 179h152v-647q0 -70 30 -109.5t81 -39.5q70 0 115 95.5t45 310.5
q0 321 -190 482.5t-535 161.5q-363 0 -563 -188t-200 -555q0 -171 53.5 -307.5t150.5 -226t232 -137t299 -47.5q207 0 375 84l74 -142q-184 -110 -455 -110z" />
    <glyph glyph-name="A" unicode="A" horiz-adv-x="1486" 
d="M476 484q160 81 319 81q111 0 216 -38l-256 717h-21l-274 -747zM68 0l544 1434h262l545 -1434h-225l-44 123q-50 140 -144.5 204t-268.5 64t-268 -64t-143 -204l-43 -123h-215z" />
    <glyph glyph-name="B" unicode="B" horiz-adv-x="1390" 
d="M805 184q287 0 287 230q0 110 -71.5 169.5t-215.5 59.5h-402v-459h402zM750 823q132 0 201 56.5t69 156.5q0 101 -70 157t-207 56h-340v-426h347zM201 0v1434h542q219 0 343 -91.5t124 -266.5q0 -238 -249 -322v-21q153 -28 241 -117.5t88 -241.5q0 -97 -35.5 -169.5
t-101 -117t-152 -66t-193.5 -21.5h-607z" />
    <glyph glyph-name="C" unicode="C" horiz-adv-x="1547" 
d="M805 -25q-159 0 -288.5 56.5t-215 155.5t-132 235t-46.5 295q0 214 79.5 380.5t235.5 263.5t367 97q229 0 391 -113t234 -309l-192 -60q-52 142 -162 218t-271 76q-225 0 -349 -146t-124 -407t124 -407t349 -146q161 0 271 76t162 218l192 -61q-72 -196 -234 -309
t-391 -113z" />
    <glyph glyph-name="D" unicode="D" horiz-adv-x="1508" 
d="M201 0v1434h491q170 0 303.5 -55t218 -152.5t128 -227t43.5 -282.5t-43.5 -282.5t-128 -227t-218 -152.5t-303.5 -55h-491zM406 184h266q249 0 377 140t128 393q0 255 -125 393.5t-380 138.5h-266v-1065z" />
    <glyph glyph-name="E" unicode="E" horiz-adv-x="1359" 
d="M201 0v1434h996v-185h-794v-432h651v-182h-651v-451h794v-184h-996z" />
    <glyph glyph-name="F" unicode="F" horiz-adv-x="1267" 
d="M201 0v1434h937v-185h-736v-479h592v-182h-592v-588h-201z" />
    <glyph glyph-name="G" unicode="G" horiz-adv-x="1545" 
d="M718 -25q-280 0 -437.5 198t-157.5 540q0 176 50.5 317.5t141 235t216 143t274.5 49.5q124 0 223 -33t166 -93t108 -138.5t57 -174.5l-185 -51q-25 128 -124.5 217t-252.5 89q-94 0 -176.5 -35t-147.5 -103t-103 -177t-38 -246q0 -133 34 -239.5t93 -174t136 -103.5
t166 -36q182 0 302.5 121t120.5 297h-458v184h656v-557q0 -121 11 -185v-20h-189q-10 140 -10 246h-20q-55 -133 -171.5 -202t-284.5 -69z" />
    <glyph glyph-name="H" unicode="H" horiz-adv-x="1536" 
d="M201 0v1434h205v-711h20q69 65 170.5 100t220.5 35q170 0 313 -72v648h205v-1434h-205v378q0 145 -94 228t-268 83t-268 -83t-94 -228v-378h-205z" />
    <glyph glyph-name="I" unicode="I" horiz-adv-x="606" 
d="M201 0v1434h205v-1434h-205z" />
    <glyph glyph-name="J" unicode="J" horiz-adv-x="1303" 
d="M612 -26q-229 0 -370 137t-168 388l184 49q28 -189 117.5 -286.5t236.5 -97.5q144 0 221 97t77 287v886h205v-886q0 -283 -127.5 -428.5t-375.5 -145.5z" />
    <glyph glyph-name="K" unicode="K" horiz-adv-x="1423" 
d="M201 0v1434h205v-634h212l438 634h227l-477 -659v-20q164 -31 263.5 -147.5t147.5 -313.5q33 -132 59.5 -192t56.5 -82v-20q-58 -18 -107 -18q-92 0 -140 64t-74 218q-59 353 -394 353h-212v-617h-205z" />
    <glyph glyph-name="L" unicode="L" horiz-adv-x="1185" 
d="M201 0v1434h205v-1250h665v-184h-870z" />
    <glyph glyph-name="M" unicode="M" horiz-adv-x="1830" 
d="M201 0v1434h336l368 -1209h21l368 1209h336v-1434h-194v1229h-21l-372 -1229h-256l-371 1226h-21v-1226h-194z" />
    <glyph glyph-name="N" unicode="N" horiz-adv-x="1548" 
d="M201 0v1434h315l617 -1229h20v1229h195v-1434h-316l-616 1229l-21 1v-1230h-194z" />
    <glyph glyph-name="O" unicode="O" horiz-adv-x="1609" 
d="M805 -25q-159 0 -288.5 56.5t-215 155.5t-132 235t-46.5 295q0 214 79.5 380.5t235.5 263.5t367 97t367 -97t235.5 -263.5t79.5 -380.5q0 -159 -46.5 -295t-132 -235t-215 -155.5t-288.5 -56.5zM805 164q225 0 349 146t124 407t-124 407t-349 146t-349 -146t-124 -407
t124 -407t349 -146z" />
    <glyph glyph-name="P" unicode="P" horiz-adv-x="1317" 
d="M201 0v1434h446q299 0 438.5 -130t139.5 -398q0 -259 -123.5 -394t-333.5 -135q-199 0 -342 100h-20v-477h-205zM406 633q134 -70 285 -70q158 0 243.5 89.5t85.5 253.5q0 343 -373 343h-241v-616z" />
    <glyph glyph-name="Q" unicode="Q" horiz-adv-x="1617" 
d="M809 166q228 0 352.5 145.5t124.5 406.5t-124.5 406.5t-352.5 145.5t-352.5 -145.5t-124.5 -406.5t124.5 -406.5t352.5 -145.5zM178 -120q55 74 137 128t181 72q-180 76 -276.5 241.5t-96.5 396.5q0 159 46.5 294.5t133 234.5t216.5 155t290 56t290 -56t216.5 -155
t133 -234.5t46.5 -294.5q0 -264 -125 -441t-354 -232v-29q112 -73 209 -73q95 0 170 57l96 -155q-100 -90 -250 -90q-70 0 -136 21t-117.5 51.5t-101.5 61t-107.5 51.5t-115.5 21q-104 0 -196 -59.5t-158 -146.5z" />
    <glyph glyph-name="R" unicode="R" horiz-adv-x="1454" 
d="M201 0v1434h606q227 0 341 -117t114 -313q0 -296 -288 -366v-21q112 -27 176.5 -115t109.5 -260q29 -108 52 -156t52 -66v-20q-60 -18 -112 -18q-87 0 -137 56.5t-71 182.5q-16 95 -41 158t-62.5 98.5t-83 49.5t-109.5 14h-342v-541h-205zM406 723h362q132 0 210.5 63.5
t78.5 198.5q0 136 -78.5 200t-210.5 64h-362v-526z" />
    <glyph glyph-name="S" unicode="S" horiz-adv-x="1297" 
d="M687 -25q-123 0 -225.5 33.5t-171.5 90.5t-114 126.5t-65 148.5l190 55q40 -132 140 -201.5t257 -69.5q146 0 219 51t73 142q0 57 -28 101.5t-75.5 74t-109 54t-129.5 46.5t-135.5 46t-129 57t-109 75t-75.5 105.5t-28 142.5q0 81 28 151.5t84.5 128.5t153 91.5
t221.5 33.5q113 0 203.5 -30.5t152.5 -85.5t103 -122t65 -149l-187 -55q-99 258 -347 258q-129 0 -200.5 -60t-71.5 -144q0 -52 28 -93.5t76 -71t109.5 -55t130 -49t136.5 -49t129.5 -60.5t109.5 -77.5t76 -105t28 -139.5q0 -175 -136 -285t-376 -110z" />
    <glyph glyph-name="T" unicode="T" horiz-adv-x="1359" 
d="M578 0v1239h-478v195h1160v-195h-478v-1239h-204z" />
    <glyph glyph-name="U" unicode="U" horiz-adv-x="1544" 
d="M772 -26q-284 0 -434 146t-150 428v886h205v-886q0 -190 101 -287t284 -97q184 0 284.5 97t100.5 287v886h193v-886q0 -282 -149.5 -428t-434.5 -146z" />
    <glyph glyph-name="V" unicode="V" horiz-adv-x="1454" 
d="M590 0l-522 1434h223l431 -1239h20l432 1239h212l-522 -1434h-274z" />
    <glyph glyph-name="W" unicode="W" horiz-adv-x="2062" 
d="M461 0l-360 1434h220l286 -1239h21l278 1239h254l279 -1239h20l287 1239h215l-359 -1434h-302l-259 1158h-20l-259 -1158h-301z" />
    <glyph glyph-name="X" unicode="X" horiz-adv-x="1370" 
d="M81 0l450 713l-430 721h228l350 -600h20l347 600h223l-422 -707l442 -727h-227l-361 608h-20l-377 -608h-223z" />
    <glyph glyph-name="Y" unicode="Y" horiz-adv-x="1306" 
d="M551 0v548l-502 886h225l376 -722h21l376 722h210l-501 -886v-548h-205z" />
    <glyph glyph-name="Z" unicode="Z" horiz-adv-x="1439" 
d="M153 0v164l868 1089l-852 -4v185h1100v-164l-869 -1091l895 5v-184h-1142z" />
    <glyph glyph-name="bracketleft" unicode="[" horiz-adv-x="768" 
d="M348 -410q-122 0 -173.5 52t-51.5 174v1495q0 122 51.5 173.5t173.5 51.5h359v-180h-381v-1585h381v-181h-359z" />
    <glyph glyph-name="backslash" unicode="\" horiz-adv-x="1110" 
d="M1114 -410h-209l-909 1946h209z" />
    <glyph glyph-name="bracketright" unicode="]" horiz-adv-x="768" 
d="M420 1536q122 0 173.5 -51.5t51.5 -173.5v-1495q0 -122 -51.5 -174t-173.5 -52h-359v181h381v1585h-381v180h359z" />
    <glyph glyph-name="asciicircum" unicode="^" horiz-adv-x="985" 
d="M98 987l312 559h168l309 -559h-194l-201 383l-202 -383h-192z" />
    <glyph glyph-name="underscore" unicode="_" horiz-adv-x="921" 
d="M12 -234v142h897v-142h-897z" />
    <glyph glyph-name="grave" unicode="`" horiz-adv-x="1228" 
d="M830 1229h-194l-242 307h234z" />
    <glyph glyph-name="a" unicode="a" horiz-adv-x="1211" 
d="M520 148q89 0 165 33t164 109v268h-21q-93 -44 -216 -61q-158 -22 -221 -69t-63 -133q0 -69 41.5 -108t150.5 -39zM457 -20q-157 0 -243.5 80.5t-86.5 219.5q0 140 94 230t274 117l74 11q165 25 222.5 57t57.5 101q0 139 -208 139q-86 0 -148 -25t-94 -59.5t-57 -86.5
l-175 76q22 44 47 80t65.5 74t89.5 63.5t119 42t153 16.5q218 0 312.5 -101t94.5 -307v-502q0 -120 10 -186v-20h-172q-10 86 -10 199h-21q-61 -100 -164.5 -159.5t-233.5 -59.5z" />
    <glyph glyph-name="b" unicode="b" horiz-adv-x="1331" 
d="M703 164q141 0 231 99t90 285q0 190 -82.5 287t-227.5 97q-174 0 -258.5 -128t-84.5 -350v-153q59 -60 148 -98.5t184 -38.5zM760 -20q-245 0 -392 219h-21q0 -107 -10 -199h-187v20q20 76 20 185v1331h201v-639h20q132 219 379 219q198 0 328.5 -150t130.5 -418
q0 -269 -132 -418.5t-337 -149.5z" />
    <glyph glyph-name="c" unicode="c" 
d="M631 -20q-127 0 -229 44.5t-168 122t-101 180t-35 221.5t35 221.5t101 180t168 122t229 44.5q192 0 320 -96t176 -256l-188 -61q-31 107 -110.5 168t-197.5 61q-155 0 -241.5 -103.5t-86.5 -280.5q0 -178 86 -281t242 -103q119 0 198 60t110 167l188 -59
q-48 -160 -176 -256t-320 -96z" />
    <glyph glyph-name="d" unicode="d" horiz-adv-x="1331" 
d="M628 164q95 0 184.5 38.5t148.5 98.5v153q0 222 -85 350t-259 128q-145 0 -227.5 -97t-82.5 -287q0 -186 90 -285t231 -99zM571 -20q-205 0 -337 149.5t-132 418.5q0 268 130.5 418t328.5 150q247 0 379 -219h21v639h200v-1331q0 -105 21 -185v-20h-188q-10 92 -10 199
h-20q-147 -219 -393 -219z" />
    <glyph glyph-name="e" unicode="e" 
d="M631 -20q-126 0 -228 45t-168 122.5t-101.5 180.5t-35.5 220q0 158 60 285t182.5 205t290.5 78q125 0 221 -42.5t156 -118t90 -175.5t30 -221v-65h-830q8 -153 95.5 -241.5t240.5 -88.5q205 0 299 145l167 -73q-67 -117 -184.5 -186.5t-284.5 -69.5zM301 653h615
q-15 279 -285 279q-143 0 -228 -74.5t-102 -204.5z" />
    <glyph glyph-name="f" unicode="f" horiz-adv-x="942" 
d="M72 922v174h247v1q0 239 104.5 351.5t286.5 112.5q85 0 181 -25l-21 -178q-70 18 -139 18q-121 0 -170 -61.5t-51 -218.5h360v-174h-356v-922h-195v922h-247z" />
    <glyph glyph-name="g" unicode="g" horiz-adv-x="1336" 
d="M616 197q115 0 196 65.5t117.5 171t36.5 240.5v121q-60 63 -157 100t-193 37q-143 0 -228.5 -92.5t-85.5 -275.5t85.5 -275t228.5 -92zM627 -434q-145 0 -256 39.5t-181 101.5l122 152q130 -109 315 -109q339 0 339 409v105h-21q-134 -252 -385 -252q-202 0 -332 143.5
t-130 408.5q0 135 37 241.5t102 173.5t150 102t183 35q129 0 231.5 -59t167.5 -160h20q0 96 10 199h167v-917q0 -613 -539 -613z" />
    <glyph glyph-name="h" unicode="h" horiz-adv-x="1286" 
d="M170 0v1536h201v-639h20q34 48 62.5 80t74 67.5t104.5 53.5t132 18q360 0 360 -454v-662h-200v641q0 150 -59 218.5t-177 68.5q-171 0 -317 -133v-795h-201z" />
    <glyph glyph-name="i" unicode="i" horiz-adv-x="540" 
d="M170 0v1096h201v-1096h-201zM158 1300v236h225v-236h-225z" />
    <glyph glyph-name="j" unicode="j" horiz-adv-x="550" 
d="M168 1300v236h225v-236h-225zM91 -430q-73 0 -149 20l20 181q60 -14 96 -14q128 0 128 134q0 28 -3 105.5t-3 116.5v983h201v-910q0 -39 3 -130t3 -132q0 -179 -73 -266.5t-223 -87.5z" />
    <glyph glyph-name="k" unicode="k" horiz-adv-x="1165" 
d="M170 0v1536h201v-886h130l321 446h221l-367 -472v-18q229 -52 312 -373q46 -180 96 -216v-20q-46 -15 -94 -15q-161 0 -203 233q-25 145 -89 203t-197 58h-130v-476h-201z" />
    <glyph glyph-name="l" unicode="l" horiz-adv-x="540" 
d="M170 0v1536h201v-1536h-201z" />
    <glyph glyph-name="m" unicode="m" horiz-adv-x="1875" 
d="M170 0v1096h170q10 -100 10 -199h21q29 40 48.5 64.5t53 57.5t66 51.5t79.5 32t100 13.5q131 0 204.5 -63t99.5 -156h20q28 40 48 64.5t54 57.5t66.5 51.5t79.5 32t100 13.5q89 0 152.5 -32.5t100.5 -94t54 -142t17 -185.5v-662h-201v641q0 151 -49 219t-149 68
q-145 0 -273 -133v-795h-200v647q0 146 -49.5 213.5t-149.5 67.5q-144 0 -272 -133v-795h-201z" />
    <glyph glyph-name="n" unicode="n" horiz-adv-x="1286" 
d="M170 0v1096h170q10 -100 10 -199h21q34 41 55 64.5t60 57.5t75 52t89 31.5t114 13.5q360 0 360 -454v-662h-200v641q0 150 -59 218.5t-177 68.5q-171 0 -317 -133v-795h-201z" />
    <glyph glyph-name="o" unicode="o" horiz-adv-x="1261" 
d="M631 -20q-127 0 -229 44.5t-168 122t-101 180t-35 221.5t35 221.5t101 180t168 122t229 44.5t229 -44.5t167.5 -122t100.5 -180t35 -221.5t-35 -221.5t-100.5 -180t-167.5 -122t-229 -44.5zM631 164q156 0 241.5 103t85.5 281t-86 281t-241 103t-241.5 -103.5
t-86.5 -280.5q0 -178 86 -281t242 -103z" />
    <glyph glyph-name="p" unicode="p" horiz-adv-x="1331" 
d="M714 164q145 0 227.5 97t82.5 287q0 186 -90 285t-231 99q-95 0 -184 -38.5t-148 -98.5v-156q0 -221 84.5 -348t258.5 -127zM170 891q0 108 -20 184v21h187q10 -92 10 -199h21q147 219 392 219q205 0 337 -149.5t132 -418.5q0 -268 -130.5 -418t-328.5 -150
q-247 0 -379 219h-20v-609h-201v1301z" />
    <glyph glyph-name="q" unicode="q" horiz-adv-x="1331" 
d="M617 164q174 0 259 127t85 348v156q-59 60 -148.5 98.5t-184.5 38.5q-141 0 -231 -99t-90 -285q0 -190 82.5 -287t227.5 -97zM1161 891v-1301h-200v609h-21q-132 -219 -379 -219q-198 0 -328.5 150t-130.5 418q0 269 132 418.5t337 149.5q246 0 393 -219h20q0 107 10 199
h188v-21q-21 -79 -21 -184z" />
    <glyph glyph-name="r" unicode="r" horiz-adv-x="1072" 
d="M170 0v1096h170q10 -102 10 -199h21q44 69 85.5 113.5t106 75.5t144.5 31q66 0 117 -21t84.5 -60t55 -86t35.5 -109l-182 -59q-15 68 -63 109.5t-123 41.5q-150 0 -260 -167v-766h-201z" />
    <glyph glyph-name="s" unicode="s" horiz-adv-x="1087" 
d="M580 -20q-199 0 -324.5 90.5t-167.5 233.5l195 53q37 -94 114 -148.5t192 -54.5q100 0 159 39.5t59 106.5q0 51 -37 84t-96 51t-130.5 33t-143 36t-130.5 53t-96 92t-37 145q0 146 104.5 233.5t302.5 87.5q346 0 445 -307l-174 -63q-34 83 -103 139.5t-174 56.5
q-90 0 -147.5 -39t-57.5 -102q0 -48 37 -79.5t96 -49t130 -32t142 -36.5t130 -54.5t96 -94.5t37 -148q0 -151 -101 -238.5t-320 -87.5z" />
    <glyph glyph-name="t" unicode="t" horiz-adv-x="983" 
d="M61 922v174h248v276h195v-276h366v-174h-366v-483q0 -153 50.5 -214t174.5 -61q73 0 141 17l21 -176q-95 -25 -185 -25q-185 0 -291 102.5t-106 318.5v521h-248z" />
    <glyph glyph-name="u" unicode="u" horiz-adv-x="1286" 
d="M522 -20q-360 0 -360 454v662h200v-641q0 -150 59 -218.5t177 -68.5q171 0 317 133v795h201v-1096h-170q-10 100 -10 199h-21q-34 -41 -55 -64.5t-60 -57.5t-75 -52t-89 -31.5t-114 -13.5z" />
    <glyph glyph-name="v" unicode="v" horiz-adv-x="1213" 
d="M470 0l-385 1096h207l307 -922h21l307 922h201l-385 -1096h-273z" />
    <glyph glyph-name="w" unicode="w" horiz-adv-x="1860" 
d="M417 0l-315 1096h209l246 -922h21l221 922h267l221 -922h21l246 922h204l-315 -1096h-289l-215 891h-19l-214 -891h-289z" />
    <glyph glyph-name="x" unicode="x" horiz-adv-x="1177" 
d="M81 0l359 545l-343 551h217l270 -442h20l263 442h213l-334 -539l351 -557h-217l-278 450h-20l-288 -450h-213z" />
    <glyph glyph-name="y" unicode="y" horiz-adv-x="1213" 
d="M347 -430q-93 0 -164.5 40.5t-110.5 110.5l137 104q50 -81 138 -81q58 0 101 40.5t74 131.5l29 84q-43 0 -67.5 16t-41.5 64l-357 1016h207l307 -922h21l307 922h201l-430 -1221q-108 -305 -351 -305z" />
    <glyph glyph-name="z" unicode="z" horiz-adv-x="1187" 
d="M147 0v162l652 764l-632 -4v174h858v-162l-652 -764l676 4v-174h-902z" />
    <glyph glyph-name="braceleft" unicode="{" horiz-adv-x="836" 
d="M775 -410q-144 -18 -248.5 -5.5t-172 54.5t-100 101.5t-32.5 135.5q0 72 29.5 150t65 132t65 111t29.5 92q0 57 -70.5 83.5t-238.5 26.5v184q168 0 238.5 26.5t70.5 83.5q0 35 -29.5 92t-65 111t-65 132t-29.5 150q0 76 32.5 135.5t100 101.5t172 54.5t248.5 -5.5v-180
q-341 42 -341 -139q0 -48 25 -111.5t55.5 -117t55.5 -120t25 -117.5q0 -73 -50.5 -122t-137.5 -56v-20q87 -7 137.5 -55.5t50.5 -121.5q0 -51 -25 -117.5t-55.5 -120t-55.5 -117t-25 -111.5q0 -181 341 -139v-181z" />
    <glyph glyph-name="bar" unicode="|" horiz-adv-x="593" 
d="M201 -410v1946h192v-1946h-192z" />
    <glyph glyph-name="braceright" unicode="}" horiz-adv-x="836" 
d="M61 1536q144 18 248.5 5.5t172 -54.5t100 -101.5t32.5 -135.5q0 -72 -29.5 -150t-64.5 -132t-64.5 -111t-29.5 -92q0 -58 70 -84t238 -26v-184q-168 0 -238 -26t-70 -84q0 -35 29.5 -92t64.5 -111t64.5 -132t29.5 -150q0 -76 -32.5 -135.5t-100 -101.5t-172 -54.5
t-248.5 5.5v181q341 -42 341 139q0 48 -25 111.5t-55 117t-55 120t-25 117.5q0 73 50.5 121.5t137.5 55.5v20q-87 7 -137.5 56t-50.5 122q0 51 25 117.5t55 120t55 117t25 111.5q0 181 -341 139v180z" />
    <glyph glyph-name="asciitilde" unicode="~" horiz-adv-x="1054" 
d="M758 558q-49 0 -108.5 20t-105 43.5t-97.5 43.5t-88 20q-44 0 -63.5 -30.5t-19.5 -92.5h-174q0 309 195 309q49 0 108.5 -20t104.5 -43.5t97 -43.5t88 -20q44 0 63.5 30.5t19.5 92.5h174q0 -309 -194 -309z" />
    <glyph glyph-name="uni00A0" unicode="&#xa0;" horiz-adv-x="655" 
 />
    <glyph glyph-name="exclamdown" unicode="&#xa1;" horiz-adv-x="512" 
d="M143 -338l46 938h134l46 -938h-226zM133 866v230h246v-230h-246z" />
    <glyph glyph-name="cent" unicode="&#xa2;" 
d="M542 -25v165q-211 29 -327.5 184t-116.5 378t116.5 378.5t327.5 184.5v193h200v-196q147 -26 246 -117t139 -226l-188 -61q-31 107 -110.5 167.5t-197.5 60.5q-155 0 -241.5 -103.5t-86.5 -280.5q0 -178 86 -281t242 -103q118 0 197.5 60.5t110.5 167.5l188 -60
q-40 -135 -139 -226t-246 -117v-168h-200z" />
    <glyph glyph-name="sterling" unicode="&#xa3;" horiz-adv-x="1282" 
d="M111 527v168h212q-2 2 -25 26.5t-27 29t-24.5 28t-25.5 32.5t-21.5 32.5t-21.5 37.5t-15.5 38.5t-14 45t-7 47t-3.5 54.5q0 181 120 287t343 106q408 0 518 -387l-186 -55q-41 126 -121 193t-211 67q-120 0 -192 -57t-72 -149q0 -49 23 -100t52 -86.5t73 -88.5t68 -90
h380v-168h-317q2 -26 2 -40q0 -121 -69.5 -202t-155.5 -96v-21l726 5v-184h-1008v169l37 8q118 26 202 101.5t84 190.5q0 31 -6 58h-317z" />
    <glyph glyph-name="currency" unicode="&#xa4;" horiz-adv-x="1515" 
d="M260 111l-162 159l189 180q-51 120 -51 267q0 146 49 263l-187 179l162 160l160 -150q133 116 338 116q202 0 338 -115l156 149l165 -160l-187 -178q50 -116 50 -264q0 -147 -51 -267l188 -180l-165 -159l-158 151q-133 -114 -336 -114q-201 0 -337 115zM758 333
q156 0 241.5 103t85.5 281t-86 281t-241 103t-241.5 -103.5t-86.5 -280.5q0 -178 86 -281t242 -103z" />
    <glyph glyph-name="yen" unicode="&#xa5;" horiz-adv-x="1366" 
d="M151 306v168h430v74l-35 61h-395v167h301l-373 658h225l376 -722h20l376 722h211l-373 -658h301v-167h-395l-35 -61v-74h430v-168h-430v-306h-204v306h-430z" />
    <glyph glyph-name="brokenbar" unicode="&#xa6;" horiz-adv-x="593" 
d="M201 -410v845h192v-845h-192zM201 691v845h192v-845h-192z" />
    <glyph glyph-name="section" unicode="&#xa7;" horiz-adv-x="1181" 
d="M630 -242q-104 0 -188.5 27t-141.5 75t-94.5 107t-59.5 131l168 48q88 -226 325 -226q121 0 188 49.5t67 118.5q0 55 -43 96.5t-112 68.5t-153 51t-167.5 53t-152.5 66t-112 98t-43 141q0 196 249 252v14q-108 45 -168.5 112.5t-60.5 174.5q0 69 25 129.5t75.5 109.5
t136 78t196.5 29q102 0 184.5 -27t138 -75t92 -107t58.5 -131l-168 -49q-85 227 -314 227q-116 0 -180.5 -49.5t-64.5 -118.5q0 -55 42.5 -97t111 -68.5t150.5 -51t164.5 -53t151 -65.5t111 -98t42.5 -141q0 -198 -250 -253v-10q113 -45 176.5 -113.5t63.5 -177.5
q0 -69 -25.5 -129t-77 -109.5t-139 -78t-201.5 -28.5zM294 688q0 -32 11.5 -58.5t37 -48t51 -37.5t70 -32t75.5 -25.5t86 -25.5q130 4 202.5 49.5t72.5 120.5q0 28 -10 52t-24 42t-41.5 35.5t-50 29t-62.5 25.5t-66 22t-73 21q-132 -3 -205.5 -49t-73.5 -121z" />
    <glyph glyph-name="dieresis" unicode="&#xa8;" horiz-adv-x="1228" 
d="M310 1300v236h217v-236h-217zM701 1300v236h218v-236h-218z" />
    <glyph glyph-name="copyright" unicode="&#xa9;" horiz-adv-x="1802" 
d="M901 -25q-187 0 -335 54.5t-244.5 153t-147.5 234.5t-51 300t51 300t147.5 234.5t245 152.5t334.5 54t334 -54.5t245 -152.5t148 -234t51 -300t-51.5 -300t-148.5 -234.5t-245 -153t-333 -54.5zM901 143q193 0 328.5 74.5t200.5 202t65 297.5q0 260 -152.5 416.5
t-441.5 156.5q-194 0 -329.5 -74t-200 -201.5t-64.5 -297.5q0 -127 37 -231.5t109.5 -181t186.5 -119t261 -42.5zM904 373q-167 0 -257.5 94t-90.5 250t90.5 250t257.5 94q137 0 223 -64t105 -169l-175 -40q-34 110 -153 110q-76 0 -119 -47.5t-43 -133.5t43 -133.5
t119 -47.5q119 0 153 110l175 -41q-19 -105 -105 -168.5t-223 -63.5z" />
    <glyph glyph-name="ordfeminine" unicode="&#xaa;" horiz-adv-x="977" 
d="M422 896q64 0 118 19.5t117 64.5v174h-14q-65 -30 -154 -43q-115 -17 -157.5 -42.5t-42.5 -79.5q0 -50 32 -71.5t101 -21.5zM376 757q-118 0 -183.5 57t-65.5 154q0 102 71.5 167.5t208.5 87.5l53 8q117 18 156 37.5t39 62.5q0 88 -146 88q-92 0 -141.5 -29t-78.5 -80
l-133 63q88 185 357 185q167 0 235.5 -70.5t68.5 -217.5v-354q0 -87 7 -131v-14h-144q-7 46 -7 117l-16 -1q-42 -60 -114 -95t-167 -35z" />
    <glyph glyph-name="guillemotleft" unicode="&#xab;" horiz-adv-x="1189" 
d="M543 94l-442 377v184l442 377v-235l-247 -224v-20l247 -223v-236zM1089 94l-442 377v184l442 377v-235l-247 -224v-20l247 -223v-236z" />
    <glyph glyph-name="logicalnot" unicode="&#xac;" horiz-adv-x="1206" 
d="M920 268v382h-818v185h1002v-567h-184z" />
    <glyph glyph-name="uni00AD" unicode="&#xad;" horiz-adv-x="802" 
d="M102 650v185h598v-185h-598z" />
    <glyph glyph-name="registered" unicode="&#xae;" horiz-adv-x="962" 
d="M343 1054v308h166q59 0 93.5 -24.5t34.5 -68.5q0 -33 -18 -54.5t-45 -26.5v-12q28 -8 42 -21.5t20 -44.5q8 -40 20 -44v-12q-28 -5 -54 -5q-42 0 -60 11.5t-22 39.5q-3 25 -13.5 35t-31.5 10h-30v-91h-102zM481 847q-183 0 -283 97.5t-100 259.5t100 259.5t283 97.5
q182 0 282.5 -98t100.5 -259q0 -162 -100.5 -259.5t-282.5 -97.5zM481 945q134 0 202.5 69.5t68.5 189.5q0 119 -68.5 188.5t-202.5 69.5q-135 0 -202.5 -69.5t-67.5 -188.5q0 -120 67.5 -189.5t202.5 -69.5zM445 1213h50q20 0 31 9.5t11 24.5t-11 24.5t-31 9.5h-50v-68z
" />
    <glyph glyph-name="macron" unicode="&#xaf;" horiz-adv-x="1228" 
d="M307 1299v175h615v-175h-615z" />
    <glyph glyph-name="degree" unicode="&#xb0;" horiz-adv-x="835" 
d="M417 850q-145 0 -232 80.5t-87 220.5t87 221.5t232 81.5q146 0 233 -81t87 -222q0 -140 -87 -220.5t-233 -80.5zM417 995q71 0 111 41.5t40 114.5q0 74 -40 116t-111 42q-69 0 -110 -42t-41 -116q0 -73 40.5 -114.5t110.5 -41.5z" />
    <glyph glyph-name="plusminus" unicode="&#xb1;" horiz-adv-x="1191" 
d="M102 253v184h402v280h-402v184h402v280h184v-280h402v-184h-402v-280h402v-184h-988z" />
    <glyph glyph-name="uni00B2" unicode="&#xb2;" horiz-adv-x="841" 
d="M118 724q0 110 53.5 183t194.5 133q104 44 140.5 76t36.5 68q0 76 -112 76q-119 0 -151 -106l-159 31q11 48 32 85.5t56.5 68.5t92.5 47.5t134 16.5q276 0 276 -211q0 -87 -52.5 -144t-183.5 -111q-108 -44 -146 -78.5t-43 -86.5l433 5v-146h-602v93z" />
    <glyph glyph-name="uni00B3" unicode="&#xb3;" horiz-adv-x="831" 
d="M432 614q-266 0 -320 228l162 37q17 -60 54.5 -90.5t105.5 -30.5q64 0 98.5 26.5t34.5 73.5q0 100 -159 100h-39v118h45q139 0 139 91q0 43 -30 67t-88 24q-61 0 -96 -28t-52 -85l-161 36q24 103 95 162.5t215 59.5q142 0 213.5 -55t71.5 -147q0 -126 -151 -176v-16
q166 -37 166 -182q0 -98 -75.5 -155.5t-228.5 -57.5z" />
    <glyph glyph-name="acute" unicode="&#xb4;" horiz-adv-x="1228" 
d="M397 1229l203 307h234l-242 -307h-195z" />
    <glyph glyph-name="uni00B5" unicode="&#xb5;" horiz-adv-x="1333" 
d="M170 -410v1506h201v-658q0 -139 59 -204.5t176 -65.5q172 0 318 133v795h200v-858q0 -36 16 -52t52 -16q28 0 49 8v-174q-41 -23 -102 -23q-89 0 -140 54t-55 164h-20q-22 -35 -35 -54t-37 -49t-46.5 -47t-53.5 -35t-69 -26t-83 -8q-77 0 -130 28.5t-89 93.5h-21l11 -512
h-201z" />
    <glyph glyph-name="paragraph" unicode="&#xb6;" horiz-adv-x="1625" 
d="M1220 -205v1455h-205v-1455h-205v488q-89 17 -162.5 36t-149.5 47t-134 62t-110.5 81.5t-86.5 104t-54 131t-20 161.5q0 119 34 214.5t103 166.5t181 109t260 38h753v-1639h-204z" />
    <glyph glyph-name="periodcentered" unicode="&#xb7;" horiz-adv-x="491" 
d="M123 614v246h246v-246h-246z" />
    <glyph glyph-name="cedilla" unicode="&#xb8;" horiz-adv-x="1228" 
d="M552 -410q-67 0 -144 12l9 149q58 -8 109 -8q143 0 143 50q0 27 -35 38t-112 11h-49v21l124 182h72l-43 -150q90 -4 142.5 -40.5t52.5 -106.5q0 -158 -269 -158z" />
    <glyph glyph-name="uni00B9" unicode="&#xb9;" horiz-adv-x="742" 
d="M102 631v145h198v441l-14 2q-54 -39 -184 -39v148h138q40 0 58 14t24 51h146v-617h184v-145h-550z" />
    <glyph glyph-name="ordmasculine" unicode="&#xba;" horiz-adv-x="986" 
d="M493 757q-186 0 -290.5 113t-104.5 286t104.5 286.5t290.5 113.5q187 0 291 -113.5t104 -286.5t-104 -286t-291 -113zM493 907q111 0 171 65t60 184t-60.5 184.5t-170.5 65.5t-170.5 -65.5t-60.5 -184.5t60 -184t171 -65z" />
    <glyph glyph-name="guillemotright" unicode="&#xbb;" horiz-adv-x="1189" 
d="M647 94v236l247 223v20l-247 224v235l442 -377v-184zM101 94v236l247 223v20l-247 224v235l442 -377v-184z" />
    <glyph glyph-name="onequarter" unicode="&#xbc;" horiz-adv-x="1941" 
d="M314 0l524 589h174l-493 -589h-205zM989 835l493 599h205l-524 -599h-174zM1318 303l237 2v310h-16zM1550 0v165h-407v136l326 461h249v-454l123 2v-149h-123v-161h-168zM102 605v146h198v440l-14 2q-54 -39 -184 -39v149h138q40 0 58 13.5t24 50.5h146v-616h184v-146
h-550z" />
    <glyph glyph-name="onehalf" unicode="&#xbd;" horiz-adv-x="1977" 
d="M314 0l524 589h174l-493 -589h-205zM989 835l493 599h205l-524 -599h-174zM1253 93q0 110 53.5 183.5t194.5 133.5q105 44 141 75.5t36 67.5q0 76 -111 76q-120 0 -152 -106l-159 31q24 102 96.5 160t219.5 58q275 0 275 -211q0 -87 -52 -144t-183 -111
q-108 -44 -146.5 -78.5t-43.5 -86.5l433 5v-146h-602v93zM102 672v145h198v440l-14 3q-54 -39 -184 -39v148h138q40 0 58 14t24 51h146v-617h184v-145h-550z" />
    <glyph glyph-name="threequarters" unicode="&#xbe;" horiz-adv-x="1982" 
d="M355 0l524 589h174l-493 -589h-205zM1030 835l493 599h204l-523 -599h-174zM1359 303l237 2v310h-16zM1591 0v165h-407v136l326 461h249v-454l123 2v-149h-123v-161h-168zM432 589q-266 0 -320 227l162 37q17 -60 54.5 -90.5t105.5 -30.5q64 0 98.5 27t34.5 74
q0 100 -159 100h-39v118h45q139 0 139 91q0 43 -30 67t-88 24q-114 0 -148 -114l-161 36q24 103 95 162.5t215 59.5q142 0 213.5 -54.5t71.5 -146.5q0 -127 -151 -177v-16q166 -37 166 -181q0 -98 -75.5 -155.5t-228.5 -57.5z" />
    <glyph glyph-name="questiondown" unicode="&#xbf;" 
d="M501 866v230h245v-230h-245zM573 -364q-232 0 -352.5 98.5t-120.5 265.5q0 54 14 101t32 78t54.5 67t60.5 54.5t72 52.5q50 36 74 55t56.5 51.5t49.5 66t23 74.5h174q0 -59 -17.5 -110t-52 -93t-68.5 -72t-85 -66q-96 -68 -142 -123t-46 -127q0 -89 71.5 -139.5
t202.5 -50.5q146 0 232.5 67t130.5 193l186 -55q-116 -388 -549 -388z" />
    <glyph glyph-name="Agrave" unicode="&#xc0;" horiz-adv-x="1486" 
d="M476 484q160 81 319 81q111 0 216 -38l-256 717h-21l-274 -747zM68 0l544 1434h262l545 -1434h-225l-44 123q-50 140 -144.5 204t-268.5 64t-268 -64t-143 -204l-43 -123h-215zM647 1567l-241 307h233l203 -307h-195z" />
    <glyph glyph-name="Aacute" unicode="&#xc1;" horiz-adv-x="1486" 
d="M476 484q160 81 319 81q111 0 216 -38l-256 717h-21l-274 -747zM68 0l544 1434h262l545 -1434h-225l-44 123q-50 140 -144.5 204t-268.5 64t-268 -64t-143 -204l-43 -123h-215zM643 1567l203 307h233l-241 -307h-195z" />
    <glyph glyph-name="Acircumflex" unicode="&#xc2;" horiz-adv-x="1486" 
d="M476 484q160 81 319 81q111 0 216 -38l-256 717h-21l-274 -747zM68 0l544 1434h262l545 -1434h-225l-44 123q-50 140 -144.5 204t-268.5 64t-268 -64t-143 -204l-43 -123h-215zM438 1567l210 307h195l210 -307h-197l-113 178l-112 -178h-193z" />
    <glyph glyph-name="Atilde" unicode="&#xc3;" horiz-adv-x="1486" 
d="M476 484q160 81 319 81q111 0 216 -38l-256 717h-21l-274 -747zM68 0l544 1434h262l545 -1434h-225l-44 123q-50 140 -144.5 204t-268.5 64t-268 -64t-143 -204l-43 -123h-215zM893 1573q-43 0 -82.5 18t-64.5 40t-56 40t-60 18q-32 0 -45.5 -24t-13.5 -84h-163
q0 289 184 289q43 0 81.5 -18.5t62 -40t54 -40t59.5 -18.5q34 0 49 25.5t15 81.5h166q0 -287 -186 -287z" />
    <glyph glyph-name="Adieresis" unicode="&#xc4;" horiz-adv-x="1486" 
d="M476 484q160 81 319 81q111 0 216 -38l-256 717h-21l-274 -747zM68 0l544 1434h262l545 -1434h-225l-44 123q-50 140 -144.5 204t-268.5 64t-268 -64t-143 -204l-43 -123h-215zM439 1638v236h217v-236h-217zM830 1638v236h218v-236h-218z" />
    <glyph glyph-name="Aring" unicode="&#xc5;" horiz-adv-x="1486" 
d="M476 484q160 81 319 81q111 0 216 -38l-256 717h-21l-274 -747zM68 0l544 1434h262l545 -1434h-225l-44 123q-50 140 -144.5 204t-268.5 64t-268 -64t-143 -204l-43 -123h-215zM743 1567q-132 0 -202 53.5t-70 149.5t70 149.5t202 53.5t202.5 -53.5t70.5 -149.5
t-70.5 -149.5t-202.5 -53.5zM743 1700q49 0 76 19t27 51q0 31 -27.5 50.5t-75.5 19.5q-49 0 -75.5 -19t-26.5 -51t26.5 -51t75.5 -19z" />
    <glyph glyph-name="AE" unicode="&#xc6;" horiz-adv-x="2122" 
d="M994 0v438h-468l-246 -438h-226l817 1434h1089v-185h-772v-432h629v-182h-629v-451h772v-184h-966zM618 614h376v635h-20z" />
    <glyph glyph-name="Ccedilla" unicode="&#xc7;" horiz-adv-x="1547" 
d="M742 -410q-67 0 -144 12l9 149q58 -8 110 -8q73 0 107.5 11.5t34.5 38.5q0 28 -34.5 38.5t-111.5 10.5h-49v21l77 114q-192 15 -333.5 115.5t-213 261.5t-71.5 363q0 214 79.5 380.5t235.5 263.5t367 97q229 0 391 -113t234 -309l-192 -60q-52 142 -162 218t-271 76
q-225 0 -349 -146t-124 -407t124 -407t349 -146q161 0 271 76t162 218l192 -61q-69 -189 -221.5 -301t-368.5 -120l-24 -81q90 -4 143 -40.5t53 -106.5q0 -158 -270 -158z" />
    <glyph glyph-name="Egrave" unicode="&#xc8;" horiz-adv-x="1359" 
d="M201 0v1434h996v-185h-794v-432h651v-182h-651v-451h794v-184h-996zM625 1567l-242 307h233l203 -307h-194z" />
    <glyph glyph-name="Eacute" unicode="&#xc9;" horiz-adv-x="1359" 
d="M201 0v1434h996v-185h-794v-432h651v-182h-651v-451h794v-184h-996zM621 1567l202 307h234l-242 -307h-194z" />
    <glyph glyph-name="Ecircumflex" unicode="&#xca;" horiz-adv-x="1359" 
d="M201 0v1434h996v-185h-794v-432h651v-182h-651v-451h794v-184h-996zM416 1567l210 307h194l210 -307h-196l-113 178l-113 -178h-192z" />
    <glyph glyph-name="Edieresis" unicode="&#xcb;" horiz-adv-x="1359" 
d="M201 0v1434h996v-185h-794v-432h651v-182h-651v-451h794v-184h-996zM417 1638v236h217v-236h-217zM808 1638v236h217v-236h-217z" />
    <glyph glyph-name="Igrave" unicode="&#xcc;" horiz-adv-x="606" 
d="M201 0v1434h205v-1434h-205zM207 1567l-242 307h234l202 -307h-194z" />
    <glyph glyph-name="Iacute" unicode="&#xcd;" horiz-adv-x="606" 
d="M201 0v1434h205v-1434h-205zM203 1567l203 307h233l-242 -307h-194z" />
    <glyph glyph-name="Icircumflex" unicode="&#xce;" horiz-adv-x="606" 
d="M201 0v1434h205v-1434h-205zM-2 1567l210 307h194l210 -307h-196l-113 178l-113 -178h-192z" />
    <glyph glyph-name="Idieresis" unicode="&#xcf;" horiz-adv-x="606" 
d="M201 0v1434h205v-1434h-205zM-1 1638v236h217v-236h-217zM390 1638v236h217v-236h-217z" />
    <glyph glyph-name="Eth" unicode="&#xd0;" horiz-adv-x="1508" 
d="M201 0v626h-201v182h201v626h491q170 0 303.5 -55t218 -152.5t128 -227t43.5 -282.5t-43.5 -282.5t-128 -227t-218 -152.5t-303.5 -55h-491zM406 184h266q249 0 377 140t128 393q0 255 -125 393.5t-380 138.5h-266v-446h326v-172h-326v-447z" />
    <glyph glyph-name="Ntilde" unicode="&#xd1;" horiz-adv-x="1548" 
d="M201 0v1434h315l617 -1229h20v1229h195v-1434h-316l-616 1229l-21 1v-1230h-194zM941 1573q-43 0 -82.5 18t-64.5 40t-56 40t-60 18q-32 0 -45 -24t-13 -84h-164q0 289 184 289q43 0 81.5 -18.5t62 -40t54 -40t59.5 -18.5q34 0 49.5 25.5t15.5 81.5h165q0 -287 -186 -287
z" />
    <glyph glyph-name="Ograve" unicode="&#xd2;" horiz-adv-x="1609" 
d="M805 -25q-159 0 -288.5 56.5t-215 155.5t-132 235t-46.5 295q0 214 79.5 380.5t235.5 263.5t367 97t367 -97t235.5 -263.5t79.5 -380.5q0 -159 -46.5 -295t-132 -235t-215 -155.5t-288.5 -56.5zM805 164q225 0 349 146t124 407t-124 407t-349 146t-349 -146t-124 -407
t124 -407t349 -146zM709 1567l-242 307h233l203 -307h-194z" />
    <glyph glyph-name="Oacute" unicode="&#xd3;" horiz-adv-x="1609" 
d="M805 -25q-159 0 -288.5 56.5t-215 155.5t-132 235t-46.5 295q0 214 79.5 380.5t235.5 263.5t367 97t367 -97t235.5 -263.5t79.5 -380.5q0 -159 -46.5 -295t-132 -235t-215 -155.5t-288.5 -56.5zM805 164q225 0 349 146t124 407t-124 407t-349 146t-349 -146t-124 -407
t124 -407t349 -146zM705 1567l202 307h234l-242 -307h-194z" />
    <glyph glyph-name="Ocircumflex" unicode="&#xd4;" horiz-adv-x="1609" 
d="M805 -25q-159 0 -288.5 56.5t-215 155.5t-132 235t-46.5 295q0 214 79.5 380.5t235.5 263.5t367 97t367 -97t235.5 -263.5t79.5 -380.5q0 -159 -46.5 -295t-132 -235t-215 -155.5t-288.5 -56.5zM805 164q225 0 349 146t124 407t-124 407t-349 146t-349 -146t-124 -407
t124 -407t349 -146zM500 1567l210 307h194l210 -307h-196l-113 178l-113 -178h-192z" />
    <glyph glyph-name="Otilde" unicode="&#xd5;" horiz-adv-x="1609" 
d="M805 -25q-159 0 -288.5 56.5t-215 155.5t-132 235t-46.5 295q0 214 79.5 380.5t235.5 263.5t367 97t367 -97t235.5 -263.5t79.5 -380.5q0 -159 -46.5 -295t-132 -235t-215 -155.5t-288.5 -56.5zM805 164q225 0 349 146t124 407t-124 407t-349 146t-349 -146t-124 -407
t124 -407t349 -146zM954 1573q-43 0 -82.5 18t-64.5 40t-56 40t-60 18q-32 0 -45 -24t-13 -84h-164q0 289 184 289q43 0 81.5 -18.5t62 -40t54 -40t59.5 -18.5q34 0 49.5 25.5t15.5 81.5h166q0 -287 -187 -287z" />
    <glyph glyph-name="Odieresis" unicode="&#xd6;" horiz-adv-x="1609" 
d="M805 -25q-159 0 -288.5 56.5t-215 155.5t-132 235t-46.5 295q0 214 79.5 380.5t235.5 263.5t367 97t367 -97t235.5 -263.5t79.5 -380.5q0 -159 -46.5 -295t-132 -235t-215 -155.5t-288.5 -56.5zM805 164q225 0 349 146t124 407t-124 407t-349 146t-349 -146t-124 -407
t124 -407t349 -146zM501 1638v236h217v-236h-217zM892 1638v236h217v-236h-217z" />
    <glyph glyph-name="multiply" unicode="&#xd7;" horiz-adv-x="1005" 
d="M102 327l252 386l-252 395h213l178 -289h20l177 289h204l-244 -382l253 -399h-213l-179 298h-21l-179 -298h-209z" />
    <glyph glyph-name="Oslash" unicode="&#xd8;" horiz-adv-x="1609" 
d="M805 -25q-270 0 -450 159l-126 -134h-225l243 260q-124 190 -124 457q0 214 79.5 380.5t235.5 263.5t367 97q268 0 450 -158l125 134h226l-243 -260q124 -190 124 -457q0 -159 -46.5 -295t-132 -235t-215 -155.5t-288.5 -56.5zM805 164q225 0 349 146t124 407
q0 195 -65 325l-721 -777q116 -101 313 -101zM332 717q0 -198 64 -326l722 777q-117 102 -313 102q-225 0 -349 -146t-124 -407z" />
    <glyph glyph-name="Ugrave" unicode="&#xd9;" horiz-adv-x="1544" 
d="M772 -26q-284 0 -434 146t-150 428v886h205v-886q0 -190 101 -287t284 -97q184 0 284.5 97t100.5 287v886h193v-886q0 -282 -149.5 -428t-434.5 -146zM674 1567l-242 307h234l202 -307h-194z" />
    <glyph glyph-name="Uacute" unicode="&#xda;" horiz-adv-x="1544" 
d="M772 -26q-284 0 -434 146t-150 428v886h205v-886q0 -190 101 -287t284 -97q184 0 284.5 97t100.5 287v886h193v-886q0 -282 -149.5 -428t-434.5 -146zM670 1567l202 307h234l-242 -307h-194z" />
    <glyph glyph-name="Ucircumflex" unicode="&#xdb;" horiz-adv-x="1544" 
d="M772 -26q-284 0 -434 146t-150 428v886h205v-886q0 -190 101 -287t284 -97q184 0 284.5 97t100.5 287v886h193v-886q0 -282 -149.5 -428t-434.5 -146zM465 1567l210 307h194l210 -307h-196l-113 178l-113 -178h-192z" />
    <glyph glyph-name="Udieresis" unicode="&#xdc;" horiz-adv-x="1544" 
d="M772 -26q-284 0 -434 146t-150 428v886h205v-886q0 -190 101 -287t284 -97q184 0 284.5 97t100.5 287v886h193v-886q0 -282 -149.5 -428t-434.5 -146zM466 1638v236h217v-236h-217zM857 1638v236h217v-236h-217z" />
    <glyph glyph-name="Yacute" unicode="&#xdd;" horiz-adv-x="1306" 
d="M551 0v548l-502 886h225l376 -722h21l376 722h210l-501 -886v-548h-205zM553 1567l203 307h233l-241 -307h-195z" />
    <glyph glyph-name="Thorn" unicode="&#xde;" horiz-adv-x="1415" 
d="M201 0v1434h205v-226h296q155 0 272 -35.5t188.5 -102t106.5 -154.5t35 -199t-35 -199.5t-106.5 -154.5t-188.5 -102t-272 -36h-296v-225h-205zM406 410h276q218 0 315.5 75.5t97.5 231.5q0 158 -94.5 232.5t-318.5 74.5h-276v-614z" />
    <glyph glyph-name="germandbls" unicode="&#xdf;" horiz-adv-x="1268" 
d="M733 -9q-82 0 -175 20l21 182q66 -11 117 -11q278 0 278 248q0 268 -308 268h-38v181h30q249 0 249 240q0 122 -64 187t-187 65q-151 0 -221 -103t-70 -335v-933h-195v923q0 154 25.5 268.5t81.5 199t151 127.5t228 43q205 0 325.5 -106t120.5 -295q0 -134 -64 -226
t-176 -125v-22q144 -36 228.5 -133.5t84.5 -253.5q0 -185 -118 -297t-324 -112z" />
    <glyph glyph-name="agrave" unicode="&#xe0;" horiz-adv-x="1211" 
d="M520 148q89 0 165 33t164 109v268h-21q-93 -44 -216 -61q-158 -22 -221 -69t-63 -133q0 -69 41.5 -108t150.5 -39zM457 -20q-157 0 -243.5 80.5t-86.5 219.5q0 140 94 230t274 117l74 11q165 25 222.5 57t57.5 101q0 139 -208 139q-86 0 -148 -25t-94 -59.5t-57 -86.5
l-175 76q22 44 47 80t65.5 74t89.5 63.5t119 42t153 16.5q218 0 312.5 -101t94.5 -307v-502q0 -120 10 -186v-20h-172q-10 86 -10 199h-21q-61 -100 -164.5 -159.5t-233.5 -59.5zM528 1229l-241 307h233l203 -307h-195z" />
    <glyph glyph-name="aacute" unicode="&#xe1;" horiz-adv-x="1211" 
d="M520 148q89 0 165 33t164 109v268h-21q-93 -44 -216 -61q-158 -22 -221 -69t-63 -133q0 -69 41.5 -108t150.5 -39zM457 -20q-157 0 -243.5 80.5t-86.5 219.5q0 140 94 230t274 117l74 11q165 25 222.5 57t57.5 101q0 139 -208 139q-86 0 -148 -25t-94 -59.5t-57 -86.5
l-175 76q22 44 47 80t65.5 74t89.5 63.5t119 42t153 16.5q218 0 312.5 -101t94.5 -307v-502q0 -120 10 -186v-20h-172q-10 86 -10 199h-21q-61 -100 -164.5 -159.5t-233.5 -59.5zM524 1229l203 307h234l-242 -307h-195z" />
    <glyph glyph-name="acircumflex" unicode="&#xe2;" horiz-adv-x="1211" 
d="M520 148q89 0 165 33t164 109v268h-21q-93 -44 -216 -61q-158 -22 -221 -69t-63 -133q0 -69 41.5 -108t150.5 -39zM457 -20q-157 0 -243.5 80.5t-86.5 219.5q0 140 94 230t274 117l74 11q165 25 222.5 57t57.5 101q0 139 -208 139q-86 0 -148 -25t-94 -59.5t-57 -86.5
l-175 76q22 44 47 80t65.5 74t89.5 63.5t119 42t153 16.5q218 0 312.5 -101t94.5 -307v-502q0 -120 10 -186v-20h-172q-10 86 -10 199h-21q-61 -100 -164.5 -159.5t-233.5 -59.5zM319 1229l210 307h195l210 -307h-197l-112 178l-113 -178h-193z" />
    <glyph glyph-name="atilde" unicode="&#xe3;" horiz-adv-x="1211" 
d="M520 148q89 0 165 33t164 109v268h-21q-93 -44 -216 -61q-158 -22 -221 -69t-63 -133q0 -69 41.5 -108t150.5 -39zM457 -20q-157 0 -243.5 80.5t-86.5 219.5q0 140 94 230t274 117l74 11q165 25 222.5 57t57.5 101q0 139 -208 139q-86 0 -148 -25t-94 -59.5t-57 -86.5
l-175 76q22 44 47 80t65.5 74t89.5 63.5t119 42t153 16.5q218 0 312.5 -101t94.5 -307v-502q0 -120 10 -186v-20h-172q-10 86 -10 199h-21q-61 -100 -164.5 -159.5t-233.5 -59.5zM774 1235q-43 0 -82.5 18t-64.5 40t-56 40t-60 18q-32 0 -45 -24t-13 -84h-164q0 289 184 289
q43 0 81.5 -18.5t62 -40t54 -40t59.5 -18.5q34 0 49.5 25.5t15.5 81.5h166q0 -287 -187 -287z" />
    <glyph glyph-name="adieresis" unicode="&#xe4;" horiz-adv-x="1211" 
d="M520 148q89 0 165 33t164 109v268h-21q-93 -44 -216 -61q-158 -22 -221 -69t-63 -133q0 -69 41.5 -108t150.5 -39zM457 -20q-157 0 -243.5 80.5t-86.5 219.5q0 140 94 230t274 117l74 11q165 25 222.5 57t57.5 101q0 139 -208 139q-86 0 -148 -25t-94 -59.5t-57 -86.5
l-175 76q22 44 47 80t65.5 74t89.5 63.5t119 42t153 16.5q218 0 312.5 -101t94.5 -307v-502q0 -120 10 -186v-20h-172q-10 86 -10 199h-21q-61 -100 -164.5 -159.5t-233.5 -59.5zM321 1300v236h217v-236h-217zM712 1300v236h217v-236h-217z" />
    <glyph glyph-name="aring" unicode="&#xe5;" horiz-adv-x="1211" 
d="M520 148q89 0 165 33t164 109v268h-21q-93 -44 -216 -61q-158 -22 -221 -69t-63 -133q0 -69 41.5 -108t150.5 -39zM457 -20q-157 0 -243.5 80.5t-86.5 219.5q0 140 94 230t274 117l74 11q165 25 222.5 57t57.5 101q0 139 -208 139q-86 0 -148 -25t-94 -59.5t-57 -86.5
l-175 76q22 44 47 80t65.5 74t89.5 63.5t119 42t153 16.5q218 0 312.5 -101t94.5 -307v-502q0 -120 10 -186v-20h-172q-10 86 -10 199h-21q-61 -100 -164.5 -159.5t-233.5 -59.5zM625 1229q-132 0 -202.5 54t-70.5 150t70.5 149t202.5 53t202 -53t70 -149t-70 -150t-202 -54
zM625 1362q48 0 75 19.5t27 51.5q0 31 -26.5 50t-75.5 19t-76 -19t-27 -50q0 -32 27 -51.5t76 -19.5z" />
    <glyph glyph-name="ae" unicode="&#xe6;" horiz-adv-x="1936" 
d="M851 703q0 232 -238 232q-59 0 -105 -13t-77.5 -38.5t-52 -53.5t-37.5 -66l-175 76q118 276 458 276q263 0 355 -172q142 171 386 171q120 0 212 -42t149.5 -117.5t86.5 -175.5t29 -221v-65h-789q7 -153 89 -241.5t226 -88.5q192 0 279 145l167 -73q-63 -117 -176 -186.5
t-273 -69.5q-136 0 -241 54.5t-171 151.5h-20q-64 -92 -180.5 -149t-267.5 -57q-170 0 -264 80.5t-94 217.5q0 140 102 231t296 109l326 30v55zM328 292q0 -69 47 -106.5t167 -37.5q103 0 187 30.5t175 96.5q-42 95 -50 209l-242 -21q-160 -14 -222 -52.5t-62 -118.5z
M1056 657h574q-17 274 -265 274q-133 0 -212.5 -73.5t-96.5 -200.5z" />
    <glyph glyph-name="ccedilla" unicode="&#xe7;" 
d="M568 -410q-67 0 -144 12l9 149q58 -8 110 -8q73 0 107.5 11.5t34.5 38.5q0 28 -34.5 38.5t-111.5 10.5h-50v21l81 120q-150 14 -258 93t-161 200.5t-53 271.5q0 119 35 221.5t101 180t168 122t229 44.5q192 0 320 -96t176 -256l-188 -61q-31 107 -110.5 168t-197.5 61
q-155 0 -241.5 -103.5t-86.5 -280.5q0 -178 86 -281t242 -103q119 0 198 60t110 167l188 -59q-45 -153 -163.5 -247.5t-296.5 -103.5l-25 -86q90 -4 143 -40.5t53 -106.5q0 -158 -270 -158z" />
    <glyph glyph-name="egrave" unicode="&#xe8;" 
d="M631 -20q-126 0 -228 45t-168 122.5t-101.5 180.5t-35.5 220q0 158 60 285t182.5 205t290.5 78q125 0 221 -42.5t156 -118t90 -175.5t30 -221v-65h-830q8 -153 95.5 -241.5t240.5 -88.5q205 0 299 145l167 -73q-67 -117 -184.5 -186.5t-284.5 -69.5zM535 1229l-242 307
h233l203 -307h-194zM301 653h615q-15 279 -285 279q-143 0 -228 -74.5t-102 -204.5z" />
    <glyph glyph-name="eacute" unicode="&#xe9;" 
d="M631 -20q-126 0 -228 45t-168 122.5t-101.5 180.5t-35.5 220q0 158 60 285t182.5 205t290.5 78q125 0 221 -42.5t156 -118t90 -175.5t30 -221v-65h-830q8 -153 95.5 -241.5t240.5 -88.5q205 0 299 145l167 -73q-67 -117 -184.5 -186.5t-284.5 -69.5zM530 1229l203 307
h234l-242 -307h-195zM301 653h615q-15 279 -285 279q-143 0 -228 -74.5t-102 -204.5z" />
    <glyph glyph-name="ecircumflex" unicode="&#xea;" 
d="M631 -20q-126 0 -228 45t-168 122.5t-101.5 180.5t-35.5 220q0 158 60 285t182.5 205t290.5 78q125 0 221 -42.5t156 -118t90 -175.5t30 -221v-65h-830q8 -153 95.5 -241.5t240.5 -88.5q205 0 299 145l167 -73q-67 -117 -184.5 -186.5t-284.5 -69.5zM326 1229l210 307
h194l210 -307h-197l-112 178l-113 -178h-192zM301 653h615q-15 279 -285 279q-143 0 -228 -74.5t-102 -204.5z" />
    <glyph glyph-name="edieresis" unicode="&#xeb;" 
d="M631 -20q-126 0 -228 45t-168 122.5t-101.5 180.5t-35.5 220q0 158 60 285t182.5 205t290.5 78q125 0 221 -42.5t156 -118t90 -175.5t30 -221v-65h-830q8 -153 95.5 -241.5t240.5 -88.5q205 0 299 145l167 -73q-67 -117 -184.5 -186.5t-284.5 -69.5zM327 1300v236h217
v-236h-217zM718 1300v236h217v-236h-217zM301 653h615q-15 279 -285 279q-143 0 -228 -74.5t-102 -204.5z" />
    <glyph glyph-name="igrave" unicode="&#xec;" horiz-adv-x="540" 
d="M170 0v1096h201v-1096h-201zM174 1229l-242 307h234l203 -307h-195z" />
    <glyph glyph-name="iacute" unicode="&#xed;" horiz-adv-x="540" 
d="M170 0v1096h201v-1096h-201zM170 1229l203 307h233l-241 -307h-195z" />
    <glyph glyph-name="icircumflex" unicode="&#xee;" horiz-adv-x="540" 
d="M170 0v1096h201v-1096h-201zM-35 1229l210 307h195l210 -307h-197l-113 178l-112 -178h-193z" />
    <glyph glyph-name="idieresis" unicode="&#xef;" horiz-adv-x="540" 
d="M170 0v1096h201v-1096h-201zM-34 1300v236h217v-236h-217zM357 1300v236h217v-236h-217z" />
    <glyph glyph-name="eth" unicode="&#xf0;" horiz-adv-x="1266" 
d="M372 1203v148l226 61q-70 61 -164 124h242q60 -43 104 -82l295 82v-147l-177 -50q265 -298 265 -706q0 -171 -45.5 -300.5t-124.5 -204.5t-175.5 -111.5t-209.5 -36.5q-109 0 -201.5 36t-161.5 104.5t-108 175.5t-39 242q0 131 37.5 236.5t102.5 172.5t150 102.5
t182 35.5q236 0 360 -188h20q-41 198 -231 400zM634 164q150 0 237 94t87 280q0 184 -90.5 278.5t-238.5 94.5q-147 0 -236.5 -94t-89.5 -279t90 -279.5t241 -94.5z" />
    <glyph glyph-name="ntilde" unicode="&#xf1;" horiz-adv-x="1286" 
d="M170 0v1096h170q10 -100 10 -199h21q34 41 55 64.5t60 57.5t75 52t89 31.5t114 13.5q360 0 360 -454v-662h-200v641q0 150 -59 218.5t-177 68.5q-171 0 -317 -133v-795h-201zM807 1235q-43 0 -82.5 18t-64.5 40t-56 40t-60 18q-32 0 -45.5 -24t-13.5 -84h-163
q0 289 184 289q43 0 81.5 -18.5t62 -40t54 -40t59.5 -18.5q34 0 49 25.5t15 81.5h166q0 -287 -186 -287z" />
    <glyph glyph-name="ograve" unicode="&#xf2;" horiz-adv-x="1261" 
d="M631 -20q-127 0 -229 44.5t-168 122t-101 180t-35 221.5t35 221.5t101 180t168 122t229 44.5t229 -44.5t167.5 -122t100.5 -180t35 -221.5t-35 -221.5t-100.5 -180t-167.5 -122t-229 -44.5zM631 164q156 0 241.5 103t85.5 281t-86 281t-241 103t-241.5 -103.5
t-86.5 -280.5q0 -178 86 -281t242 -103zM535 1229l-242 307h233l203 -307h-194z" />
    <glyph glyph-name="oacute" unicode="&#xf3;" horiz-adv-x="1261" 
d="M631 -20q-127 0 -229 44.5t-168 122t-101 180t-35 221.5t35 221.5t101 180t168 122t229 44.5t229 -44.5t167.5 -122t100.5 -180t35 -221.5t-35 -221.5t-100.5 -180t-167.5 -122t-229 -44.5zM631 164q156 0 241.5 103t85.5 281t-86 281t-241 103t-241.5 -103.5
t-86.5 -280.5q0 -178 86 -281t242 -103zM530 1229l203 307h234l-242 -307h-195z" />
    <glyph glyph-name="ocircumflex" unicode="&#xf4;" horiz-adv-x="1261" 
d="M631 -20q-127 0 -229 44.5t-168 122t-101 180t-35 221.5t35 221.5t101 180t168 122t229 44.5t229 -44.5t167.5 -122t100.5 -180t35 -221.5t-35 -221.5t-100.5 -180t-167.5 -122t-229 -44.5zM631 164q156 0 241.5 103t85.5 281t-86 281t-241 103t-241.5 -103.5
t-86.5 -280.5q0 -178 86 -281t242 -103zM326 1229l210 307h194l210 -307h-197l-112 178l-113 -178h-192z" />
    <glyph glyph-name="otilde" unicode="&#xf5;" horiz-adv-x="1261" 
d="M631 -20q-127 0 -229 44.5t-168 122t-101 180t-35 221.5t35 221.5t101 180t168 122t229 44.5t229 -44.5t167.5 -122t100.5 -180t35 -221.5t-35 -221.5t-100.5 -180t-167.5 -122t-229 -44.5zM631 164q156 0 241.5 103t85.5 281t-86 281t-241 103t-241.5 -103.5
t-86.5 -280.5q0 -178 86 -281t242 -103zM780 1235q-43 0 -82.5 18t-64.5 40t-56 40t-60 18q-32 0 -45 -24t-13 -84h-164q0 289 184 289q43 0 81.5 -18.5t62 -40t54 -40t59.5 -18.5q34 0 49.5 25.5t15.5 81.5h166q0 -287 -187 -287z" />
    <glyph glyph-name="odieresis" unicode="&#xf6;" horiz-adv-x="1261" 
d="M631 -20q-127 0 -229 44.5t-168 122t-101 180t-35 221.5t35 221.5t101 180t168 122t229 44.5t229 -44.5t167.5 -122t100.5 -180t35 -221.5t-35 -221.5t-100.5 -180t-167.5 -122t-229 -44.5zM631 164q156 0 241.5 103t85.5 281t-86 281t-241 103t-241.5 -103.5
t-86.5 -280.5q0 -178 86 -281t242 -103zM327 1300v236h217v-236h-217zM718 1300v236h217v-236h-217z" />
    <glyph glyph-name="divide" unicode="&#xf7;" horiz-adv-x="1191" 
d="M481 253v197h231v-197h-231zM102 626v184h988v-184h-988zM481 1000v197h231v-197h-231z" />
    <glyph glyph-name="oslash" unicode="&#xf8;" horiz-adv-x="1261" 
d="M631 -20q-208 0 -345 115l-89 -95h-197l193 202q-95 146 -95 346q0 119 35 221.5t101 180t168 122t229 44.5q207 0 345 -116l89 96h197l-193 -202q94 -146 94 -346q0 -119 -35 -221.5t-100.5 -180t-167.5 -122t-229 -44.5zM631 164q159 0 245.5 103t86.5 281
q0 125 -42 212l-495 -533q81 -63 205 -63zM299 548q0 -125 42 -212l495 531q-82 65 -205 65q-158 0 -245 -103t-87 -281z" />
    <glyph glyph-name="ugrave" unicode="&#xf9;" horiz-adv-x="1286" 
d="M522 -20q-360 0 -360 454v662h200v-641q0 -150 59 -218.5t177 -68.5q171 0 317 133v795h201v-1096h-170q-10 100 -10 199h-21q-34 -41 -55 -64.5t-60 -57.5t-75 -52t-89 -31.5t-114 -13.5zM543 1229l-242 307h234l202 -307h-194z" />
    <glyph glyph-name="uacute" unicode="&#xfa;" horiz-adv-x="1286" 
d="M522 -20q-360 0 -360 454v662h200v-641q0 -150 59 -218.5t177 -68.5q171 0 317 133v795h201v-1096h-170q-10 100 -10 199h-21q-34 -41 -55 -64.5t-60 -57.5t-75 -52t-89 -31.5t-114 -13.5zM539 1229l202 307h234l-242 -307h-194z" />
    <glyph glyph-name="ucircumflex" unicode="&#xfb;" horiz-adv-x="1286" 
d="M522 -20q-360 0 -360 454v662h200v-641q0 -150 59 -218.5t177 -68.5q171 0 317 133v795h201v-1096h-170q-10 100 -10 199h-21q-34 -41 -55 -64.5t-60 -57.5t-75 -52t-89 -31.5t-114 -13.5zM334 1229l210 307h194l210 -307h-196l-113 178l-113 -178h-192z" />
    <glyph glyph-name="udieresis" unicode="&#xfc;" horiz-adv-x="1286" 
d="M522 -20q-360 0 -360 454v662h200v-641q0 -150 59 -218.5t177 -68.5q171 0 317 133v795h201v-1096h-170q-10 100 -10 199h-21q-34 -41 -55 -64.5t-60 -57.5t-75 -52t-89 -31.5t-114 -13.5zM335 1300v236h217v-236h-217zM726 1300v236h217v-236h-217z" />
    <glyph glyph-name="yacute" unicode="&#xfd;" horiz-adv-x="1213" 
d="M347 -430q-93 0 -164.5 40.5t-110.5 110.5l137 104q50 -81 138 -81q58 0 101 40.5t74 131.5l29 84q-43 0 -67.5 16t-41.5 64l-357 1016h207l307 -922h21l307 922h201l-430 -1221q-108 -305 -351 -305zM519 1229l203 307h233l-241 -307h-195z" />
    <glyph glyph-name="thorn" unicode="&#xfe;" horiz-adv-x="1331" 
d="M714 164q145 0 227.5 97t82.5 287q0 186 -90 285t-231 99q-95 0 -184 -44.5t-148 -113.5v-135q0 -221 84.5 -348t258.5 -127zM170 -410v1946h201v-639h20q138 219 369 219q205 0 337 -149.5t132 -418.5q0 -268 -130.5 -418t-328.5 -150q-247 0 -379 219h-20v-609h-201z
" />
    <glyph glyph-name="ydieresis" unicode="&#xff;" horiz-adv-x="1213" 
d="M347 -430q-93 0 -164.5 40.5t-110.5 110.5l137 104q50 -81 138 -81q58 0 101 40.5t74 131.5l29 84q-43 0 -67.5 16t-41.5 64l-357 1016h207l307 -922h21l307 922h201l-430 -1221q-108 -305 -351 -305zM315 1300v236h217v-236h-217zM707 1300v236h217v-236h-217z" />
    <glyph glyph-name="Amacron" unicode="&#x100;" horiz-adv-x="1486" 
d="M476 484q160 81 319 81q111 0 216 -38l-256 717h-21l-274 -747zM68 0l544 1434h262l545 -1434h-225l-44 123q-50 140 -144.5 204t-268.5 64t-268 -64t-143 -204l-43 -123h-215zM436 1637v174h615v-174h-615z" />
    <glyph glyph-name="amacron" unicode="&#x101;" horiz-adv-x="1211" 
d="M520 148q89 0 165 33t164 109v268h-21q-93 -44 -216 -61q-158 -22 -221 -69t-63 -133q0 -69 41.5 -108t150.5 -39zM457 -20q-157 0 -243.5 80.5t-86.5 219.5q0 140 94 230t274 117l74 11q165 25 222.5 57t57.5 101q0 139 -208 139q-86 0 -148 -25t-94 -59.5t-57 -86.5
l-175 76q22 44 47 80t65.5 74t89.5 63.5t119 42t153 16.5q218 0 312.5 -101t94.5 -307v-502q0 -120 10 -186v-20h-172q-10 86 -10 199h-21q-61 -100 -164.5 -159.5t-233.5 -59.5zM317 1299v175h615v-175h-615z" />
    <glyph glyph-name="Abreve" unicode="&#x102;" horiz-adv-x="1486" 
d="M476 484q160 81 319 81q111 0 216 -38l-256 717h-21l-274 -747zM68 0l544 1434h262l545 -1434h-225l-44 123q-50 140 -144.5 204t-268.5 64t-268 -64t-143 -204l-43 -123h-215zM741 1556q-147 0 -224 79.5t-77 238.5h164q0 -170 139 -170q67 0 103.5 42.5t36.5 127.5h159
q0 -159 -77 -238.5t-224 -79.5z" />
    <glyph glyph-name="abreve" unicode="&#x103;" horiz-adv-x="1211" 
d="M520 148q89 0 165 33t164 109v268h-21q-93 -44 -216 -61q-158 -22 -221 -69t-63 -133q0 -69 41.5 -108t150.5 -39zM457 -20q-157 0 -243.5 80.5t-86.5 219.5q0 140 94 230t274 117l74 11q165 25 222.5 57t57.5 101q0 139 -208 139q-86 0 -148 -25t-94 -59.5t-57 -86.5
l-175 76q22 44 47 80t65.5 74t89.5 63.5t119 42t153 16.5q218 0 312.5 -101t94.5 -307v-502q0 -120 10 -186v-20h-172q-10 86 -10 199h-21q-61 -100 -164.5 -159.5t-233.5 -59.5zM623 1219q-147 0 -224 79t-77 238h163q0 -85 36.5 -127.5t103.5 -42.5q139 0 139 170h160
q0 -159 -77 -238t-224 -79z" />
    <glyph glyph-name="Aogonek" unicode="&#x104;" horiz-adv-x="1486" 
d="M1303 -338q-98 0 -157 44.5t-59 117.5q0 53 29.5 93t77.5 63v20l-44 123q-50 140 -144.5 204t-268.5 64t-268 -64t-143 -204l-43 -123h-215l544 1434h262l545 -1434h-43q-67 0 -106 -26t-39 -70q0 -78 128 -78q32 0 60 5v-154q-60 -15 -116 -15zM476 484q160 81 319 81
q111 0 216 -38l-256 717h-21l-274 -747z" />
    <glyph glyph-name="aogonek" unicode="&#x105;" horiz-adv-x="1211" 
d="M940 -338q-98 0 -156 43t-58 118q0 130 162 177h-2q-10 86 -10 199h-21q-61 -100 -164.5 -159.5t-233.5 -59.5q-157 0 -243.5 80.5t-86.5 219.5q0 140 94 230t274 117l74 11q165 25 222.5 57t57.5 101q0 139 -208 139q-86 0 -148 -25t-94 -59.5t-57 -86.5l-175 76
q22 44 47 80t65.5 74t89.5 63.5t119 42t153 16.5q218 0 312.5 -101t94.5 -307v-502q0 -120 10 -186v-20h-23q-82 0 -124 -25.5t-42 -70.5q0 -78 128 -78q33 0 61 5v-154q-60 -15 -118 -15zM520 148q89 0 165 33t164 109v268h-21q-93 -44 -216 -61q-158 -22 -221 -69
t-63 -133q0 -69 41.5 -108t150.5 -39z" />
    <glyph glyph-name="Cacute" unicode="&#x106;" horiz-adv-x="1547" 
d="M805 -25q-159 0 -288.5 56.5t-215 155.5t-132 235t-46.5 295q0 214 79.5 380.5t235.5 263.5t367 97q229 0 391 -113t234 -309l-192 -60q-52 142 -162 218t-271 76q-225 0 -349 -146t-124 -407t124 -407t349 -146q161 0 271 76t162 218l192 -61q-72 -196 -234 -309
t-391 -113zM705 1567l202 307h234l-242 -307h-194z" />
    <glyph glyph-name="cacute" unicode="&#x107;" 
d="M631 -20q-127 0 -229 44.5t-168 122t-101 180t-35 221.5t35 221.5t101 180t168 122t229 44.5q192 0 320 -96t176 -256l-188 -61q-31 107 -110.5 168t-197.5 61q-155 0 -241.5 -103.5t-86.5 -280.5q0 -178 86 -281t242 -103q119 0 198 60t110 167l188 -59
q-48 -160 -176 -256t-320 -96zM530 1229l203 307h234l-242 -307h-195z" />
    <glyph glyph-name="Ccircumflex" unicode="&#x108;" horiz-adv-x="1547" 
d="M805 -25q-159 0 -288.5 56.5t-215 155.5t-132 235t-46.5 295q0 214 79.5 380.5t235.5 263.5t367 97q229 0 391 -113t234 -309l-192 -60q-52 142 -162 218t-271 76q-225 0 -349 -146t-124 -407t124 -407t349 -146q161 0 271 76t162 218l192 -61q-72 -196 -234 -309
t-391 -113zM500 1567l210 307h194l210 -307h-196l-113 178l-113 -178h-192z" />
    <glyph glyph-name="ccircumflex" unicode="&#x109;" 
d="M631 -20q-127 0 -229 44.5t-168 122t-101 180t-35 221.5t35 221.5t101 180t168 122t229 44.5q192 0 320 -96t176 -256l-188 -61q-31 107 -110.5 168t-197.5 61q-155 0 -241.5 -103.5t-86.5 -280.5q0 -178 86 -281t242 -103q119 0 198 60t110 167l188 -59
q-48 -160 -176 -256t-320 -96zM326 1229l210 307h194l210 -307h-197l-112 178l-113 -178h-192z" />
    <glyph glyph-name="Cdotaccent" unicode="&#x10a;" horiz-adv-x="1547" 
d="M805 -25q-159 0 -288.5 56.5t-215 155.5t-132 235t-46.5 295q0 214 79.5 380.5t235.5 263.5t367 97q229 0 391 -113t234 -309l-192 -60q-52 142 -162 218t-271 76q-225 0 -349 -146t-124 -407t124 -407t349 -146q161 0 271 76t162 218l192 -61q-72 -196 -234 -309
t-391 -113zM692 1638v236h226v-236h-226z" />
    <glyph glyph-name="cdotaccent" unicode="&#x10b;" 
d="M631 -20q-127 0 -229 44.5t-168 122t-101 180t-35 221.5t35 221.5t101 180t168 122t229 44.5q192 0 320 -96t176 -256l-188 -61q-31 107 -110.5 168t-197.5 61q-155 0 -241.5 -103.5t-86.5 -280.5q0 -178 86 -281t242 -103q119 0 198 60t110 167l188 -59
q-48 -160 -176 -256t-320 -96zM518 1300v236h225v-236h-225z" />
    <glyph glyph-name="Ccaron" unicode="&#x10c;" horiz-adv-x="1547" 
d="M805 -25q-159 0 -288.5 56.5t-215 155.5t-132 235t-46.5 295q0 214 79.5 380.5t235.5 263.5t367 97q229 0 391 -113t234 -309l-192 -60q-52 142 -162 218t-271 76q-225 0 -349 -146t-124 -407t124 -407t349 -146q161 0 271 76t162 218l192 -61q-72 -196 -234 -309
t-391 -113zM703 1567l-209 307h196l113 -178l112 178h193l-210 -307h-195z" />
    <glyph glyph-name="ccaron" unicode="&#x10d;" 
d="M631 -20q-127 0 -229 44.5t-168 122t-101 180t-35 221.5t35 221.5t101 180t168 122t229 44.5q192 0 320 -96t176 -256l-188 -61q-31 107 -110.5 168t-197.5 61q-155 0 -241.5 -103.5t-86.5 -280.5q0 -178 86 -281t242 -103q119 0 198 60t110 167l188 -59
q-48 -160 -176 -256t-320 -96zM529 1229l-210 307h197l113 -178l112 178h193l-210 -307h-195z" />
    <glyph glyph-name="Dcaron" unicode="&#x10e;" horiz-adv-x="1508" 
d="M201 0v1434h491q170 0 303.5 -55t218 -152.5t128 -227t43.5 -282.5t-43.5 -282.5t-128 -227t-218 -152.5t-303.5 -55h-491zM621 1567l-210 307h196l113 -178l113 178h192l-210 -307h-194zM406 184h266q249 0 377 140t128 393q0 255 -125 393.5t-380 138.5h-266v-1065z
" />
    <glyph glyph-name="dcaron" unicode="&#x10f;" horiz-adv-x="1331" 
d="M628 164q95 0 184.5 38.5t148.5 98.5v153q0 222 -85 350t-259 128q-145 0 -227.5 -97t-82.5 -287q0 -186 90 -285t231 -99zM571 -20q-205 0 -337 149.5t-132 418.5q0 268 130.5 418t328.5 150q247 0 379 -219h21v639h200v-1331q0 -105 21 -185v-20h-188q-10 92 -10 199
h-20q-147 -219 -393 -219zM1282 1096v440h205v-52l-55 -388h-150z" />
    <glyph glyph-name="Dcroat" unicode="&#x110;" horiz-adv-x="1465" 
d="M201 0v626h-201v182h201v626h491q170 0 303.5 -55t218 -152.5t128 -227t43.5 -282.5t-43.5 -282.5t-128 -227t-218 -152.5t-303.5 -55h-491zM406 184h266q249 0 377 140t128 393q0 255 -125 393.5t-380 138.5h-266v-446h326v-172h-326v-447z" />
    <glyph glyph-name="dcroat" unicode="&#x111;" horiz-adv-x="1331" 
d="M647 1203v164h314v169h200v-169h164v-164h-164v-998q0 -105 21 -185v-20h-188q-10 92 -10 199h-20q-147 -219 -393 -219q-205 0 -337 149.5t-132 418.5q0 268 130.5 418t328.5 150q247 0 379 -219h21v306h-314zM628 164q95 0 184.5 38.5t148.5 98.5v153q0 222 -85 350
t-259 128q-145 0 -227.5 -97t-82.5 -287q0 -186 90 -285t231 -99z" />
    <glyph glyph-name="Emacron" unicode="&#x112;" horiz-adv-x="1359" 
d="M201 0v1434h996v-185h-794v-432h651v-182h-651v-451h794v-184h-996zM414 1637v174h614v-174h-614z" />
    <glyph glyph-name="emacron" unicode="&#x113;" 
d="M631 -20q-126 0 -228 45t-168 122.5t-101.5 180.5t-35.5 220q0 158 60 285t182.5 205t290.5 78q125 0 221 -42.5t156 -118t90 -175.5t30 -221v-65h-830q8 -153 95.5 -241.5t240.5 -88.5q205 0 299 145l167 -73q-67 -117 -184.5 -186.5t-284.5 -69.5zM324 1299v175h614
v-175h-614zM301 653h615q-15 279 -285 279q-143 0 -228 -74.5t-102 -204.5z" />
    <glyph glyph-name="Ebreve" unicode="&#x114;" horiz-adv-x="1359" 
d="M201 0v1434h996v-185h-794v-432h651v-182h-651v-451h794v-184h-996zM719 1556q-147 0 -224 79.5t-77 238.5h164q0 -170 139 -170t139 170h160q0 -159 -77 -238.5t-224 -79.5z" />
    <glyph glyph-name="ebreve" unicode="&#x115;" 
d="M631 -20q-126 0 -228 45t-168 122.5t-101.5 180.5t-35.5 220q0 158 60 285t182.5 205t290.5 78q125 0 221 -42.5t156 -118t90 -175.5t30 -221v-65h-830q8 -153 95.5 -241.5t240.5 -88.5q205 0 299 145l167 -73q-67 -117 -184.5 -186.5t-284.5 -69.5zM629 1219
q-147 0 -224 79t-77 238h164q0 -170 139 -170t139 170h160q0 -159 -77 -238t-224 -79zM301 653h615q-15 279 -285 279q-143 0 -228 -74.5t-102 -204.5z" />
    <glyph glyph-name="Edotaccent" unicode="&#x116;" horiz-adv-x="1359" 
d="M201 0v1434h996v-185h-794v-432h651v-182h-651v-451h794v-184h-996zM608 1638v236h226v-236h-226z" />
    <glyph glyph-name="edotaccent" unicode="&#x117;" 
d="M631 -20q-126 0 -228 45t-168 122.5t-101.5 180.5t-35.5 220q0 158 60 285t182.5 205t290.5 78q125 0 221 -42.5t156 -118t90 -175.5t30 -221v-65h-830q8 -153 95.5 -241.5t240.5 -88.5q205 0 299 145l167 -73q-67 -117 -184.5 -186.5t-284.5 -69.5zM518 1300v236h225
v-236h-225zM301 653h615q-15 279 -285 279q-143 0 -228 -74.5t-102 -204.5z" />
    <glyph glyph-name="Eogonek" unicode="&#x118;" horiz-adv-x="1359" 
d="M1078 -338q-99 0 -156.5 40.5t-57.5 115.5q0 55 32 96.5t82 65.5v20h-777v1434h996v-185h-794v-432h651v-182h-651v-451h794v-184h-23q-82 0 -124 -25.5t-42 -70.5q0 -78 128 -78q32 0 60 5v-154q-60 -15 -118 -15z" />
    <glyph glyph-name="eogonek" unicode="&#x119;" 
d="M916 653q-15 279 -285 279q-143 0 -228 -74.5t-102 -204.5h615zM977 -366q-104 0 -172 49t-68 134q0 104 92 174v20q-76 -31 -198 -31q-126 0 -228 45t-168 122.5t-101.5 180.5t-35.5 220q0 158 60 285t182.5 205t290.5 78q125 0 221 -42.5t156 -118t90 -175.5t30 -221
v-65h-830q8 -153 95.5 -241.5t240.5 -88.5q205 0 299 145l167 -73q-28 -57 -95 -125q-59 -60 -91.5 -109t-32.5 -99q0 -93 144 -93q40 0 65 7v-166q-58 -17 -113 -17z" />
    <glyph glyph-name="Ecaron" unicode="&#x11a;" horiz-adv-x="1359" 
d="M201 0v1434h996v-185h-794v-432h651v-182h-651v-451h794v-184h-996zM620 1567l-210 307h196l113 -178l112 178h193l-210 -307h-194z" />
    <glyph glyph-name="ecaron" unicode="&#x11b;" 
d="M631 -20q-126 0 -228 45t-168 122.5t-101.5 180.5t-35.5 220q0 158 60 285t182.5 205t290.5 78q125 0 221 -42.5t156 -118t90 -175.5t30 -221v-65h-830q8 -153 95.5 -241.5t240.5 -88.5q205 0 299 145l167 -73q-67 -117 -184.5 -186.5t-284.5 -69.5zM529 1229l-210 307
h197l113 -178l112 178h193l-210 -307h-195zM301 653h615q-15 279 -285 279q-143 0 -228 -74.5t-102 -204.5z" />
    <glyph glyph-name="Gcircumflex" unicode="&#x11c;" horiz-adv-x="1545" 
d="M718 -25q-280 0 -437.5 198t-157.5 540q0 176 50.5 317.5t141 235t216 143t274.5 49.5q124 0 223 -33t166 -93t108 -138.5t57 -174.5l-185 -51q-25 128 -124.5 217t-252.5 89q-94 0 -176.5 -35t-147.5 -103t-103 -177t-38 -246q0 -133 34 -239.5t93 -174t136 -103.5
t166 -36q182 0 302.5 121t120.5 297h-458v184h656v-557q0 -121 11 -185v-20h-189q-10 140 -10 246h-20q-55 -133 -171.5 -202t-284.5 -69zM505 1567l210 307h194l210 -307h-196l-113 178l-113 -178h-192z" />
    <glyph glyph-name="gcircumflex" unicode="&#x11d;" horiz-adv-x="1336" 
d="M616 197q115 0 196 65.5t117.5 171t36.5 240.5v121q-60 63 -157 100t-193 37q-143 0 -228.5 -92.5t-85.5 -275.5t85.5 -275t228.5 -92zM627 -434q-145 0 -256 39.5t-181 101.5l122 152q130 -109 315 -109q339 0 339 409v105h-21q-134 -252 -385 -252q-202 0 -332 143.5
t-130 408.5q0 135 37 241.5t102 173.5t150 102t183 35q129 0 231.5 -59t167.5 -160h20q0 96 10 199h167v-917q0 -613 -539 -613zM351 1229l210 307h195l210 -307h-197l-113 178l-112 -178h-193z" />
    <glyph glyph-name="Gbreve" unicode="&#x11e;" horiz-adv-x="1545" 
d="M718 -25q-280 0 -437.5 198t-157.5 540q0 176 50.5 317.5t141 235t216 143t274.5 49.5q124 0 223 -33t166 -93t108 -138.5t57 -174.5l-185 -51q-25 128 -124.5 217t-252.5 89q-94 0 -176.5 -35t-147.5 -103t-103 -177t-38 -246q0 -133 34 -239.5t93 -174t136 -103.5
t166 -36q182 0 302.5 121t120.5 297h-458v184h656v-557q0 -121 11 -185v-20h-189q-10 140 -10 246h-20q-55 -133 -171.5 -202t-284.5 -69zM808 1556q-147 0 -224 79.5t-77 238.5h164q0 -170 139 -170t139 170h160q0 -159 -77 -238.5t-224 -79.5z" />
    <glyph glyph-name="gbreve" unicode="&#x11f;" horiz-adv-x="1336" 
d="M616 197q115 0 196 65.5t117.5 171t36.5 240.5v121q-60 63 -157 100t-193 37q-143 0 -228.5 -92.5t-85.5 -275.5t85.5 -275t228.5 -92zM627 -434q-145 0 -256 39.5t-181 101.5l122 152q130 -109 315 -109q339 0 339 409v105h-21q-134 -252 -385 -252q-202 0 -332 143.5
t-130 408.5q0 135 37 241.5t102 173.5t150 102t183 35q129 0 231.5 -59t167.5 -160h20q0 96 10 199h167v-917q0 -613 -539 -613zM654 1219q-147 0 -224 79t-77 238h164q0 -170 139 -170q67 0 103.5 42.5t36.5 127.5h159q0 -159 -77 -238t-224 -79z" />
    <glyph glyph-name="Gdotaccent" unicode="&#x120;" horiz-adv-x="1545" 
d="M718 -25q-280 0 -437.5 198t-157.5 540q0 176 50.5 317.5t141 235t216 143t274.5 49.5q124 0 223 -33t166 -93t108 -138.5t57 -174.5l-185 -51q-25 128 -124.5 217t-252.5 89q-94 0 -176.5 -35t-147.5 -103t-103 -177t-38 -246q0 -133 34 -239.5t93 -174t136 -103.5
t166 -36q182 0 302.5 121t120.5 297h-458v184h656v-557q0 -121 11 -185v-20h-189q-10 140 -10 246h-20q-55 -133 -171.5 -202t-284.5 -69zM697 1638v236h226v-236h-226z" />
    <glyph glyph-name="gdotaccent" unicode="&#x121;" horiz-adv-x="1336" 
d="M616 197q115 0 196 65.5t117.5 171t36.5 240.5v121q-60 63 -157 100t-193 37q-143 0 -228.5 -92.5t-85.5 -275.5t85.5 -275t228.5 -92zM627 -434q-145 0 -256 39.5t-181 101.5l122 152q130 -109 315 -109q339 0 339 409v105h-21q-134 -252 -385 -252q-202 0 -332 143.5
t-130 408.5q0 135 37 241.5t102 173.5t150 102t183 35q129 0 231.5 -59t167.5 -160h20q0 96 10 199h167v-917q0 -613 -539 -613zM544 1300v236h225v-236h-225z" />
    <glyph glyph-name="uni0122" unicode="&#x122;" horiz-adv-x="1545" 
d="M674 -410v277h211v-52l-65 -225h-146zM718 -25q-280 0 -437.5 198t-157.5 540q0 176 50.5 317.5t141 235t216 143t274.5 49.5q124 0 223 -33t166 -93t108 -138.5t57 -174.5l-185 -51q-25 128 -124.5 217t-252.5 89q-94 0 -176.5 -35t-147.5 -103t-103 -177t-38 -246
q0 -133 34 -239.5t93 -174t136 -103.5t166 -36q182 0 302.5 121t120.5 297h-458v184h656v-557q0 -121 11 -185v-20h-189q-10 140 -10 246h-20q-55 -133 -171.5 -202t-284.5 -69z" />
    <glyph glyph-name="uni0123" unicode="&#x123;" horiz-adv-x="1336" 
d="M616 197q115 0 196 65.5t117.5 171t36.5 240.5v121q-60 63 -157 100t-193 37q-143 0 -228.5 -92.5t-85.5 -275.5t85.5 -275t228.5 -92zM627 -434q-145 0 -256 39.5t-181 101.5l122 152q130 -109 315 -109q339 0 339 409v105h-21q-134 -252 -385 -252q-202 0 -332 143.5
t-130 408.5q0 135 37 241.5t102 173.5t150 102t183 35q129 0 231.5 -59t167.5 -160h20q0 96 10 199h167v-917q0 -613 -539 -613zM530 1260v52l65 224h146v-276h-211z" />
    <glyph glyph-name="Hcircumflex" unicode="&#x124;" horiz-adv-x="1536" 
d="M201 0v1434h205v-711h20q69 65 170.5 100t220.5 35q170 0 313 -72v648h205v-1434h-205v378q0 145 -94 228t-268 83t-268 -83t-94 -228v-378h-205zM463 1567l210 307h194l210 -307h-196l-113 178l-113 -178h-192z" />
    <glyph glyph-name="hcircumflex" unicode="&#x125;" horiz-adv-x="1286" 
d="M170 0v1536h201v-639h20q34 48 62.5 80t74 67.5t104.5 53.5t132 18q360 0 360 -454v-662h-200v641q0 150 -59 218.5t-177 68.5q-171 0 -317 -133v-795h-201zM-35 1669l210 307h195l210 -307h-197l-113 178l-112 -178h-193z" />
    <glyph glyph-name="Hbar" unicode="&#x126;" horiz-adv-x="1509" 
d="M0 1047v182h201v205h205v-211h724v211h205v-205h174v-182h-174v-1047h-205v378q0 145 -94 228t-268 83t-268 -83t-94 -228v-378h-205v1047h-201zM406 723h20q69 65 170.5 100t220.5 35q170 0 313 -72v267h-724v-330z" />
    <glyph glyph-name="hbar" unicode="&#x127;" horiz-adv-x="1286" 
d="M0 1203v164h170v169h201v-169h307v-164h-307v-306h20q34 48 62.5 80t74 67.5t104.5 53.5t132 18q360 0 360 -454v-662h-200v641q0 150 -59 218.5t-177 68.5q-171 0 -317 -133v-795h-201v1203h-170z" />
    <glyph glyph-name="Itilde" unicode="&#x128;" horiz-adv-x="606" 
d="M201 0v1434h205v-1434h-205zM453 1573q-43 0 -83 18t-64.5 40t-56 40t-60.5 18q-32 0 -45 -24t-13 -84h-164q0 289 185 289q43 0 81.5 -18.5t62 -40t54 -40t59.5 -18.5q34 0 49 25.5t15 81.5h166q0 -287 -186 -287z" />
    <glyph glyph-name="itilde" unicode="&#x129;" horiz-adv-x="540" 
d="M170 0v1096h201v-1096h-201zM420 1235q-43 0 -82.5 18t-64.5 40t-56 40t-60 18q-32 0 -45.5 -24t-13.5 -84h-164q0 289 185 289q43 0 81.5 -18.5t62 -40t54 -40t59.5 -18.5q34 0 49 25.5t15 81.5h166q0 -287 -186 -287z" />
    <glyph glyph-name="Imacron" unicode="&#x12a;" horiz-adv-x="606" 
d="M201 0v1434h205v-1434h-205zM-4 1637v174h614v-174h-614z" />
    <glyph glyph-name="imacron" unicode="&#x12b;" horiz-adv-x="540" 
d="M170 0v1096h201v-1096h-201zM-37 1299v175h615v-175h-615z" />
    <glyph glyph-name="Ibreve" unicode="&#x12c;" horiz-adv-x="606" 
d="M201 0v1434h205v-1434h-205zM301 1556q-147 0 -224 79.5t-77 238.5h164q0 -170 139 -170t139 170h160q0 -159 -77 -238.5t-224 -79.5z" />
    <glyph glyph-name="ibreve" unicode="&#x12d;" horiz-adv-x="540" 
d="M170 0v1096h201v-1096h-201zM268 1219q-147 0 -224 79t-77 238h164q0 -170 139 -170q67 0 103.5 42.5t36.5 127.5h159q0 -159 -77 -238t-224 -79z" />
    <glyph glyph-name="Iogonek" unicode="&#x12e;" horiz-adv-x="606" 
d="M329 -338q-99 0 -156.5 43.5t-57.5 123.5q0 49 22 89.5t64 61.5v1454h205v-1434h-3q-67 0 -106 -26t-39 -70q0 -78 128 -78q32 0 60 5v-154q-60 -15 -117 -15z" />
    <glyph glyph-name="iogonek" unicode="&#x12f;" horiz-adv-x="540" 
d="M294 -338q-99 0 -156.5 43.5t-57.5 123.5q0 49 23 89.5t67 61.5v1116h201v-1096h-2q-67 0 -106.5 -26t-39.5 -70q0 -78 128 -78q33 0 61 5v-154q-60 -15 -118 -15zM158 1300v236h225v-236h-225z" />
    <glyph glyph-name="Idotaccent" unicode="&#x130;" horiz-adv-x="606" 
d="M201 0v1434h205v-1434h-205zM190 1638v236h226v-236h-226z" />
    <glyph glyph-name="dotlessi" unicode="&#x131;" horiz-adv-x="540" 
d="M170 0v1096h201v-1096h-201z" />
    <glyph glyph-name="IJ" unicode="&#x132;" horiz-adv-x="1998" 
d="M1274 -26q-229 0 -370.5 137.5t-168.5 387.5l185 49q28 -189 117.5 -286.5t236.5 -97.5q144 0 221 97t77 287v886h205v-886q0 -283 -127.5 -428.5t-375.5 -145.5zM201 0v1434h205v-1434h-205z" />
    <glyph glyph-name="ij" unicode="&#x133;" horiz-adv-x="1091" 
d="M168 1300v236h225v-236h-225zM91 -430q-73 0 -149 20l20 181q60 -14 96 -14q128 0 128 134q0 28 -3 105.5t-3 116.5v983h201v-910q0 -39 3 -130t3 -132q0 -179 -73 -266.5t-223 -87.5zM721 0v1096h201v-1096h-201zM709 1300v236h225v-236h-225z" />
    <glyph glyph-name="Jcircumflex" unicode="&#x134;" horiz-adv-x="1303" 
d="M612 -26q-229 0 -370 137t-168 388l184 49q28 -189 117.5 -286.5t236.5 -97.5q144 0 221 97t77 287v886h205v-886q0 -283 -127.5 -428.5t-375.5 -145.5zM708 1567l210 307h194l210 -307h-197l-112 178l-113 -178h-192z" />
    <glyph glyph-name="jcircumflex" unicode="&#x135;" horiz-adv-x="550" 
d="M91 -430q-73 0 -149 20l20 181q60 -14 96 -14q128 0 128 134q0 28 -3 105.5t-3 116.5v983h201v-910q0 -39 3 -130t3 -132q0 -179 -73 -266.5t-223 -87.5zM-25 1229l210 307h195l210 -307h-197l-112 178l-113 -178h-193z" />
    <glyph glyph-name="uni0136" unicode="&#x136;" horiz-adv-x="1423" 
d="M651 -410v277h211v-52l-64 -225h-147zM201 0v1434h205v-634h212l438 634h227l-477 -659v-20q164 -31 263.5 -147.5t147.5 -313.5q33 -132 59.5 -192t56.5 -82v-20q-58 -18 -107 -18q-92 0 -140 64t-74 218q-59 353 -394 353h-212v-617h-205z" />
    <glyph glyph-name="uni0137" unicode="&#x137;" horiz-adv-x="1165" 
d="M499 -410v277h211v-52l-65 -225h-146zM170 0v1536h201v-886h130l321 446h221l-367 -472v-18q229 -52 312 -373q46 -180 96 -216v-20q-46 -15 -94 -15q-161 0 -203 233q-25 145 -89 203t-197 58h-130v-476h-201z" />
    <glyph glyph-name="kgreenlandic" unicode="&#x138;" horiz-adv-x="1165" 
d="M170 0v1096h201v-448h156l334 448h223l-382 -485v-17q112 -26 177.5 -111.5t108.5 -249.5q48 -181 96 -216v-20q-46 -15 -94 -15q-161 0 -203 233q-26 143 -89.5 201t-196.5 58h-130v-474h-201z" />
    <glyph glyph-name="Lacute" unicode="&#x139;" horiz-adv-x="1185" 
d="M201 0v1434h205v-1250h665v-184h-870zM210 1567l203 307h233l-242 -307h-194z" />
    <glyph glyph-name="lacute" unicode="&#x13a;" horiz-adv-x="540" 
d="M170 0v1536h201v-1536h-201zM170 1669l203 307h233l-241 -307h-195z" />
    <glyph glyph-name="uni013B" unicode="&#x13b;" horiz-adv-x="1185" 
d="M550 -410v277h211v-52l-65 -225h-146zM201 0v1434h205v-1250h665v-184h-870z" />
    <glyph glyph-name="uni013C" unicode="&#x13c;" horiz-adv-x="540" 
d="M165 -410v277h211v-52l-65 -225h-146zM170 0v1536h201v-1536h-201z" />
    <glyph glyph-name="Lcaron" unicode="&#x13d;" horiz-adv-x="1185" 
d="M201 0v1434h205v-1250h665v-184h-870zM794 993v441h204v-53l-55 -388h-149z" />
    <glyph glyph-name="lcaron" unicode="&#x13e;" horiz-adv-x="540" 
d="M170 0v1536h201v-1536h-201zM494 1096v440h204v-52l-55 -388h-149z" />
    <glyph glyph-name="Ldot" unicode="&#x13f;" horiz-adv-x="1185" 
d="M201 0v1434h205v-1250h665v-184h-870zM782 614v246h246v-246h-246z" />
    <glyph glyph-name="ldot" unicode="&#x140;" horiz-adv-x="540" 
d="M170 0v1536h201v-1536h-201zM433 666v270h214v-270h-214z" />
    <glyph glyph-name="Lslash" unicode="&#x141;" horiz-adv-x="1216" 
d="M31 529v185l200 73v647h205v-590l315 114v-184l-315 -115v-475h666v-184h-871v603z" />
    <glyph glyph-name="lslash" unicode="&#x142;" horiz-adv-x="622" 
d="M61 555v179l150 83v719h201v-641l149 86v-179l-149 -83v-719h-201v641z" />
    <glyph glyph-name="Nacute" unicode="&#x143;" horiz-adv-x="1548" 
d="M201 0v1434h315l617 -1229h20v1229h195v-1434h-316l-616 1229l-21 1v-1230h-194zM691 1567l203 307h233l-241 -307h-195z" />
    <glyph glyph-name="nacute" unicode="&#x144;" horiz-adv-x="1286" 
d="M170 0v1096h170q10 -100 10 -199h21q34 41 55 64.5t60 57.5t75 52t89 31.5t114 13.5q360 0 360 -454v-662h-200v641q0 150 -59 218.5t-177 68.5q-171 0 -317 -133v-795h-201zM557 1229l203 307h233l-241 -307h-195z" />
    <glyph glyph-name="uni0145" unicode="&#x145;" horiz-adv-x="1548" 
d="M670 -410v277h211v-52l-65 -225h-146zM201 0v1434h315l617 -1229h20v1229h195v-1434h-316l-616 1229l-21 1v-1230h-194z" />
    <glyph glyph-name="uni0146" unicode="&#x146;" horiz-adv-x="1286" 
d="M542 -410v277h211v-52l-65 -225h-146zM170 0v1096h170q10 -100 10 -199h21q34 41 55 64.5t60 57.5t75 52t89 31.5t114 13.5q360 0 360 -454v-662h-200v641q0 150 -59 218.5t-177 68.5q-171 0 -317 -133v-795h-201z" />
    <glyph glyph-name="Ncaron" unicode="&#x147;" horiz-adv-x="1548" 
d="M201 0v1434h315l617 -1229h20v1229h195v-1434h-316l-616 1229l-21 1v-1230h-194zM690 1567l-210 307h197l113 -178l112 178h193l-210 -307h-195z" />
    <glyph glyph-name="ncaron" unicode="&#x148;" horiz-adv-x="1286" 
d="M170 0v1096h170q10 -100 10 -199h21q34 41 55 64.5t60 57.5t75 52t89 31.5t114 13.5q360 0 360 -454v-662h-200v641q0 150 -59 218.5t-177 68.5q-171 0 -317 -133v-795h-201zM556 1229l-210 307h197l112 -178l113 178h193l-210 -307h-195z" />
    <glyph glyph-name="napostrophe" unicode="&#x149;" horiz-adv-x="1705" 
d="M590 0v1096h170q10 -100 10 -199h21q34 41 55 64.5t60 57.5t75 52t89 31.5t114 13.5q360 0 360 -454v-662h-201v641q0 151 -58.5 219t-176.5 68q-171 0 -317 -133v-795h-201zM215 993v441h205v-53l-55 -388h-150z" />
    <glyph glyph-name="Eng" unicode="&#x14a;" horiz-adv-x="1548" 
d="M1044 -425q-61 0 -136 15l21 185q59 -14 92 -14q132 0 132 135v104h-121l-616 1229l-21 1v-1230h-194v1434h315l617 -1229h20v1229h195v-1485q0 -187 -74.5 -280.5t-229.5 -93.5z" />
    <glyph glyph-name="eng" unicode="&#x14b;" horiz-adv-x="1286" 
d="M821 -425q-61 0 -136 15l21 185q60 -14 92 -14q126 0 126 135v104v117v524q0 150 -59 218.5t-177 68.5q-171 0 -317 -133v-795h-201v1096h170q10 -100 10 -199h21q34 41 55 64.5t60 57.5t75 52t89 31.5t114 13.5q360 0 360 -454v-713q0 -187 -74 -280.5t-229 -93.5z" />
    <glyph glyph-name="Omacron" unicode="&#x14c;" horiz-adv-x="1609" 
d="M805 -25q-159 0 -288.5 56.5t-215 155.5t-132 235t-46.5 295q0 214 79.5 380.5t235.5 263.5t367 97t367 -97t235.5 -263.5t79.5 -380.5q0 -159 -46.5 -295t-132 -235t-215 -155.5t-288.5 -56.5zM805 164q225 0 349 146t124 407t-124 407t-349 146t-349 -146t-124 -407
t124 -407t349 -146zM498 1637v174h614v-174h-614z" />
    <glyph glyph-name="omacron" unicode="&#x14d;" horiz-adv-x="1261" 
d="M631 -20q-127 0 -229 44.5t-168 122t-101 180t-35 221.5t35 221.5t101 180t168 122t229 44.5t229 -44.5t167.5 -122t100.5 -180t35 -221.5t-35 -221.5t-100.5 -180t-167.5 -122t-229 -44.5zM631 164q156 0 241.5 103t85.5 281t-86 281t-241 103t-241.5 -103.5
t-86.5 -280.5q0 -178 86 -281t242 -103zM324 1299v175h614v-175h-614z" />
    <glyph glyph-name="Obreve" unicode="&#x14e;" horiz-adv-x="1609" 
d="M805 -25q-159 0 -288.5 56.5t-215 155.5t-132 235t-46.5 295q0 214 79.5 380.5t235.5 263.5t367 97t367 -97t235.5 -263.5t79.5 -380.5q0 -159 -46.5 -295t-132 -235t-215 -155.5t-288.5 -56.5zM805 164q225 0 349 146t124 407t-124 407t-349 146t-349 -146t-124 -407
t124 -407t349 -146zM803 1556q-147 0 -224 79.5t-77 238.5h164q0 -170 139 -170t139 170h160q0 -159 -77 -238.5t-224 -79.5z" />
    <glyph glyph-name="obreve" unicode="&#x14f;" horiz-adv-x="1261" 
d="M631 -20q-127 0 -229 44.5t-168 122t-101 180t-35 221.5t35 221.5t101 180t168 122t229 44.5t229 -44.5t167.5 -122t100.5 -180t35 -221.5t-35 -221.5t-100.5 -180t-167.5 -122t-229 -44.5zM631 164q156 0 241.5 103t85.5 281t-86 281t-241 103t-241.5 -103.5
t-86.5 -280.5q0 -178 86 -281t242 -103zM629 1219q-147 0 -224 79t-77 238h164q0 -170 139 -170t139 170h160q0 -159 -77 -238t-224 -79z" />
    <glyph glyph-name="Ohungarumlaut" unicode="&#x150;" horiz-adv-x="1609" 
d="M805 -25q-159 0 -288.5 56.5t-215 155.5t-132 235t-46.5 295q0 214 79.5 380.5t235.5 263.5t367 97t367 -97t235.5 -263.5t79.5 -380.5q0 -159 -46.5 -295t-132 -235t-215 -155.5t-288.5 -56.5zM805 164q225 0 349 146t124 407t-124 407t-349 146t-349 -146t-124 -407
t124 -407t349 -146zM501 1567l206 307h226l-227 -307h-205zM892 1567l221 307h227l-242 -307h-206z" />
    <glyph glyph-name="ohungarumlaut" unicode="&#x151;" horiz-adv-x="1261" 
d="M631 -20q-127 0 -229 44.5t-168 122t-101 180t-35 221.5t35 221.5t101 180t168 122t229 44.5t229 -44.5t167.5 -122t100.5 -180t35 -221.5t-35 -221.5t-100.5 -180t-167.5 -122t-229 -44.5zM631 164q156 0 241.5 103t85.5 281t-86 281t-241 103t-241.5 -103.5
t-86.5 -280.5q0 -178 86 -281t242 -103zM327 1229l205 307h227l-228 -307h-204zM718 1229l221 307h227l-242 -307h-206z" />
    <glyph glyph-name="OE" unicode="&#x152;" horiz-adv-x="2242" 
d="M816 0q-170 0 -303.5 55t-218 152.5t-128 227t-43.5 282.5t43.5 282.5t128 227t218 152.5t303.5 55h1264v-185h-772v-432h628v-182h-628v-451h772v-184h-1264zM332 717q0 -255 125 -394t380 -139h266v1065h-266q-249 0 -377 -140t-128 -392z" />
    <glyph glyph-name="oe" unicode="&#x153;" horiz-adv-x="2041" 
d="M610 -20q-122 0 -220.5 44.5t-161.5 122t-96.5 180t-33.5 221.5t33.5 221.5t96.5 179.5t161.5 121.5t220.5 44.5q148 0 257.5 -62.5t173.5 -173.5q64 111 173 173.5t256 62.5q96 0 175 -27.5t135 -77t94 -119t56 -153t18 -179.5v-65h-810q8 -153 92 -241.5t233 -88.5
q102 0 175 39.5t114 105.5l167 -73q-63 -117 -176 -186.5t-273 -69.5q-146 0 -255 63t-174 174q-64 -112 -173.5 -174.5t-257.5 -62.5zM621 164q152 0 234.5 103t82.5 281t-83 280.5t-234 102.5t-234.5 -103t-83.5 -280q0 -178 83 -281t235 -103zM1141 653h595
q-15 278 -276 278q-138 0 -221 -74.5t-98 -203.5z" />
    <glyph glyph-name="Racute" unicode="&#x154;" horiz-adv-x="1454" 
d="M201 0v1434h606q227 0 341 -117t114 -313q0 -296 -288 -366v-21q112 -27 176.5 -115t109.5 -260q29 -108 52 -156t52 -66v-20q-60 -18 -112 -18q-87 0 -137 56.5t-71 182.5q-16 95 -41 158t-62.5 98.5t-83 49.5t-109.5 14h-342v-541h-205zM610 1567l203 307h234
l-242 -307h-195zM406 723h362q132 0 210.5 63.5t78.5 198.5q0 136 -78.5 200t-210.5 64h-362v-526z" />
    <glyph glyph-name="racute" unicode="&#x155;" horiz-adv-x="1072" 
d="M170 0v1096h170q10 -102 10 -199h21q44 69 85.5 113.5t106 75.5t144.5 31q66 0 117 -21t84.5 -60t55 -86t35.5 -109l-182 -59q-15 68 -63 109.5t-123 41.5q-150 0 -260 -167v-766h-201zM494 1260l202 307h234l-242 -307h-194z" />
    <glyph glyph-name="uni0156" unicode="&#x156;" horiz-adv-x="1454" 
d="M646 -410v277h211v-52l-64 -225h-147zM201 0v1434h606q227 0 341 -117t114 -313q0 -296 -288 -366v-21q112 -27 176.5 -115t109.5 -260q29 -108 52 -156t52 -66v-20q-60 -18 -112 -18q-87 0 -137 56.5t-71 182.5q-16 95 -41 158t-62.5 98.5t-83 49.5t-109.5 14h-342v-541
h-205zM406 723h362q132 0 210.5 63.5t78.5 198.5q0 136 -78.5 200t-210.5 64h-362v-526z" />
    <glyph glyph-name="uni0157" unicode="&#x157;" horiz-adv-x="1072" 
d="M165 -410v277h211v-52l-65 -225h-146zM170 0v1096h170q10 -102 10 -199h21q44 69 85.5 113.5t106 75.5t144.5 31q66 0 117 -21t84.5 -60t55 -86t35.5 -109l-182 -59q-15 68 -63 109.5t-123 41.5q-150 0 -260 -167v-766h-201z" />
    <glyph glyph-name="Rcaron" unicode="&#x158;" horiz-adv-x="1454" 
d="M201 0v1434h606q227 0 341 -117t114 -313q0 -296 -288 -366v-21q112 -27 176.5 -115t109.5 -260q29 -108 52 -156t52 -66v-20q-60 -18 -112 -18q-87 0 -137 56.5t-71 182.5q-16 95 -41 158t-62.5 98.5t-83 49.5t-109.5 14h-342v-541h-205zM609 1567l-210 307h197
l113 -178l112 178h193l-210 -307h-195zM406 723h362q132 0 210.5 63.5t78.5 198.5q0 136 -78.5 200t-210.5 64h-362v-526z" />
    <glyph glyph-name="rcaron" unicode="&#x159;" horiz-adv-x="1072" 
d="M170 0v1096h170q10 -102 10 -199h21q44 69 85.5 113.5t106 75.5t144.5 31q66 0 117 -21t84.5 -60t55 -86t35.5 -109l-182 -59q-15 68 -63 109.5t-123 41.5q-150 0 -260 -167v-766h-201zM493 1260l-210 307h196l113 -178l113 178h192l-210 -307h-194z" />
    <glyph glyph-name="Sacute" unicode="&#x15a;" horiz-adv-x="1297" 
d="M687 -25q-123 0 -225.5 33.5t-171.5 90.5t-114 126.5t-65 148.5l190 55q40 -132 140 -201.5t257 -69.5q146 0 219 51t73 142q0 57 -28 101.5t-75.5 74t-109 54t-129.5 46.5t-135.5 46t-129 57t-109 75t-75.5 105.5t-28 142.5q0 81 28 151.5t84.5 128.5t153 91.5
t221.5 33.5q113 0 203.5 -30.5t152.5 -85.5t103 -122t65 -149l-187 -55q-99 258 -347 258q-129 0 -200.5 -60t-71.5 -144q0 -52 28 -93.5t76 -71t109.5 -55t130 -49t136.5 -49t129.5 -60.5t109.5 -77.5t76 -105t28 -139.5q0 -175 -136 -285t-376 -110zM580 1567l202 307h234
l-242 -307h-194z" />
    <glyph glyph-name="sacute" unicode="&#x15b;" horiz-adv-x="1087" 
d="M580 -20q-199 0 -324.5 90.5t-167.5 233.5l195 53q37 -94 114 -148.5t192 -54.5q100 0 159 39.5t59 106.5q0 51 -37 84t-96 51t-130.5 33t-143 36t-130.5 53t-96 92t-37 145q0 146 104.5 233.5t302.5 87.5q346 0 445 -307l-174 -63q-34 83 -103 139.5t-174 56.5
q-90 0 -147.5 -39t-57.5 -102q0 -48 37 -79.5t96 -49t130 -32t142 -36.5t130 -54.5t96 -94.5t37 -148q0 -151 -101 -238.5t-320 -87.5zM447 1229l203 307h234l-242 -307h-195z" />
    <glyph glyph-name="Scircumflex" unicode="&#x15c;" horiz-adv-x="1297" 
d="M687 -25q-123 0 -225.5 33.5t-171.5 90.5t-114 126.5t-65 148.5l190 55q40 -132 140 -201.5t257 -69.5q146 0 219 51t73 142q0 57 -28 101.5t-75.5 74t-109 54t-129.5 46.5t-135.5 46t-129 57t-109 75t-75.5 105.5t-28 142.5q0 81 28 151.5t84.5 128.5t153 91.5
t221.5 33.5q113 0 203.5 -30.5t152.5 -85.5t103 -122t65 -149l-187 -55q-99 258 -347 258q-129 0 -200.5 -60t-71.5 -144q0 -52 28 -93.5t76 -71t109.5 -55t130 -49t136.5 -49t129.5 -60.5t109.5 -77.5t76 -105t28 -139.5q0 -175 -136 -285t-376 -110zM375 1567l210 307h194
l210 -307h-196l-113 178l-113 -178h-192z" />
    <glyph glyph-name="scircumflex" unicode="&#x15d;" horiz-adv-x="1087" 
d="M580 -20q-199 0 -324.5 90.5t-167.5 233.5l195 53q37 -94 114 -148.5t192 -54.5q100 0 159 39.5t59 106.5q0 51 -37 84t-96 51t-130.5 33t-143 36t-130.5 53t-96 92t-37 145q0 146 104.5 233.5t302.5 87.5q346 0 445 -307l-174 -63q-34 83 -103 139.5t-174 56.5
q-90 0 -147.5 -39t-57.5 -102q0 -48 37 -79.5t96 -49t130 -32t142 -36.5t130 -54.5t96 -94.5t37 -148q0 -151 -101 -238.5t-320 -87.5zM243 1229l210 307h194l210 -307h-197l-112 178l-113 -178h-192z" />
    <glyph glyph-name="Scedilla" unicode="&#x15e;" horiz-adv-x="1297" 
d="M625 -410q-68 0 -145 12l9 149q58 -8 110 -8q73 0 107.5 11.5t34.5 38.5q0 28 -34.5 38.5t-111.5 10.5h-49v21l78 114q-109 8 -199.5 44.5t-152 92t-102 121.5t-59.5 139l190 55q40 -132 140 -201.5t257 -69.5q146 0 219 51t73 142q0 57 -28 101.5t-75.5 74t-109 54
t-129.5 46.5t-135.5 46t-129 57t-109 75t-75.5 105.5t-28 142.5q0 81 28 151.5t84.5 128.5t153 91.5t221.5 33.5q113 0 203.5 -30.5t152.5 -85.5t103 -122t65 -149l-187 -55q-99 258 -347 258q-129 0 -200.5 -60t-71.5 -144q0 -52 28 -93.5t76 -71t109.5 -55t130 -49
t136.5 -49t129.5 -60.5t109.5 -77.5t76 -105t28 -139.5q0 -169 -126.5 -277.5t-350.5 -116.5l-24 -81q90 -4 143 -40.5t53 -106.5q0 -158 -269 -158z" />
    <glyph glyph-name="scedilla" unicode="&#x15f;" horiz-adv-x="1087" 
d="M517 -410q-67 0 -144 12l9 149q58 -8 110 -8q73 0 107.5 11.5t34.5 38.5t-35 38t-112 11h-49v21l81 119q-174 14 -283.5 102.5t-147.5 219.5l195 53q37 -94 114 -148.5t192 -54.5q100 0 159 39.5t59 106.5q0 51 -37 84t-96 51t-130.5 33t-143 36t-130.5 53t-96 92
t-37 145q0 146 104.5 233.5t302.5 87.5q346 0 445 -307l-174 -63q-34 83 -103 139.5t-174 56.5q-90 0 -147.5 -39t-57.5 -102q0 -48 37 -79.5t96 -49t130 -32t142 -36.5t130 -54.5t96 -94.5t37 -148q0 -145 -92.5 -231.5t-293.5 -93.5l-24 -86q90 -4 142.5 -40.5
t52.5 -106.5q0 -158 -269 -158z" />
    <glyph glyph-name="Scaron" unicode="&#x160;" horiz-adv-x="1297" 
d="M687 -25q-123 0 -225.5 33.5t-171.5 90.5t-114 126.5t-65 148.5l190 55q40 -132 140 -201.5t257 -69.5q146 0 219 51t73 142q0 57 -28 101.5t-75.5 74t-109 54t-129.5 46.5t-135.5 46t-129 57t-109 75t-75.5 105.5t-28 142.5q0 81 28 151.5t84.5 128.5t153 91.5
t221.5 33.5q113 0 203.5 -30.5t152.5 -85.5t103 -122t65 -149l-187 -55q-99 258 -347 258q-129 0 -200.5 -60t-71.5 -144q0 -52 28 -93.5t76 -71t109.5 -55t130 -49t136.5 -49t129.5 -60.5t109.5 -77.5t76 -105t28 -139.5q0 -175 -136 -285t-376 -110zM579 1567l-210 307
h196l113 -178l113 178h192l-210 -307h-194z" />
    <glyph glyph-name="scaron" unicode="&#x161;" horiz-adv-x="1087" 
d="M580 -20q-199 0 -324.5 90.5t-167.5 233.5l195 53q37 -94 114 -148.5t192 -54.5q100 0 159 39.5t59 106.5q0 51 -37 84t-96 51t-130.5 33t-143 36t-130.5 53t-96 92t-37 145q0 146 104.5 233.5t302.5 87.5q346 0 445 -307l-174 -63q-34 83 -103 139.5t-174 56.5
q-90 0 -147.5 -39t-57.5 -102q0 -48 37 -79.5t96 -49t130 -32t142 -36.5t130 -54.5t96 -94.5t37 -148q0 -151 -101 -238.5t-320 -87.5zM446 1229l-209 307h196l113 -178l112 178h193l-210 -307h-195z" />
    <glyph glyph-name="uni0162" unicode="&#x162;" horiz-adv-x="1359" 
d="M616 -410q-67 0 -144 12l9 149q58 -8 110 -8q73 0 107.5 11.5t34.5 38.5q0 28 -34.5 38.5t-111.5 10.5h-49v21l93 137h-53v1239h-478v195h1160v-195h-478v-1239h-62l-30 -105q90 -4 143 -40.5t53 -106.5q0 -158 -270 -158z" />
    <glyph glyph-name="uni0163" unicode="&#x163;" horiz-adv-x="983" 
d="M496 -410q-68 0 -145 12l9 149q58 -8 110 -8q73 0 107.5 11.5t34.5 38.5q0 28 -34.5 38.5t-111.5 10.5h-49v21l102 150q-210 86 -210 388v521h-248v174h248v276h195v-276h366v-174h-366v-483q0 -153 50.5 -214t174.5 -61q73 0 141 17l21 -176q-95 -25 -185 -25
q-60 0 -109 10l-28 -95q90 -4 143 -40.5t53 -106.5q0 -158 -269 -158z" />
    <glyph glyph-name="Tcaron" unicode="&#x164;" horiz-adv-x="1359" 
d="M578 0v1239h-478v195h1160v-195h-478v-1239h-204zM578 1567l-210 307h196l113 -178l113 178h192l-210 -307h-194z" />
    <glyph glyph-name="tcaron" unicode="&#x165;" horiz-adv-x="983" 
d="M637 1219v317h205v-52l-56 -265h-149zM61 922v174h248v276h195v-276h366v-174h-366v-483q0 -153 50.5 -214t174.5 -61q73 0 141 17l21 -176q-95 -25 -185 -25q-185 0 -291 102.5t-106 318.5v521h-248z" />
    <glyph glyph-name="Tbar" unicode="&#x166;" horiz-adv-x="1357" 
d="M262 555v182h316v502h-478v195h1160v-195h-478v-502h320v-182h-320v-555h-204v555h-316z" />
    <glyph glyph-name="tbar" unicode="&#x167;" horiz-adv-x="983" 
d="M109 496v163h200v263h-248v174h248v276h195v-276h366v-174h-366v-263h340v-163h-340v-57q0 -153 50.5 -214t174.5 -61q73 0 141 17l21 -176q-95 -25 -185 -25q-185 0 -291 102.5t-106 318.5v95h-200z" />
    <glyph glyph-name="Utilde" unicode="&#x168;" horiz-adv-x="1544" 
d="M772 -26q-284 0 -434 146t-150 428v886h205v-886q0 -190 101 -287t284 -97q184 0 284.5 97t100.5 287v886h193v-886q0 -282 -149.5 -428t-434.5 -146zM920 1573q-43 0 -83 18t-64.5 40t-56 40t-60.5 18q-32 0 -45 -24t-13 -84h-164q0 289 184 289q43 0 81.5 -18.5t62 -40
t54.5 -40t60 -18.5q34 0 49 25.5t15 81.5h166q0 -287 -186 -287z" />
    <glyph glyph-name="utilde" unicode="&#x169;" horiz-adv-x="1286" 
d="M522 -20q-360 0 -360 454v662h200v-641q0 -150 59 -218.5t177 -68.5q171 0 317 133v795h201v-1096h-170q-10 100 -10 199h-21q-34 -41 -55 -64.5t-60 -57.5t-75 -52t-89 -31.5t-114 -13.5zM788 1235q-43 0 -82.5 18t-64.5 40t-56 40t-60 18q-32 0 -45 -24t-13 -84h-164
q0 289 184 289q43 0 81.5 -18.5t62 -40t54 -40t59.5 -18.5q34 0 49.5 25.5t15.5 81.5h166q0 -287 -187 -287z" />
    <glyph glyph-name="Umacron" unicode="&#x16a;" horiz-adv-x="1544" 
d="M772 -26q-284 0 -434 146t-150 428v886h205v-886q0 -190 101 -287t284 -97q184 0 284.5 97t100.5 287v886h193v-886q0 -282 -149.5 -428t-434.5 -146zM463 1637v174h614v-174h-614z" />
    <glyph glyph-name="umacron" unicode="&#x16b;" horiz-adv-x="1286" 
d="M522 -20q-360 0 -360 454v662h200v-641q0 -150 59 -218.5t177 -68.5q171 0 317 133v795h201v-1096h-170q-10 100 -10 199h-21q-34 -41 -55 -64.5t-60 -57.5t-75 -52t-89 -31.5t-114 -13.5zM332 1299v175h614v-175h-614z" />
    <glyph glyph-name="Ubreve" unicode="&#x16c;" horiz-adv-x="1544" 
d="M772 -26q-284 0 -434 146t-150 428v886h205v-886q0 -190 101 -287t284 -97q184 0 284.5 97t100.5 287v886h193v-886q0 -282 -149.5 -428t-434.5 -146zM768 1556q-147 0 -224 79.5t-77 238.5h164q0 -170 139 -170t139 170h160q0 -159 -77 -238.5t-224 -79.5z" />
    <glyph glyph-name="ubreve" unicode="&#x16d;" horiz-adv-x="1286" 
d="M522 -20q-360 0 -360 454v662h200v-641q0 -150 59 -218.5t177 -68.5q171 0 317 133v795h201v-1096h-170q-10 100 -10 199h-21q-34 -41 -55 -64.5t-60 -57.5t-75 -52t-89 -31.5t-114 -13.5zM637 1219q-147 0 -224 79t-77 238h164q0 -170 139 -170t139 170h160
q0 -159 -77 -238t-224 -79z" />
    <glyph glyph-name="Uring" unicode="&#x16e;" horiz-adv-x="1544" 
d="M772 -26q-284 0 -434 146t-150 428v886h205v-886q0 -190 101 -287t284 -97q184 0 284.5 97t100.5 287v886h193v-886q0 -282 -149.5 -428t-434.5 -146zM770 1567q-132 0 -202 53.5t-70 149.5t70 149.5t202 53.5t202 -53.5t70 -149.5t-70 -149.5t-202 -53.5zM770 1700
q49 0 75.5 19t26.5 51t-27 51t-75 19q-49 0 -75.5 -19t-26.5 -51t26.5 -51t75.5 -19z" />
    <glyph glyph-name="uring" unicode="&#x16f;" horiz-adv-x="1286" 
d="M522 -20q-360 0 -360 454v662h200v-641q0 -150 59 -218.5t177 -68.5q171 0 317 133v795h201v-1096h-170q-10 100 -10 199h-21q-34 -41 -55 -64.5t-60 -57.5t-75 -52t-89 -31.5t-114 -13.5zM639 1229q-132 0 -202 54t-70 150t70 149t202 53t202 -53t70 -149t-70 -150
t-202 -54zM639 1362q48 0 75 19.5t27 51.5q0 31 -26.5 50t-75.5 19t-75.5 -18.5t-26.5 -50.5t26.5 -51.5t75.5 -19.5z" />
    <glyph glyph-name="Uhungarumlaut" unicode="&#x170;" horiz-adv-x="1544" 
d="M772 -26q-284 0 -434 146t-150 428v886h205v-886q0 -190 101 -287t284 -97q184 0 284.5 97t100.5 287v886h193v-886q0 -282 -149.5 -428t-434.5 -146zM466 1567l206 307h226l-227 -307h-205zM857 1567l221 307h228l-243 -307h-206z" />
    <glyph glyph-name="uhungarumlaut" unicode="&#x171;" horiz-adv-x="1286" 
d="M522 -20q-360 0 -360 454v662h200v-641q0 -150 59 -218.5t177 -68.5q171 0 317 133v795h201v-1096h-170q-10 100 -10 199h-21q-34 -41 -55 -64.5t-60 -57.5t-75 -52t-89 -31.5t-114 -13.5zM335 1229l206 307h226l-227 -307h-205zM726 1229l221 307h228l-243 -307h-206z
" />
    <glyph glyph-name="Uogonek" unicode="&#x172;" horiz-adv-x="1544" 
d="M824 -328q-99 0 -156.5 40.5t-57.5 115.5q0 93 90 148q-250 19 -381 164t-131 408v886h205v-886q0 -190 101 -287t284 -97q184 0 284.5 97t100.5 287v886h193v-886q0 -280 -147 -426t-428 -148q-27 -22 -27 -60q0 -78 128 -78q32 0 60 5v-153q-64 -16 -118 -16z" />
    <glyph glyph-name="uogonek" unicode="&#x173;" horiz-adv-x="1286" 
d="M998 -338q-98 0 -156 43t-58 118q0 130 162 177q-10 100 -10 199h-21q-34 -41 -55 -64.5t-60 -57.5t-75 -52t-89 -31.5t-114 -13.5q-360 0 -360 454v662h200v-641q0 -150 59 -218.5t177 -68.5q171 0 317 133v795h201v-1096h-22q-82 0 -124 -25.5t-42 -70.5q0 -78 128 -78
q32 0 60 5v-154q-60 -15 -118 -15z" />
    <glyph glyph-name="Wcircumflex" unicode="&#x174;" horiz-adv-x="2062" 
d="M461 0l-360 1434h220l286 -1239h21l278 1239h254l279 -1239h20l287 1239h215l-359 -1434h-302l-259 1158h-20l-259 -1158h-301zM728 1567l210 307h195l209 -307h-196l-113 178l-112 -178h-193z" />
    <glyph glyph-name="wcircumflex" unicode="&#x175;" horiz-adv-x="1860" 
d="M417 0l-315 1096h209l246 -922h21l221 922h267l221 -922h21l246 922h204l-315 -1096h-289l-215 891h-19l-214 -891h-289zM627 1229l210 307h194l210 -307h-197l-112 178l-113 -178h-192z" />
    <glyph glyph-name="Ycircumflex" unicode="&#x176;" horiz-adv-x="1306" 
d="M551 0v548l-502 886h225l376 -722h21l376 722h210l-501 -886v-548h-205zM348 1567l210 307h195l210 -307h-197l-113 178l-112 -178h-193z" />
    <glyph glyph-name="ycircumflex" unicode="&#x177;" horiz-adv-x="1213" 
d="M347 -430q-93 0 -164.5 40.5t-110.5 110.5l137 104q50 -81 138 -81q58 0 101 40.5t74 131.5l29 84q-43 0 -67.5 16t-41.5 64l-357 1016h207l307 -922h21l307 922h201l-430 -1221q-108 -305 -351 -305zM314 1229l210 307h195l210 -307h-197l-112 178l-113 -178h-193z" />
    <glyph glyph-name="Ydieresis" unicode="&#x178;" horiz-adv-x="1306" 
d="M551 0v548l-502 886h225l376 -722h21l376 722h210l-501 -886v-548h-205zM349 1638v236h217v-236h-217zM740 1638v236h217v-236h-217z" />
    <glyph glyph-name="Zacute" unicode="&#x179;" horiz-adv-x="1439" 
d="M153 0v164l868 1089l-852 -4v185h1100v-164l-869 -1091l895 5v-184h-1142zM622 1567l202 307h234l-242 -307h-194z" />
    <glyph glyph-name="zacute" unicode="&#x17a;" horiz-adv-x="1187" 
d="M147 0v162l652 764l-632 -4v174h858v-162l-652 -764l676 4v-174h-902zM499 1229l202 307h234l-242 -307h-194z" />
    <glyph glyph-name="Zdotaccent" unicode="&#x17b;" horiz-adv-x="1439" 
d="M153 0v164l868 1089l-852 -4v185h1100v-164l-869 -1091l895 5v-184h-1142zM609 1638v236h226v-236h-226z" />
    <glyph glyph-name="zdotaccent" unicode="&#x17c;" horiz-adv-x="1187" 
d="M147 0v162l652 764l-632 -4v174h858v-162l-652 -764l676 4v-174h-902zM486 1300v236h226v-236h-226z" />
    <glyph glyph-name="Zcaron" unicode="&#x17d;" horiz-adv-x="1439" 
d="M153 0v164l868 1089l-852 -4v185h1100v-164l-869 -1091l895 5v-184h-1142zM621 1567l-210 307h196l113 -178l113 178h192l-210 -307h-194z" />
    <glyph glyph-name="zcaron" unicode="&#x17e;" horiz-adv-x="1187" 
d="M147 0v162l652 764l-632 -4v174h858v-162l-652 -764l676 4v-174h-902zM498 1229l-210 307h196l113 -178l113 178h192l-210 -307h-194z" />
    <glyph glyph-name="uni018F" unicode="&#x18f;" horiz-adv-x="1584" 
d="M772 -25q-163 0 -289.5 56t-205 156t-119 233t-40.5 293v85h1131q-18 223 -138.5 347.5t-338.5 124.5q-147 0 -248.5 -54.5t-152.5 -144.5l-180 84q71 135 220.5 219t360.5 84q132 0 244 -38t193 -106.5t138.5 -161.5t85.5 -203t28 -232q0 -155 -45 -288.5t-129.5 -235
t-217 -160t-297.5 -58.5zM332 613q4 -99 30 -178.5t77 -141.5t135.5 -95.5t197.5 -33.5q212 0 332 118t143 331h-915z" />
    <glyph glyph-name="florin" unicode="&#x192;" horiz-adv-x="1136" 
d="M154 635v174h331l29 185q38 247 128 355.5t262 108.5q89 0 181 -24l-20 -179q-74 19 -139 19q-42 0 -71.5 -6t-51.5 -22.5t-36.5 -36t-26 -58t-18.5 -74.5t-17 -99l-26 -169h304v-174h-331l-29 -196q-38 -247 -128.5 -355.5t-262.5 -108.5q-85 0 -181 25l21 178
q70 -18 139 -18q42 0 71.5 6t51.5 22.5t36.5 36t26 58t18.5 74.5t17 99l28 179h-306z" />
    <glyph glyph-name="uni01F4" unicode="&#x1f4;" horiz-adv-x="1545" 
d="M718 -25q-280 0 -437.5 198t-157.5 540q0 176 50.5 317.5t141 235t216 143t274.5 49.5q124 0 223 -33t166 -93t108 -138.5t57 -174.5l-185 -51q-25 128 -124.5 217t-252.5 89q-94 0 -176.5 -35t-147.5 -103t-103 -177t-38 -246q0 -133 34 -239.5t93 -174t136 -103.5
t166 -36q182 0 302.5 121t120.5 297h-458v184h656v-557q0 -121 11 -185v-20h-189q-10 140 -10 246h-20q-55 -133 -171.5 -202t-284.5 -69zM710 1567l202 307h234l-242 -307h-194z" />
    <glyph glyph-name="uni01F5" unicode="&#x1f5;" horiz-adv-x="1336" 
d="M616 197q115 0 196 65.5t117.5 171t36.5 240.5v121q-60 63 -157 100t-193 37q-143 0 -228.5 -92.5t-85.5 -275.5t85.5 -275t228.5 -92zM627 -434q-145 0 -256 39.5t-181 101.5l122 152q130 -109 315 -109q339 0 339 409v105h-21q-134 -252 -385 -252q-202 0 -332 143.5
t-130 408.5q0 135 37 241.5t102 173.5t150 102t183 35q129 0 231.5 -59t167.5 -160h20q0 96 10 199h167v-917q0 -613 -539 -613zM556 1229l203 307h233l-241 -307h-195z" />
    <glyph glyph-name="Aringacute" unicode="&#x1fa;" horiz-adv-x="1486" 
d="M476 484q160 81 319 81q111 0 216 -38l-256 717h-21l-274 -747zM68 0l544 1434h262l545 -1434h-225l-44 123q-50 140 -144.5 204t-268.5 64t-268 -64t-143 -204l-43 -123h-215zM743 1567q-132 0 -202 53.5t-70 149.5t70 149.5t202 53.5t202.5 -53.5t70.5 -149.5
t-70.5 -149.5t-202.5 -53.5zM743 1700q49 0 76 19t27 51q0 31 -27.5 50.5t-75.5 19.5q-49 0 -75.5 -19t-26.5 -51t26.5 -51t75.5 -19zM643 2086l203 307h233l-241 -307h-195z" />
    <glyph glyph-name="aringacute" unicode="&#x1fb;" horiz-adv-x="1211" 
d="M520 148q89 0 165 33t164 109v268h-21q-93 -44 -216 -61q-158 -22 -221 -69t-63 -133q0 -69 41.5 -108t150.5 -39zM457 -20q-157 0 -243.5 80.5t-86.5 219.5q0 140 94 230t274 117l74 11q165 25 222.5 57t57.5 101q0 139 -208 139q-86 0 -148 -25t-94 -59.5t-57 -86.5
l-175 76q22 44 47 80t65.5 74t89.5 63.5t119 42t153 16.5q218 0 312.5 -101t94.5 -307v-502q0 -120 10 -186v-20h-172q-10 86 -10 199h-21q-61 -100 -164.5 -159.5t-233.5 -59.5zM625 1229q-132 0 -202.5 54t-70.5 150t70.5 149t202.5 53t202 -53t70 -149t-70 -150t-202 -54
zM625 1362q48 0 75 19.5t27 51.5q0 31 -26.5 50t-75.5 19t-76 -19t-27 -50q0 -32 27 -51.5t76 -19.5zM524 1748l203 307h234l-242 -307h-195z" />
    <glyph glyph-name="AEacute" unicode="&#x1fc;" horiz-adv-x="2122" 
d="M994 0v438h-468l-246 -438h-226l817 1434h1089v-185h-772v-432h629v-182h-629v-451h772v-184h-966zM1034 1567l203 307h233l-241 -307h-195zM618 614h376v635h-20z" />
    <glyph glyph-name="aeacute" unicode="&#x1fd;" horiz-adv-x="1936" 
d="M851 703q0 232 -238 232q-59 0 -105 -13t-77.5 -38.5t-52 -53.5t-37.5 -66l-175 76q118 276 458 276q263 0 355 -172q142 171 386 171q120 0 212 -42t149.5 -117.5t86.5 -175.5t29 -221v-65h-789q7 -153 89 -241.5t226 -88.5q192 0 279 145l167 -73q-63 -117 -176 -186.5
t-273 -69.5q-136 0 -241 54.5t-171 151.5h-20q-64 -92 -180.5 -149t-267.5 -57q-170 0 -264 80.5t-94 217.5q0 140 102 231t296 109l326 30v55zM885 1229l202 307h234l-242 -307h-194zM328 292q0 -69 47 -106.5t167 -37.5q103 0 187 30.5t175 96.5q-42 95 -50 209l-242 -21
q-160 -14 -222 -52.5t-62 -118.5zM1056 657h574q-17 274 -265 274q-133 0 -212.5 -73.5t-96.5 -200.5z" />
    <glyph glyph-name="Oslashacute" unicode="&#x1fe;" horiz-adv-x="1468" 
d="M805 -25q-270 0 -450 159l-126 -134h-225l243 260q-124 190 -124 457q0 214 79.5 380.5t235.5 263.5t367 97q268 0 450 -158l125 134h226l-243 -260q124 -190 124 -457q0 -159 -46.5 -295t-132 -235t-215 -155.5t-288.5 -56.5zM805 164q225 0 349 146t124 407
q0 195 -65 325l-721 -777q116 -101 313 -101zM655 1536l203 307h234l-242 -307h-195zM332 717q0 -198 64 -326l722 777q-117 102 -313 102q-225 0 -349 -146t-124 -407z" />
    <glyph glyph-name="oslashacute" unicode="&#x1ff;" horiz-adv-x="1261" 
d="M631 -20q-208 0 -345 115l-89 -95h-197l193 202q-95 146 -95 346q0 119 35 221.5t101 180t168 122t229 44.5q207 0 345 -116l89 96h197l-193 -202q94 -146 94 -346q0 -119 -35 -221.5t-100.5 -180t-167.5 -122t-229 -44.5zM631 164q159 0 245.5 103t86.5 281
q0 125 -42 212l-495 -533q81 -63 205 -63zM530 1229l203 307h234l-242 -307h-195zM299 548q0 -125 42 -212l495 531q-82 65 -205 65q-158 0 -245 -103t-87 -281z" />
    <glyph glyph-name="uni0218" unicode="&#x218;" horiz-adv-x="1297" 
d="M582 -410v277h211v-52l-65 -225h-146zM687 -25q-123 0 -225.5 33.5t-171.5 90.5t-114 126.5t-65 148.5l190 55q40 -132 140 -201.5t257 -69.5q146 0 219 51t73 142q0 57 -28 101.5t-75.5 74t-109 54t-129.5 46.5t-135.5 46t-129 57t-109 75t-75.5 105.5t-28 142.5
q0 81 28 151.5t84.5 128.5t153 91.5t221.5 33.5q113 0 203.5 -30.5t152.5 -85.5t103 -122t65 -149l-187 -55q-99 258 -347 258q-129 0 -200.5 -60t-71.5 -144q0 -52 28 -93.5t76 -71t109.5 -55t130 -49t136.5 -49t129.5 -60.5t109.5 -77.5t76 -105t28 -139.5
q0 -175 -136 -285t-376 -110z" />
    <glyph glyph-name="uni0219" unicode="&#x219;" horiz-adv-x="1087" 
d="M474 -410v277h211v-52l-64 -225h-147zM580 -20q-199 0 -324.5 90.5t-167.5 233.5l195 53q37 -94 114 -148.5t192 -54.5q100 0 159 39.5t59 106.5q0 51 -37 84t-96 51t-130.5 33t-143 36t-130.5 53t-96 92t-37 145q0 146 104.5 233.5t302.5 87.5q346 0 445 -307l-174 -63
q-34 83 -103 139.5t-174 56.5q-90 0 -147.5 -39t-57.5 -102q0 -48 37 -79.5t96 -49t130 -32t142 -36.5t130 -54.5t96 -94.5t37 -148q0 -151 -101 -238.5t-320 -87.5z" />
    <glyph glyph-name="uni021A" unicode="&#x21a;" horiz-adv-x="1359" 
d="M573 -410v277h211v-52l-64 -225h-147zM578 0v1239h-478v195h1160v-195h-478v-1239h-204z" />
    <glyph glyph-name="uni021B" unicode="&#x21b;" horiz-adv-x="983" 
d="M453 -410v277h211v-52l-65 -225h-146zM61 922v174h248v276h195v-276h366v-174h-366v-483q0 -153 50.5 -214t174.5 -61q73 0 141 17l21 -176q-95 -25 -185 -25q-185 0 -291 102.5t-106 318.5v521h-248z" />
    <glyph glyph-name="uni0237" unicode="&#x237;" horiz-adv-x="550" 
d="M91 -430q-73 0 -149 20l20 181q60 -14 96 -14q128 0 128 134q0 28 -3 105.5t-3 116.5v983h201v-910q0 -39 3 -130t3 -132q0 -179 -73 -266.5t-223 -87.5z" />
    <glyph glyph-name="uni0259" unicode="&#x259;" 
d="M592 -20q-125 0 -221.5 42.5t-156 118t-90 175.5t-30.5 221v65h831q-8 153 -95.5 241.5t-240.5 88.5q-205 0 -299 -146l-167 74q67 117 184.5 186.5t284.5 69.5t289.5 -78t182.5 -205t60 -285q0 -118 -35 -220.5t-100.5 -180t-168 -122.5t-228.5 -45zM306 442
q15 -278 286 -278q143 0 228 74t102 204h-616z" />
    <glyph glyph-name="uni02BC" unicode="&#x2bc;" horiz-adv-x="614" 
d="M215 993v441h205v-53l-55 -388h-150z" />
    <glyph glyph-name="circumflex" unicode="&#x2c6;" horiz-adv-x="1228" 
d="M718 1536l210 -307h-197l-113 178l-112 -178h-193l210 307h195z" />
    <glyph glyph-name="caron" unicode="&#x2c7;" horiz-adv-x="1228" 
d="M517 1229l-210 307h197l112 -178l113 178h193l-210 -307h-195z" />
    <glyph glyph-name="uni02C9" unicode="&#x2c9;" horiz-adv-x="1228" 
d="M307 1299v175h615v-175h-615z" />
    <glyph glyph-name="breve" unicode="&#x2d8;" horiz-adv-x="1228" 
d="M614 1219q-147 0 -224 79t-77 238h164q0 -170 139 -170q67 0 103.5 42.5t36.5 127.5h159q0 -159 -77 -238t-224 -79z" />
    <glyph glyph-name="dotaccent" unicode="&#x2d9;" horiz-adv-x="1228" 
d="M502 1300v236h225v-236h-225z" />
    <glyph glyph-name="ring" unicode="&#x2da;" horiz-adv-x="1228" 
d="M614 1182q-132 0 -202 53.5t-70 149.5t70 149.5t202 53.5t202.5 -53.5t70.5 -149.5t-70.5 -149.5t-202.5 -53.5zM614 1315q49 0 76 19t27 51q0 31 -27.5 50.5t-75.5 19.5q-49 0 -75.5 -19t-26.5 -51t26.5 -51t75.5 -19z" />
    <glyph glyph-name="ogonek" unicode="&#x2db;" horiz-adv-x="1228" 
d="M400 -338q-99 0 -156.5 40.5t-57.5 115.5q0 55 32 96.5t82 65.5v60l218 -40h-22q-82 0 -124 -25.5t-42 -70.5q0 -78 128 -78q32 0 60 5v-154q-60 -15 -118 -15z" />
    <glyph glyph-name="tilde" unicode="&#x2dc;" horiz-adv-x="1228" 
d="M764 1235q-43 0 -82.5 18t-64.5 40t-56 40t-60 18q-32 0 -45.5 -24t-13.5 -84h-163q0 289 184 289q43 0 81.5 -18.5t62 -40t54 -40t59.5 -18.5q34 0 49 25.5t15 81.5h166q0 -287 -186 -287z" />
    <glyph glyph-name="hungarumlaut" unicode="&#x2dd;" horiz-adv-x="1228" 
d="M195 1229l205 307h227l-228 -307h-204zM586 1229l221 307h227l-242 -307h-206z" />
    <glyph glyph-name="gravecomb" unicode="&#x300;" horiz-adv-x="0" 
d="M-96 1229l-242 307h234l202 -307h-194z" />
    <glyph glyph-name="acutecomb" unicode="&#x301;" horiz-adv-x="0" 
d="M-100 1229l202 307h234l-242 -307h-194z" />
    <glyph glyph-name="uni0302" unicode="&#x302;" horiz-adv-x="0" 
d="M-305 1229l210 307h194l210 -307h-196l-113 178l-113 -178h-192z" />
    <glyph glyph-name="tildecomb" unicode="&#x303;" horiz-adv-x="0" 
d="M150 1235q-43 0 -83 18t-64.5 40t-56 40t-60.5 18q-32 0 -45 -24t-13 -84h-164q0 289 184 289q43 0 81.5 -18.5t62 -40t54 -40t59.5 -18.5q34 0 49.5 25.5t15.5 81.5h166q0 -287 -186 -287z" />
    <glyph glyph-name="uni0304" unicode="&#x304;" horiz-adv-x="0" 
d="M-307 1299v175h614v-175h-614z" />
    <glyph glyph-name="uni0306" unicode="&#x306;" horiz-adv-x="0" 
d="M-2 1219q-147 0 -224 79t-77 238h164q0 -170 139 -170t139 170h160q0 -159 -77 -238t-224 -79z" />
    <glyph glyph-name="uni0307" unicode="&#x307;" horiz-adv-x="0" 
d="M-113 1300v236h226v-236h-226z" />
    <glyph glyph-name="uni0308" unicode="&#x308;" horiz-adv-x="0" 
d="M-304 1300v236h217v-236h-217zM87 1300v236h217v-236h-217z" />
    <glyph glyph-name="uni030A" unicode="&#x30a;" horiz-adv-x="0" 
d="M0 1229q-132 0 -202 54t-70 150t70 149t202 53t202 -53t70 -149t-70 -150t-202 -54zM0 1362q48 0 75 19.5t27 51.5q0 31 -26.5 50t-75.5 19t-75.5 -18.5t-26.5 -50.5t26.5 -51.5t75.5 -19.5z" />
    <glyph glyph-name="uni030B" unicode="&#x30b;" horiz-adv-x="0" 
d="M-304 1229l206 307h226l-227 -307h-205zM87 1229l221 307h228l-243 -307h-206z" />
    <glyph glyph-name="uni030C" unicode="&#x30c;" horiz-adv-x="0" 
d="M-101 1229l-210 307h196l113 -178l113 178h192l-210 -307h-194z" />
    <glyph glyph-name="uni0312" unicode="&#x312;" horiz-adv-x="0" 
d="M508 1260v52l64 224h147v-276h-211z" />
    <glyph glyph-name="uni0313" unicode="&#x313;" horiz-adv-x="0" 
d="M215 993v441h205v-53l-55 -388h-150z" />
    <glyph glyph-name="dotbelowcomb" unicode="&#x323;" horiz-adv-x="0" 
d="M-113 -410v236h226v-236h-226z" />
    <glyph glyph-name="uni0324" unicode="&#x324;" horiz-adv-x="0" 
d="M-304 -410v236h217v-236h-217zM87 -410v236h217v-236h-217z" />
    <glyph glyph-name="uni0325" unicode="&#x325;" horiz-adv-x="0" 
d="M0 -434q-132 0 -202 54t-70 150t70 149t202 53t202 -53t70 -149t-70 -150t-202 -54zM0 -301q48 0 75 19.5t27 51.5q0 31 -26.5 50t-75.5 19t-75.5 -18.5t-26.5 -50.5t26.5 -51.5t75.5 -19.5z" />
    <glyph glyph-name="uni0326" unicode="&#x326;" horiz-adv-x="0" 
d="M509 -410v277h211v-52l-65 -225h-146z" />
    <glyph glyph-name="uni0327" unicode="&#x327;" horiz-adv-x="0" 
d="M-62 -410q-68 0 -145 12l9 149q58 -8 110 -8q73 0 107.5 11.5t34.5 38.5q0 28 -34.5 38.5t-111.5 10.5h-49v21l124 182h71l-43 -150q90 -4 143 -40.5t53 -106.5q0 -158 -269 -158z" />
    <glyph glyph-name="uni0328" unicode="&#x328;" horiz-adv-x="0" 
d="M-118 -338q-99 0 -156.5 40.5t-57.5 115.5q0 55 32 96.5t82 65.5v60l218 -40h-23q-82 0 -123.5 -25.5t-41.5 -70.5q0 -78 128 -78q32 0 60 5v-154q-60 -15 -118 -15z" />
    <glyph glyph-name="uni032E" unicode="&#x32e;" horiz-adv-x="0" 
d="M-2 -323q-147 0 -224 79.5t-77 238.5h164q0 -170 139 -170t139 170h160q0 -159 -77 -238.5t-224 -79.5z" />
    <glyph glyph-name="uni0331" unicode="&#x331;" horiz-adv-x="0" 
d="M-307 -227v174h614v-174h-614z" />
    <glyph glyph-name="uni0374" unicode="&#x374;" horiz-adv-x="512" 
d="M123 973l72 563h215v-20l-134 -543h-153z" />
    <glyph glyph-name="uni0375" unicode="&#x375;" horiz-adv-x="512" 
d="M123 -76l72 563h215v-20l-134 -543h-153z" />
    <glyph glyph-name="uni037E" unicode="&#x37e;" horiz-adv-x="491" 
d="M123 737v246h246v-246h-246zM102 -133q84 0 117 28.5t33 104.5h-129v246h246v-213q0 -150 -62 -214.5t-205 -64.5v113z" />
    <glyph glyph-name="tonos" unicode="&#x384;" horiz-adv-x="1227" 
d="M492 1229l107 307h223l-148 -307h-182z" />
    <glyph glyph-name="dieresistonos" unicode="&#x385;" horiz-adv-x="1227" 
d="M520 1214l16 322h199l-41 -322h-174zM225 1257v236h195v-236h-195zM808 1257v236h194v-236h-194z" />
    <glyph glyph-name="Alphatonos" unicode="&#x386;" horiz-adv-x="1486" 
d="M476 484q160 81 319 81q111 0 216 -38l-256 717h-21l-274 -747zM68 0l544 1434h262l545 -1434h-225l-44 123q-50 140 -144.5 204t-268.5 64t-268 -64t-143 -204l-43 -123h-215zM77 1070l107 364h224l-149 -364h-182z" />
    <glyph glyph-name="anoteleia" unicode="&#x387;" horiz-adv-x="491" 
d="M123 614v246h246v-246h-246z" />
    <glyph glyph-name="Epsilontonos" unicode="&#x388;" horiz-adv-x="1359" 
d="M201 0v1434h996v-185h-794v-432h651v-182h-651v-451h794v-184h-996zM-232 1070l107 364h223l-148 -364h-182z" />
    <glyph glyph-name="Etatonos" unicode="&#x389;" horiz-adv-x="1536" 
d="M201 0v1434h205v-711h20q69 65 170.5 100t220.5 35q170 0 313 -72v648h205v-1434h-205v378q0 145 -94 228t-268 83t-268 -83t-94 -228v-378h-205zM-232 1070l107 364h223l-148 -364h-182z" />
    <glyph glyph-name="Iotatonos" unicode="&#x38a;" horiz-adv-x="606" 
d="M201 0v1434h205v-1434h-205zM-232 1070l107 364h223l-148 -364h-182z" />
    <glyph glyph-name="Omicrontonos" unicode="&#x38c;" horiz-adv-x="1609" 
d="M805 -25q-159 0 -288.5 56.5t-215 155.5t-132 235t-46.5 295q0 214 79.5 380.5t235.5 263.5t367 97t367 -97t235.5 -263.5t79.5 -380.5q0 -159 -46.5 -295t-132 -235t-215 -155.5t-288.5 -56.5zM805 164q225 0 349 146t124 407t-124 407t-349 146t-349 -146t-124 -407
t124 -407t349 -146zM-177 1070l107 364h224l-149 -364h-182z" />
    <glyph glyph-name="Upsilontonos" unicode="&#x38e;" horiz-adv-x="1306" 
d="M551 0v548l-502 886h225l376 -722h21l376 722h210l-501 -886v-548h-205zM-384 1070l108 364h223l-149 -364h-182z" />
    <glyph glyph-name="Omegatonos" unicode="&#x38f;" horiz-adv-x="1609" 
d="M123 0v184l364 -5v21q-68 23 -129 66.5t-115.5 111.5t-87 171.5t-32.5 228.5q0 143 46.5 267t132 216t215.5 144.5t288 52.5t288 -52.5t215.5 -144.5t132 -216t46.5 -267q0 -125 -32.5 -228.5t-87.5 -171.5t-116 -111.5t-129 -66.5v-21l365 5v-184h-569v195
q360 123 360 542q0 251 -124 392t-349 141t-349 -141t-124 -392q0 -419 360 -542v-195h-569zM-126 1126l108 308h223l-149 -308h-182z" />
    <glyph glyph-name="iotadieresistonos" unicode="&#x390;" horiz-adv-x="571" 
d="M377 -19q-215 0 -215 236v879h200v-858q0 -36 16 -52t52 -16q28 0 49 8v-174q-41 -23 -102 -23zM168 1214l15 322h200l-41 -322h-174zM-127 1257v236h195v-236h-195zM456 1257v236h194v-236h-194z" />
    <glyph glyph-name="Alpha" unicode="&#x391;" horiz-adv-x="1486" 
d="M476 484q160 81 319 81q111 0 216 -38l-256 717h-21l-274 -747zM68 0l544 1434h262l545 -1434h-225l-44 123q-50 140 -144.5 204t-268.5 64t-268 -64t-143 -204l-43 -123h-215z" />
    <glyph glyph-name="Beta" unicode="&#x392;" horiz-adv-x="1390" 
d="M805 184q287 0 287 230q0 110 -71.5 169.5t-215.5 59.5h-402v-459h402zM750 823q132 0 201 56.5t69 156.5q0 101 -70 157t-207 56h-340v-426h347zM201 0v1434h542q219 0 343 -91.5t124 -266.5q0 -238 -249 -322v-21q153 -28 241 -117.5t88 -241.5q0 -97 -35.5 -169.5
t-101 -117t-152 -66t-193.5 -21.5h-607z" />
    <glyph glyph-name="Gamma" unicode="&#x393;" horiz-adv-x="1211" 
d="M201 0v1434h896v-195h-691v-1239h-205z" />
    <glyph glyph-name="uni0394" unicode="&#x394;" horiz-adv-x="1599" 
d="M148 0v184l523 1250h262l518 -1250v-184h-1303zM339 145l16 -12q89 51 227 51h655l-424 1060h-20z" />
    <glyph glyph-name="Epsilon" unicode="&#x395;" horiz-adv-x="1359" 
d="M201 0v1434h996v-185h-794v-432h651v-182h-651v-451h794v-184h-996z" />
    <glyph glyph-name="Zeta" unicode="&#x396;" horiz-adv-x="1439" 
d="M153 0v164l868 1089l-852 -4v185h1100v-164l-869 -1091l895 5v-184h-1142z" />
    <glyph glyph-name="Eta" unicode="&#x397;" horiz-adv-x="1536" 
d="M201 0v1434h205v-711h20q69 65 170.5 100t220.5 35q170 0 313 -72v648h205v-1434h-205v378q0 145 -94 228t-268 83t-268 -83t-94 -228v-378h-205z" />
    <glyph glyph-name="Theta" unicode="&#x398;" horiz-adv-x="1609" 
d="M618 626v182h373v-182h-373zM805 -25q-159 0 -288.5 56.5t-215 155.5t-132 235t-46.5 295q0 214 79.5 380.5t235.5 263.5t367 97t367 -97t235.5 -263.5t79.5 -380.5q0 -159 -46.5 -295t-132 -235t-215 -155.5t-288.5 -56.5zM805 164q225 0 349 146t124 407t-124 407
t-349 146t-349 -146t-124 -407t124 -407t349 -146z" />
    <glyph glyph-name="Iota" unicode="&#x399;" horiz-adv-x="606" 
d="M201 0v1434h205v-1434h-205z" />
    <glyph glyph-name="Kappa" unicode="&#x39a;" horiz-adv-x="1423" 
d="M201 0v1434h205v-634h212l438 634h227l-477 -659v-20q164 -31 263.5 -147.5t147.5 -313.5q33 -132 59.5 -192t56.5 -82v-20q-58 -18 -107 -18q-92 0 -140 64t-74 218q-59 353 -394 353h-212v-617h-205z" />
    <glyph glyph-name="Lambda" unicode="&#x39b;" horiz-adv-x="1454" 
d="M864 1434l522 -1434h-223l-431 1239h-20l-431 -1239h-213l522 1434h274z" />
    <glyph glyph-name="Mu" unicode="&#x39c;" horiz-adv-x="1830" 
d="M201 0v1434h336l368 -1209h21l368 1209h336v-1434h-194v1229h-21l-372 -1229h-256l-371 1226h-21v-1226h-194z" />
    <glyph glyph-name="Nu" unicode="&#x39d;" horiz-adv-x="1548" 
d="M201 0v1434h315l617 -1229h20v1229h195v-1434h-316l-616 1229l-21 1v-1230h-194z" />
    <glyph glyph-name="Xi" unicode="&#x39e;" horiz-adv-x="1372" 
d="M163 0v184h1046v-184h-1046zM306 625v184h760v-184h-760zM163 1249v185h1046v-185h-1046z" />
    <glyph glyph-name="Omicron" unicode="&#x39f;" horiz-adv-x="1609" 
d="M805 -25q-159 0 -288.5 56.5t-215 155.5t-132 235t-46.5 295q0 214 79.5 380.5t235.5 263.5t367 97t367 -97t235.5 -263.5t79.5 -380.5q0 -159 -46.5 -295t-132 -235t-215 -155.5t-288.5 -56.5zM805 164q225 0 349 146t124 407t-124 407t-349 146t-349 -146t-124 -407
t124 -407t349 -146z" />
    <glyph glyph-name="Pi" unicode="&#x3a0;" horiz-adv-x="1515" 
d="M201 0v1434h1114v-1434h-205v1249h-704v-1249h-205z" />
    <glyph glyph-name="Rho" unicode="&#x3a1;" horiz-adv-x="1317" 
d="M201 0v1434h446q299 0 438.5 -130t139.5 -398q0 -259 -123.5 -394t-333.5 -135q-199 0 -342 100h-20v-477h-205zM406 633q134 -70 285 -70q158 0 243.5 89.5t85.5 253.5q0 343 -373 343h-241v-616z" />
    <glyph glyph-name="Sigma" unicode="&#x3a3;" horiz-adv-x="1423" 
d="M153 0l3 3v168l593 548v20l-580 524v168l-4 3h1100v-195l-807 5l485 -436v-154l-504 -465l838 6v-195h-1124z" />
    <glyph glyph-name="Tau" unicode="&#x3a4;" horiz-adv-x="1359" 
d="M578 0v1239h-478v195h1160v-195h-478v-1239h-204z" />
    <glyph glyph-name="Upsilon" unicode="&#x3a5;" horiz-adv-x="1306" 
d="M551 0v548l-502 886h225l376 -722h21l376 722h210l-501 -886v-548h-205z" />
    <glyph glyph-name="Phi" unicode="&#x3a6;" horiz-adv-x="1658" 
d="M727 0v143q-295 24 -455.5 177.5t-160.5 396.5t160 396t456 177v144h205v-144q296 -24 456 -177t160 -396t-160.5 -396.5t-455.5 -177.5v-143h-205zM317 717q0 -349 412 -387v774q-412 -38 -412 -387zM930 330q411 38 411 387t-411 387v-774z" />
    <glyph glyph-name="Chi" unicode="&#x3a7;" horiz-adv-x="1370" 
d="M81 0l450 713l-430 721h228l350 -600h20l347 600h223l-422 -707l442 -727h-227l-361 608h-20l-377 -608h-223z" />
    <glyph glyph-name="Psi" unicode="&#x3a8;" horiz-adv-x="1669" 
d="M738 0v228q-292 20 -434 165t-142 413v628h205v-628q0 -182 91 -278t288 -114l-5 1020h199l-5 -1020q198 18 289 114t91 278v628h192v-628q0 -266 -138.5 -410.5t-425.5 -166.5v-229h-205z" />
    <glyph glyph-name="uni03A9" unicode="&#x3a9;" horiz-adv-x="1609" 
d="M123 0v184l364 -5v21q-68 23 -129 66.5t-115.5 111.5t-87 171.5t-32.5 228.5q0 143 46.5 267t132 216t215.5 144.5t288 52.5t288 -52.5t215.5 -144.5t132 -216t46.5 -267q0 -125 -32.5 -228.5t-87.5 -171.5t-116 -111.5t-129 -66.5v-21l365 5v-184h-569v195
q360 123 360 542q0 251 -124 392t-349 141t-349 -141t-124 -392q0 -419 360 -542v-195h-569z" />
    <glyph glyph-name="Iotadieresis" unicode="&#x3aa;" horiz-adv-x="606" 
d="M201 0v1434h205v-1434h-205zM-1 1638v236h217v-236h-217zM390 1638v236h217v-236h-217z" />
    <glyph glyph-name="Upsilondieresis" unicode="&#x3ab;" horiz-adv-x="1306" 
d="M551 0v548l-502 886h225l376 -722h21l376 722h210l-501 -886v-548h-205zM349 1638v236h217v-236h-217zM740 1638v236h217v-236h-217z" />
    <glyph glyph-name="alphatonos" unicode="&#x3ac;" horiz-adv-x="1370" 
d="M617 164q174 0 259 128t85 350v153q-59 60 -148.5 98.5t-184.5 38.5q-141 0 -231 -99t-90 -285q0 -190 82.5 -287t227.5 -97zM561 -20q-198 0 -328.5 150t-130.5 418q0 269 132 418.5t337 149.5q246 0 393 -219h20q0 107 10 199h188v-21q-21 -79 -21 -184v-653
q0 -36 16 -52t52 -16q28 0 49 8v-174q-41 -23 -102 -23q-98 0 -156.5 56t-58.5 162h-21q-75 -108 -162.5 -163.5t-216.5 -55.5zM547 1229l107 307h224l-149 -307h-182z" />
    <glyph glyph-name="epsilontonos" unicode="&#x3ad;" horiz-adv-x="1092" 
d="M526 -20q-208 0 -319.5 82t-111.5 218q0 204 256 269v20q-112 32 -169 91t-57 167q0 135 101 212t296 77q104 0 185 -24.5t133.5 -70.5t85.5 -99.5t54 -122.5l-188 -54q-35 92 -97.5 139.5t-172.5 47.5q-102 0 -157.5 -39t-55.5 -108q0 -74 66.5 -109t207.5 -35h57v-164
h-57q-147 0 -222 -40t-75 -114q0 -73 63.5 -116t176.5 -43t178.5 47.5t101.5 138.5l191 -53q-100 -317 -471 -317zM429 1229l108 307h223l-149 -307h-182z" />
    <glyph glyph-name="etatonos" unicode="&#x3ae;" horiz-adv-x="1325" 
d="M963 657q0 271 -236 271q-171 0 -317 -133v-795h-201v858q0 36 -16 52t-52 16q-28 0 -49 -8v174q41 23 103 23q89 0 139.5 -53.5t54.5 -164.5h21q34 41 55 64.5t60 57.5t75 52t89 31.5t114 13.5q193 0 276.5 -126.5t83.5 -375.5v-1024h-200v1067zM581 1229l107 307h223
l-148 -307h-182z" />
    <glyph glyph-name="iotatonos" unicode="&#x3af;" horiz-adv-x="571" 
d="M377 -19q-215 0 -215 236v879h200v-858q0 -36 16 -52t52 -16q28 0 49 8v-174q-41 -23 -102 -23zM171 1229l108 307h223l-149 -307h-182z" />
    <glyph glyph-name="upsilondieresistonos" unicode="&#x3b0;" horiz-adv-x="1296" 
d="M659 -20q-497 0 -497 509v607h200v-627q0 -154 78 -229.5t219 -75.5q150 0 224.5 95t74.5 309q0 260 -63 528h201q61 -245 61 -507q0 -302 -119 -455.5t-379 -153.5zM541 1214l15 322h200l-41 -322h-174zM246 1257v236h194v-236h-194zM828 1257v236h195v-236h-195z" />
    <glyph glyph-name="alpha" unicode="&#x3b1;" horiz-adv-x="1370" 
d="M617 164q174 0 259 128t85 350v153q-59 60 -148.5 98.5t-184.5 38.5q-141 0 -231 -99t-90 -285q0 -190 82.5 -287t227.5 -97zM561 -20q-198 0 -328.5 150t-130.5 418q0 269 132 418.5t337 149.5q246 0 393 -219h20q0 107 10 199h188v-21q-21 -79 -21 -184v-653
q0 -36 16 -52t52 -16q28 0 49 8v-174q-41 -23 -102 -23q-98 0 -156.5 56t-58.5 162h-21q-75 -108 -162.5 -163.5t-216.5 -55.5z" />
    <glyph glyph-name="beta" unicode="&#x3b2;" horiz-adv-x="1268" 
d="M170 879q0 117 16 209t51.5 167.5t91.5 125.5t138 77t189 27q205 0 325.5 -100.5t120.5 -280.5q0 -129 -64.5 -216t-175.5 -118v-20q145 -35 229 -129t84 -245q0 -176 -114 -286t-307 -110q-264 0 -369 217h-20v-607h-195v1289zM365 637q0 -469 352 -469q257 0 257 238
q0 258 -308 258h-38v174h30q249 0 249 226q0 115 -63.5 175.5t-187.5 60.5q-151 0 -221 -96.5t-70 -315.5v-251z" />
    <glyph glyph-name="gamma" unicode="&#x3b3;" horiz-adv-x="1265" 
d="M551 -333v323l-327 876q-13 35 -34 49.5t-54 14.5q-30 0 -53 -8v174q49 20 105 20q79 0 132.5 -43t92.5 -153l257 -725h20q287 454 287 901h191q0 -273 -108 -546t-308 -560v-323h-201z" />
    <glyph glyph-name="delta" unicode="&#x3b4;" horiz-adv-x="1242" 
d="M622 -22q-121 0 -215.5 26t-153 68.5t-96 102.5t-52 122t-14.5 134q0 99 29.5 182.5t79 141.5t107.5 96.5t123 58.5v21q-107 53 -166 124.5t-59 181.5q0 324 527 324q174 0 314 -35l-21 -174q-153 30 -285 30q-173 0 -256 -42t-83 -113q0 -35 21 -65t57 -52t84.5 -44.5
t102.5 -42t111.5 -47t111.5 -57.5t102.5 -74.5t84.5 -97t57 -125.5t21 -160q0 -75 -15 -141.5t-52.5 -130.5t-96 -110t-153 -74t-215.5 -28zM292 477q0 -155 90.5 -234.5t235.5 -79.5q147 0 241 77t94 222q0 51 -12.5 95.5t-32.5 79t-54 67t-67 56t-82.5 49.5t-90 43.5
t-99.5 40.5q-223 -181 -223 -416z" />
    <glyph glyph-name="epsilon" unicode="&#x3b5;" horiz-adv-x="1092" 
d="M526 -20q-208 0 -319.5 82t-111.5 218q0 204 256 269v20q-112 32 -169 91t-57 167q0 135 101 212t296 77q104 0 185 -24.5t133.5 -70.5t85.5 -99.5t54 -122.5l-188 -54q-35 92 -97.5 139.5t-172.5 47.5q-102 0 -157.5 -39t-55.5 -108q0 -74 66.5 -109t207.5 -35h57v-164
h-57q-147 0 -222 -40t-75 -114q0 -73 63.5 -116t176.5 -43t178.5 47.5t101.5 138.5l191 -53q-100 -317 -471 -317z" />
    <glyph glyph-name="zeta" unicode="&#x3b6;" horiz-adv-x="1071" 
d="M781 -410q30 69 30 124q0 53 -24.5 94.5t-65.5 69.5t-94 52.5t-112 49t-117.5 52.5t-111.5 69.5t-94 94.5t-65.5 132.5t-24.5 178.5q0 110 31 209t83 179.5t135.5 160.5t173 144.5t211.5 140.5v21h-613v174h868v-164q-144 -80 -266 -174.5t-218 -202t-150 -228.5
t-54 -240q0 -79 24.5 -142t65.5 -104.5t94 -74.5t112 -58t117.5 -49.5t111.5 -54.5t94 -66.5t65.5 -92t24.5 -125.5q0 -87 -41 -170h-190z" />
    <glyph glyph-name="eta" unicode="&#x3b7;" horiz-adv-x="1325" 
d="M963 657q0 271 -236 271q-171 0 -317 -133v-795h-201v858q0 36 -16 52t-52 16q-28 0 -49 -8v174q41 23 103 23q89 0 139.5 -53.5t54.5 -164.5h21q34 41 55 64.5t60 57.5t75 52t89 31.5t114 13.5q193 0 276.5 -126.5t83.5 -375.5v-1024h-200v1067z" />
    <glyph glyph-name="theta" unicode="&#x3b8;" horiz-adv-x="1261" 
d="M631 -20q-260 0 -396.5 203t-136.5 585t136.5 585t396.5 203t396 -202.5t136 -585.5t-136 -585.5t-396 -202.5zM631 164q151 0 232.5 124t92.5 393h-651q11 -269 92.5 -393t233.5 -124zM305 855h651q-11 269 -93 393t-232 124t-232.5 -124t-93.5 -393z" />
    <glyph glyph-name="iota" unicode="&#x3b9;" horiz-adv-x="571" 
d="M377 -19q-215 0 -215 236v879h200v-858q0 -36 16 -52t52 -16q28 0 49 8v-174q-41 -23 -102 -23z" />
    <glyph glyph-name="kappa" unicode="&#x3ba;" horiz-adv-x="1242" 
d="M170 0v1096h201v-457h184l224 296q65 85 129.5 127.5t159.5 42.5q43 0 83 -9v-174q-27 3 -48 3q-55 0 -89 -21.5t-79 -81.5l-205 -264v-20l431 -538h-241l-365 457h-184v-457h-201z" />
    <glyph glyph-name="lambda" unicode="&#x3bb;" horiz-adv-x="1242" 
d="M1065 -20q-82 0 -135 42.5t-89 153.5l-243 746h-20l-305 -922h-201l357 1016q28 80 115 80l-45 133q-27 79 -67.5 113t-106.5 34q-51 0 -100 -18l-20 178q73 25 148 25q121 0 196.5 -62.5t119.5 -195.5l360 -1074q21 -63 88 -63q30 0 53 8v-174q-49 -20 -105 -20z" />
    <glyph glyph-name="uni03BC" unicode="&#x3bc;" horiz-adv-x="1333" 
d="M170 -410v1506h201v-658q0 -139 59 -204.5t176 -65.5q172 0 318 133v795h200v-858q0 -36 16 -52t52 -16q28 0 49 8v-174q-41 -23 -102 -23q-89 0 -140 54t-55 164h-20q-22 -35 -35 -54t-37 -49t-46.5 -47t-53.5 -35t-69 -26t-83 -8q-77 0 -130 28.5t-89 93.5h-21l11 -512
h-201z" />
    <glyph glyph-name="nu" unicode="&#x3bd;" horiz-adv-x="1205" 
d="M470 0l-385 1096h207l307 -922h21q296 478 296 922h192q0 -271 -102.5 -541.5t-292.5 -554.5h-243z" />
    <glyph glyph-name="xi" unicode="&#x3be;" horiz-adv-x="1052" 
d="M753 -410q29 53 29 99q0 54 -38 92t-98.5 60.5t-134 42.5t-147 48t-134 66.5t-98.5 107.5t-38 163q0 141 85.5 231.5t237.5 128.5v20q-130 42 -193 107.5t-63 164.5q0 66 25.5 123.5t67 100.5t102.5 81t122.5 64.5t136.5 50.5v21h-500v174h848v-174q-304 -88 -453 -189
t-149 -240q0 -95 78.5 -155.5t232.5 -60.5h194v-174h-201q-185 0 -277.5 -60.5t-92.5 -172.5q0 -56 23.5 -99t63.5 -70t91.5 -48t108.5 -37.5t114 -33.5t108.5 -40t91.5 -54t63.5 -79t23.5 -111q0 -74 -41 -148h-189z" />
    <glyph glyph-name="omicron" unicode="&#x3bf;" horiz-adv-x="1261" 
d="M631 -20q-127 0 -229 44.5t-168 122t-101 180t-35 221.5t35 221.5t101 180t168 122t229 44.5t229 -44.5t167.5 -122t100.5 -180t35 -221.5t-35 -221.5t-100.5 -180t-167.5 -122t-229 -44.5zM631 164q156 0 241.5 103t85.5 281t-86 281t-241 103t-241.5 -103.5
t-86.5 -280.5q0 -178 86 -281t242 -103z" />
    <glyph glyph-name="pi" unicode="&#x3c0;" horiz-adv-x="1525" 
d="M86 922v174h1300v-174h-235v-633q0 -119 119 -119q50 0 96 18v-174q-56 -33 -149 -33q-126 0 -196.5 71t-70.5 216v654h-440q14 -522 -6 -922h-201q21 438 12 922h-229z" />
    <glyph glyph-name="rho" unicode="&#x3c1;" horiz-adv-x="1329" 
d="M694 164q156 0 242 103t86 281q0 177 -86.5 280.5t-241.5 103.5t-241 -103t-86 -281t85.5 -281t241.5 -103zM162 527q0 150 44.5 265.5t121 184.5t172 104t205.5 35q111 0 205.5 -36.5t165.5 -106t111 -179t40 -246.5q0 -136 -36.5 -245.5t-100 -179t-146 -106.5
t-176.5 -37q-128 0 -226.5 65t-158.5 185h-21v-640h-200v937z" />
    <glyph glyph-name="uni03C2" unicode="&#x3c2;" horiz-adv-x="1213" 
d="M851 -410q35 65 35 125q0 55 -27 97t-72.5 70t-104.5 52t-124.5 48.5t-131 54t-124.5 73.5t-104.5 101t-72.5 143t-27 194q0 161 58.5 288t179 203.5t285.5 76.5q197 0 327.5 -103.5t178.5 -279.5l-188 -60q-32 124 -114 191.5t-204 67.5q-151 0 -234.5 -98t-83.5 -266
q0 -89 27 -158.5t72 -114.5t104 -79.5t124 -60t129.5 -49.5t123.5 -54t104 -68.5t72 -98.5t27 -137q0 -84 -32 -158h-203z" />
    <glyph glyph-name="sigma" unicode="&#x3c3;" horiz-adv-x="1329" 
d="M631 164q156 0 241.5 103t85.5 281t-86 281t-241 103t-241.5 -103.5t-86.5 -280.5q0 -178 86 -281t242 -103zM631 -20q-127 0 -229 44.5t-168 122t-101 180t-35 221.5q0 121 34.5 222t103 179.5t182.5 122.5t263 44q288 0 540 -20v-174q-180 20 -308 20v-20
q114 -47 180 -151.5t66 -253.5q0 -108 -35 -204t-99.5 -170.5t-166.5 -118.5t-227 -44z" />
    <glyph glyph-name="tau" unicode="&#x3c4;" horiz-adv-x="1205" 
d="M94 922v174h1000v-174h-415v-592q0 -82 40 -121t120 -39q72 0 137 18v-174q-70 -33 -191 -33q-145 0 -226 81.5t-81 246.5v613h-384z" />
    <glyph glyph-name="upsilon" unicode="&#x3c5;" horiz-adv-x="1296" 
d="M659 -20q-497 0 -497 509v607h200v-627q0 -154 78 -229.5t219 -75.5q150 0 224.5 95t74.5 309q0 260 -63 528h201q61 -245 61 -507q0 -302 -119 -455.5t-379 -153.5z" />
    <glyph glyph-name="phi" unicode="&#x3c6;" horiz-adv-x="1672" 
d="M738 548q0 104 13.5 188t44 154t77.5 117t116.5 73t159.5 26q197 0 309 -140t112 -418q0 -286 -153.5 -418t-483.5 -146v-394h-195v394q-330 14 -483 146t-153 418q0 292 131 429t357 119v-191q-129 16 -206 -69t-77 -278q0 -199 97.5 -290t333.5 -104v384zM933 164
q236 13 334 104t98 290q0 186 -58.5 275t-157.5 89q-100 0 -158 -90.5t-58 -283.5v-384z" />
    <glyph glyph-name="chi" unicode="&#x3c7;" horiz-adv-x="1160" 
d="M980 -430q-77 0 -122.5 40t-86.5 147l-185 488h-21l-281 -655h-209l350 755l-211 521q-13 34 -33.5 49t-52.5 15q-30 0 -53 -8v174q49 20 105 20q78 0 123.5 -40t85.5 -147l178 -479h21l257 646h209l-327 -744l219 -532q14 -35 34 -49.5t52 -14.5q30 0 53 8v-174
q-49 -20 -105 -20z" />
    <glyph glyph-name="psi" unicode="&#x3c8;" horiz-adv-x="1542" 
d="M681 -410v396q-272 23 -395.5 169t-123.5 403v538h200v-558q0 -326 319 -370v1368h195v-1369q167 22 247.5 134t80.5 336q0 226 -63 459h200q62 -218 62 -439q0 -313 -124.5 -480.5t-402.5 -190.5v-396h-195z" />
    <glyph glyph-name="omega" unicode="&#x3c9;" horiz-adv-x="1710" 
d="M507 -23q-89 0 -160 30t-127 93.5t-87 174.5t-31 263q0 307 135 441.5t372 116.5v-191q-146 16 -224 -66t-78 -291q0 -199 62.5 -289.5t168.5 -90.5q101 0 160.5 76.5t59.5 222.5v250h194v-250q0 -146 59.5 -222.5t160.5 -76.5q106 0 168.5 90.5t62.5 289.5
q0 209 -78 291t-224 66v191q237 18 372 -116.5t135 -441.5q0 -152 -31 -263t-87 -174.5t-127 -93.5t-160 -30q-266 0 -338 269h-20q-72 -269 -338 -269z" />
    <glyph glyph-name="iotadieresis" unicode="&#x3ca;" horiz-adv-x="571" 
d="M377 -19q-215 0 -215 236v879h200v-858q0 -36 16 -52t52 -16q28 0 49 8v-174q-41 -23 -102 -23zM-42 1300v236h217v-236h-217zM349 1300v236h217v-236h-217z" />
    <glyph glyph-name="upsilondieresis" unicode="&#x3cb;" horiz-adv-x="1296" 
d="M659 -20q-497 0 -497 509v607h200v-627q0 -154 78 -229.5t219 -75.5q150 0 224.5 95t74.5 309q0 260 -63 528h201q61 -245 61 -507q0 -302 -119 -455.5t-379 -153.5zM331 1300v236h217v-236h-217zM722 1300v236h217v-236h-217z" />
    <glyph glyph-name="omicrontonos" unicode="&#x3cc;" horiz-adv-x="1261" 
d="M631 -20q-127 0 -229 44.5t-168 122t-101 180t-35 221.5t35 221.5t101 180t168 122t229 44.5t229 -44.5t167.5 -122t100.5 -180t35 -221.5t-35 -221.5t-100.5 -180t-167.5 -122t-229 -44.5zM631 164q156 0 241.5 103t85.5 281t-86 281t-241 103t-241.5 -103.5
t-86.5 -280.5q0 -178 86 -281t242 -103zM540 1229l107 307h223l-148 -307h-182z" />
    <glyph glyph-name="upsilontonos" unicode="&#x3cd;" horiz-adv-x="1296" 
d="M659 -20q-497 0 -497 509v607h200v-627q0 -154 78 -229.5t219 -75.5q150 0 224.5 95t74.5 309q0 260 -63 528h201q61 -245 61 -507q0 -302 -119 -455.5t-379 -153.5zM544 1229l107 307h223l-148 -307h-182z" />
    <glyph glyph-name="omegatonos" unicode="&#x3ce;" horiz-adv-x="1710" 
d="M507 -23q-89 0 -160 30t-127 93.5t-87 174.5t-31 263q0 307 135 441.5t372 116.5v-191q-146 16 -224 -66t-78 -291q0 -199 62.5 -289.5t168.5 -90.5q101 0 160.5 76.5t59.5 222.5v250h194v-250q0 -146 59.5 -222.5t160.5 -76.5q106 0 168.5 90.5t62.5 289.5
q0 209 -78 291t-224 66v191q237 18 372 -116.5t135 -441.5q0 -152 -31 -263t-87 -174.5t-127 -93.5t-160 -30q-266 0 -338 269h-20q-72 -269 -338 -269zM764 1229l107 307h224l-149 -307h-182z" />
    <glyph glyph-name="uni0400" unicode="&#x400;" horiz-adv-x="1359" 
d="M201 0v1434h996v-185h-794v-432h651v-182h-651v-451h794v-184h-996zM625 1567l-242 307h233l203 -307h-194z" />
    <glyph glyph-name="uni0401" unicode="&#x401;" horiz-adv-x="1359" 
d="M201 0v1434h996v-185h-794v-432h651v-182h-651v-451h794v-184h-996zM417 1638v236h217v-236h-217zM808 1638v236h217v-236h-217z" />
    <glyph glyph-name="uni0402" unicode="&#x402;" horiz-adv-x="1744" 
d="M100 1239v195h1299v-193h-635v-516h20q39 37 74.5 64t86 55t115 42.5t138.5 14.5q108 0 186.5 -33.5t125 -96t68 -143t21.5 -182.5q0 -223 -103.5 -339t-325.5 -116q-55 0 -112 9v184q40 -5 80 -5q134 0 197.5 67t63.5 200q0 134 -70.5 200.5t-200.5 66.5
q-98 0 -192.5 -35t-171.5 -96v-582h-205v1239h-459z" />
    <glyph glyph-name="uni0403" unicode="&#x403;" horiz-adv-x="1211" 
d="M201 0v1434h896v-195h-691v-1239h-205zM567 1567l203 307h234l-242 -307h-195z" />
    <glyph glyph-name="uni0404" unicode="&#x404;" horiz-adv-x="1547" 
d="M805 -25q-159 0 -288.5 56.5t-215 155.5t-132 235t-46.5 295q0 214 79.5 380.5t235.5 263.5t367 97q229 0 391 -113t234 -309l-192 -60q-52 142 -162 218t-271 76q-200 0 -321 -117t-146 -329h544v-182h-547q18 -227 139.5 -352.5t330.5 -125.5q161 0 271 76t162 218
l192 -61q-72 -196 -234 -309t-391 -113z" />
    <glyph glyph-name="uni0405" unicode="&#x405;" horiz-adv-x="1297" 
d="M687 -25q-123 0 -225.5 33.5t-171.5 90.5t-114 126.5t-65 148.5l190 55q40 -132 140 -201.5t257 -69.5q146 0 219 51t73 142q0 57 -28 101.5t-75.5 74t-109 54t-129.5 46.5t-135.5 46t-129 57t-109 75t-75.5 105.5t-28 142.5q0 81 28 151.5t84.5 128.5t153 91.5
t221.5 33.5q113 0 203.5 -30.5t152.5 -85.5t103 -122t65 -149l-187 -55q-99 258 -347 258q-129 0 -200.5 -60t-71.5 -144q0 -52 28 -93.5t76 -71t109.5 -55t130 -49t136.5 -49t129.5 -60.5t109.5 -77.5t76 -105t28 -139.5q0 -175 -136 -285t-376 -110z" />
    <glyph glyph-name="uni0406" unicode="&#x406;" horiz-adv-x="606" 
d="M201 0v1434h205v-1434h-205z" />
    <glyph glyph-name="uni0407" unicode="&#x407;" horiz-adv-x="606" 
d="M201 0v1434h205v-1434h-205zM-1 1638v236h217v-236h-217zM390 1638v236h217v-236h-217z" />
    <glyph glyph-name="uni0408" unicode="&#x408;" horiz-adv-x="1303" 
d="M612 -26q-229 0 -370 137t-168 388l184 49q28 -189 117.5 -286.5t236.5 -97.5q144 0 221 97t77 287v886h205v-886q0 -283 -127.5 -428.5t-375.5 -145.5z" />
    <glyph glyph-name="uni0409" unicode="&#x409;" horiz-adv-x="2414" 
d="M1225 0v1249h-659l-34 -906q-7 -193 -70 -272.5t-213 -79.5q-61 0 -119 9v184q42 -3 74 -3q67 0 92.5 33.5t29.5 128.5l40 1091h1064v-574h422q216 0 339 -109.5t123 -320.5t-123 -320.5t-339 -109.5h-627zM1832 184q287 0 287 246q0 118 -71.5 182t-215.5 64h-402v-492
h402z" />
    <glyph glyph-name="uni040A" unicode="&#x40a;" horiz-adv-x="2320" 
d="M201 0v1434h205v-718h20q75 70 167.5 106t233.5 36h303v576h205v-574h423q216 0 339 -109.5t123 -320.5t-123 -320.5t-339 -109.5h-628v676h-352q-182 0 -277 -80t-95 -225v-371h-205zM1738 184q286 0 286 246q0 118 -71 182t-215 64h-403v-492h403z" />
    <glyph glyph-name="uni040B" unicode="&#x40b;" horiz-adv-x="1761" 
d="M100 1239v195h1299v-193h-635v-516h20q39 37 74.5 64t86 55t115 42.5t138.5 14.5q213 0 307 -130t94 -382v-389h-200v432q0 281 -271 281q-98 0 -192.5 -35t-171.5 -96v-582h-205v1239h-459z" />
    <glyph glyph-name="uni040C" unicode="&#x40c;" horiz-adv-x="1387" 
d="M201 0v1434h205v-626h208l307 465q56 83 125 126.5t167 43.5q43 0 83 -9v-185q-27 3 -48 3q-64 0 -105 -27t-87 -97l-262 -401v-20l513 -707h-246l-447 626h-208v-626h-205zM611 1567l203 307h234l-242 -307h-195z" />
    <glyph glyph-name="uni040D" unicode="&#x40d;" horiz-adv-x="1548" 
d="M201 0v1434h194v-1229h21l616 1229h316v-1434h-195v1230l-20 -1l-617 -1229h-315zM670 1567l-242 307h234l202 -307h-194z" />
    <glyph glyph-name="uni040E" unicode="&#x40e;" horiz-adv-x="1211" 
d="M362 -25q-95 0 -168 43t-112 117l137 110q50 -89 143 -89q119 0 176 166l28 84q-45 0 -74 16t-47 63l-363 949h217l315 -854h21l315 854h212l-413 -1092q-35 -92 -68.5 -154t-79 -113t-104.5 -75.5t-135 -24.5zM604 1556q-147 0 -224 79.5t-77 238.5h164q0 -170 139 -170
t139 170h160q0 -159 -77 -238.5t-224 -79.5z" />
    <glyph glyph-name="uni040F" unicode="&#x40f;" horiz-adv-x="1515" 
d="M668 -246v246h-467v1434h205v-1250h704v1250h205v-1434h-443v-246h-204z" />
    <glyph glyph-name="uni0410" unicode="&#x410;" horiz-adv-x="1486" 
d="M476 484q160 81 319 81q111 0 216 -38l-256 717h-21l-274 -747zM68 0l544 1434h262l545 -1434h-225l-44 123q-50 140 -144.5 204t-268.5 64t-268 -64t-143 -204l-43 -123h-215z" />
    <glyph glyph-name="uni0411" unicode="&#x411;" horiz-adv-x="1390" 
d="M808 184q287 0 287 239q0 115 -71.5 177t-215.5 62h-405v-478h405zM201 0v1434h894v-185h-692v-403h425q215 0 338.5 -108t123.5 -315t-123.5 -315t-338.5 -108h-627z" />
    <glyph glyph-name="uni0412" unicode="&#x412;" horiz-adv-x="1390" 
d="M805 184q287 0 287 230q0 110 -71.5 169.5t-215.5 59.5h-402v-459h402zM750 823q132 0 201 56.5t69 156.5q0 101 -70 157t-207 56h-340v-426h347zM201 0v1434h542q219 0 343 -91.5t124 -266.5q0 -238 -249 -322v-21q153 -28 241 -117.5t88 -241.5q0 -97 -35.5 -169.5
t-101 -117t-152 -66t-193.5 -21.5h-607z" />
    <glyph glyph-name="uni0413" unicode="&#x413;" horiz-adv-x="1211" 
d="M201 0v1434h896v-195h-691v-1239h-205z" />
    <glyph glyph-name="uni0414" unicode="&#x414;" horiz-adv-x="1613" 
d="M55 -246v430h98q76 0 100.5 30t27.5 119l41 1101h1036v-1250h194v-430h-204v246h-1088v-246h-205zM370 176h783v1073h-631l-32 -826q-4 -105 -30.5 -153t-89.5 -73v-21z" />
    <glyph glyph-name="uni0415" unicode="&#x415;" horiz-adv-x="1359" 
d="M201 0v1434h996v-185h-794v-432h651v-182h-651v-451h794v-184h-996z" />
    <glyph glyph-name="uni0416" unicode="&#x416;" horiz-adv-x="2084" 
d="M941 0v626h-188l-426 -626h-246l492 707v20l-241 401q-42 70 -85 97t-108 27q-21 0 -48 -3v185q40 9 83 9q188 0 293 -170l286 -465h188v626h203v-626h188l286 465q105 170 293 170q43 0 83 -9v-185q-27 3 -48 3q-65 0 -108 -27t-85 -97l-242 -401v-20l493 -707h-246
l-426 626h-188v-626h-203z" />
    <glyph glyph-name="uni0417" unicode="&#x417;" horiz-adv-x="1277" 
d="M671 -23q-441 0 -559 388l190 55q46 -127 133 -193.5t236 -66.5q146 0 229.5 64.5t83.5 172.5q0 117 -98 181.5t-289 64.5h-75v180h75q184 0 270 57t86 175q0 105 -72.5 163.5t-204.5 58.5q-145 0 -227.5 -66t-127.5 -194l-187 55q20 66 47.5 120.5t72 105.5t101.5 85.5
t139 55t182 20.5q228 0 347 -100.5t119 -275.5q0 -140 -74 -219t-217 -121v-20q332 -83 332 -354q0 -178 -132.5 -285t-379.5 -107z" />
    <glyph glyph-name="uni0418" unicode="&#x418;" horiz-adv-x="1548" 
d="M201 0v1434h194v-1229h21l616 1229h316v-1434h-195v1230l-20 -1l-617 -1229h-315z" />
    <glyph glyph-name="uni0419" unicode="&#x419;" horiz-adv-x="1548" 
d="M201 0v1434h194v-1229h21l616 1229h316v-1434h-195v1230l-20 -1l-617 -1229h-315zM764 1556q-147 0 -224 79.5t-77 238.5h164q0 -170 139 -170t139 170h160q0 -159 -77 -238.5t-224 -79.5z" />
    <glyph glyph-name="uni041A" unicode="&#x41a;" horiz-adv-x="1387" 
d="M201 0v1434h205v-626h208l307 465q56 83 125 126.5t167 43.5q43 0 83 -9v-185q-27 3 -48 3q-64 0 -105 -27t-87 -97l-262 -401v-20l513 -707h-246l-447 626h-208v-626h-205z" />
    <glyph glyph-name="uni041B" unicode="&#x41b;" horiz-adv-x="1630" 
d="M1225 0v1249h-659l-34 -906q-7 -193 -70 -272.5t-213 -79.5q-61 0 -119 9v184q42 -3 74 -3q67 0 92.5 33.5t29.5 128.5l40 1091h1064v-1434h-205z" />
    <glyph glyph-name="uni041C" unicode="&#x41c;" horiz-adv-x="1830" 
d="M201 0v1434h336l368 -1209h21l368 1209h336v-1434h-194v1229h-21l-372 -1229h-256l-371 1226h-21v-1226h-194z" />
    <glyph glyph-name="uni041D" unicode="&#x41d;" horiz-adv-x="1536" 
d="M201 0v1434h205v-711h20q69 65 170.5 100t220.5 35q170 0 313 -72v648h205v-1434h-205v378q0 145 -94 228t-268 83t-268 -83t-94 -228v-378h-205z" />
    <glyph glyph-name="uni041E" unicode="&#x41e;" horiz-adv-x="1609" 
d="M805 -25q-159 0 -288.5 56.5t-215 155.5t-132 235t-46.5 295q0 214 79.5 380.5t235.5 263.5t367 97t367 -97t235.5 -263.5t79.5 -380.5q0 -159 -46.5 -295t-132 -235t-215 -155.5t-288.5 -56.5zM805 164q225 0 349 146t124 407t-124 407t-349 146t-349 -146t-124 -407
t124 -407t349 -146z" />
    <glyph glyph-name="uni041F" unicode="&#x41f;" horiz-adv-x="1515" 
d="M201 0v1434h1114v-1434h-205v1249h-704v-1249h-205z" />
    <glyph glyph-name="uni0420" unicode="&#x420;" horiz-adv-x="1317" 
d="M201 0v1434h446q299 0 438.5 -130t139.5 -398q0 -259 -123.5 -394t-333.5 -135q-199 0 -342 100h-20v-477h-205zM406 633q134 -70 285 -70q158 0 243.5 89.5t85.5 253.5q0 343 -373 343h-241v-616z" />
    <glyph glyph-name="uni0421" unicode="&#x421;" horiz-adv-x="1547" 
d="M805 -25q-159 0 -288.5 56.5t-215 155.5t-132 235t-46.5 295q0 214 79.5 380.5t235.5 263.5t367 97q229 0 391 -113t234 -309l-192 -60q-52 142 -162 218t-271 76q-225 0 -349 -146t-124 -407t124 -407t349 -146q161 0 271 76t162 218l192 -61q-72 -196 -234 -309
t-391 -113z" />
    <glyph glyph-name="uni0422" unicode="&#x422;" horiz-adv-x="1359" 
d="M578 0v1239h-478v195h1160v-195h-478v-1239h-204z" />
    <glyph glyph-name="uni0423" unicode="&#x423;" horiz-adv-x="1211" 
d="M362 -25q-95 0 -168 43t-112 117l137 110q50 -89 143 -89q119 0 176 166l28 84q-45 0 -74 16t-47 63l-363 949h217l315 -854h21l315 854h212l-413 -1092q-35 -92 -68.5 -154t-79 -113t-104.5 -75.5t-135 -24.5z" />
    <glyph glyph-name="uni0424" unicode="&#x424;" horiz-adv-x="1658" 
d="M727 0v143q-295 24 -455.5 177.5t-160.5 396.5t160 396t456 177v144h205v-144q296 -24 456 -177t160 -396t-160.5 -396.5t-455.5 -177.5v-143h-205zM317 717q0 -349 412 -387v774q-412 -38 -412 -387zM930 330q411 38 411 387t-411 387v-774z" />
    <glyph glyph-name="uni0425" unicode="&#x425;" horiz-adv-x="1370" 
d="M81 0l450 713l-430 721h228l350 -600h20l347 600h223l-422 -707l442 -727h-227l-361 608h-20l-377 -608h-223z" />
    <glyph glyph-name="uni0426" unicode="&#x426;" horiz-adv-x="1570" 
d="M1305 -246v246h-1104v1434h205v-1250h704v1250h205v-1250h194v-430h-204z" />
    <glyph glyph-name="uni0427" unicode="&#x427;" horiz-adv-x="1402" 
d="M997 0v606h-20q-39 -37 -74.5 -64t-86 -55t-115 -42.5t-138.5 -14.5q-213 0 -307 130t-94 382v492h200v-535q0 -281 271 -281q196 0 364 132v684h205v-1434h-205z" />
    <glyph glyph-name="uni0428" unicode="&#x428;" horiz-adv-x="2342" 
d="M201 0v1434h205v-1239h663v1239h205v-1239h663v1239h205v-1434h-1941z" />
    <glyph glyph-name="uni0429" unicode="&#x429;" horiz-adv-x="2398" 
d="M2132 -246v246h-1931v1434h205v-1239h663v1239h205v-1239h663v1239h205v-1250h195v-430h-205z" />
    <glyph glyph-name="uni042A" unicode="&#x42a;" horiz-adv-x="1746" 
d="M100 1239v195h662v-574h423q216 0 339 -109.5t123 -320.5t-123 -320.5t-339 -109.5h-628v1239h-457zM1164 184q287 0 287 246q0 118 -71.5 182t-215.5 64h-402v-492h402z" />
    <glyph glyph-name="uni042B" unicode="&#x42b;" horiz-adv-x="1996" 
d="M808 184q287 0 287 246q0 118 -71.5 182t-215.5 64h-402v-492h402zM201 0v1434h205v-574h422q216 0 339 -109.5t123 -320.5t-123 -320.5t-339 -109.5h-627zM1591 0v1434h205v-1434h-205z" />
    <glyph glyph-name="uni042C" unicode="&#x42c;" horiz-adv-x="1390" 
d="M808 184q287 0 287 246q0 118 -71.5 182t-215.5 64h-402v-492h402zM201 0v1434h205v-574h422q216 0 339 -109.5t123 -320.5t-123 -320.5t-339 -109.5h-627z" />
    <glyph glyph-name="uni042D" unicode="&#x42d;" horiz-adv-x="1547" 
d="M742 1458q159 0 288.5 -56t215 -155.5t132 -235t46.5 -294.5q0 -214 -79.5 -380.5t-235.5 -264t-367 -97.5q-229 0 -390.5 113t-233.5 309l191 61q52 -142 162 -218t271 -76q200 0 321 116.5t146 328.5h-543v183h546q-18 227 -139.5 352.5t-330.5 125.5q-161 0 -271 -76
t-162 -218l-191 60q72 196 233.5 309t390.5 113z" />
    <glyph glyph-name="uni042E" unicode="&#x42e;" horiz-adv-x="2138" 
d="M1333 -25q-147 0 -269.5 48.5t-207.5 135t-136.5 205.5t-64.5 261h-249v-625h-205v1434h205v-625h249q13 142 64.5 261t136.5 205.5t207.5 134.5t269.5 48q211 0 367 -97t235.5 -263.5t79.5 -380.5q0 -159 -46.5 -295t-132 -235t-215 -155.5t-288.5 -56.5zM1333 164
q225 0 349 146t124 407t-124 407t-349 146t-349 -146t-124 -407t124 -407t349 -146z" />
    <glyph glyph-name="uni042F" unicode="&#x42f;" horiz-adv-x="1463" 
d="M1058 0v541h-355l-365 -541h-248l399 573v21q-287 75 -287 394q0 203 113.5 324.5t340.5 121.5h607v-1434h-205zM407 985q0 -135 78 -198.5t210 -63.5h363v526h-363q-132 0 -210 -64t-78 -200z" />
    <glyph glyph-name="uni0430" unicode="&#x430;" horiz-adv-x="1211" 
d="M520 148q89 0 165 33t164 109v268h-21q-93 -44 -216 -61q-158 -22 -221 -69t-63 -133q0 -69 41.5 -108t150.5 -39zM457 -20q-157 0 -243.5 80.5t-86.5 219.5q0 140 94 230t274 117l74 11q165 25 222.5 57t57.5 101q0 139 -208 139q-86 0 -148 -25t-94 -59.5t-57 -86.5
l-175 76q22 44 47 80t65.5 74t89.5 63.5t119 42t153 16.5q218 0 312.5 -101t94.5 -307v-502q0 -120 10 -186v-20h-172q-10 86 -10 199h-21q-61 -100 -164.5 -159.5t-233.5 -59.5z" />
    <glyph glyph-name="uni0431" unicode="&#x431;" horiz-adv-x="1266" 
d="M631 164q151 0 242 94.5t91 279.5q0 184 -90 278.5t-238 94.5t-238 -94.5t-90 -278.5q0 -186 86.5 -280t236.5 -94zM658 -20q-90 0 -169 21t-151 72t-123 128.5t-81.5 197t-30.5 270.5q0 752 596 788q90 5 137.5 16t61.5 25t14 38h201q0 -129 -83.5 -186.5t-286.5 -66.5
q-201 -9 -301 -100.5t-134 -285.5h21q61 89 155.5 138.5t214.5 49.5q98 0 182.5 -35.5t148.5 -102.5t101 -172.5t37 -236.5q0 -135 -39 -242t-108 -175.5t-161.5 -104.5t-201.5 -36z" />
    <glyph glyph-name="uni0432" unicode="&#x432;" horiz-adv-x="1232" 
d="M742 174q205 0 205 152q0 151 -205 151h-373v-303h373zM714 641q94 0 141 38t47 102t-47.5 102.5t-146.5 38.5h-339v-281h345zM170 0v1096h538q180 0 279 -70.5t99 -205.5q0 -179 -191 -240v-21q120 -28 181.5 -91.5t61.5 -180.5q0 -287 -396 -287h-572z" />
    <glyph glyph-name="uni0433" unicode="&#x433;" horiz-adv-x="1053" 
d="M170 0v1096h789v-174h-588v-922h-201z" />
    <glyph glyph-name="uni0434" unicode="&#x434;" horiz-adv-x="1466" 
d="M51 -246v430h93q75 0 99 29.5t29 119.5l41 763h906v-912h190v-430h-201v246h-956v-246h-201zM357 176h661v735h-511l-29 -488q-6 -106 -32.5 -153.5t-88.5 -72.5v-21z" />
    <glyph glyph-name="uni0435" unicode="&#x435;" 
d="M631 -20q-126 0 -228 45t-168 122.5t-101.5 180.5t-35.5 220q0 158 60 285t182.5 205t290.5 78q125 0 221 -42.5t156 -118t90 -175.5t30 -221v-65h-830q8 -153 95.5 -241.5t240.5 -88.5q205 0 299 145l167 -73q-67 -117 -184.5 -186.5t-284.5 -69.5zM301 653h615
q-15 279 -285 279q-143 0 -228 -74.5t-102 -204.5z" />
    <glyph glyph-name="uni0436" unicode="&#x436;" horiz-adv-x="1859" 
d="M830 0v457h-163l-344 -457h-242l411 538v20l-191 264q-43 60 -75.5 81.5t-86.5 21.5q-21 0 -48 -3v174q40 9 83 9q97 0 164 -43t125 -127l204 -296h163v457h199v-457h164l204 296q58 84 125 127t164 43q42 0 82 -9v-174q-27 3 -48 3q-54 0 -86 -21.5t-75 -81.5l-191 -264
v-20l411 -538h-242l-344 457h-164v-457h-199z" />
    <glyph glyph-name="uni0437" unicode="&#x437;" horiz-adv-x="1092" 
d="M566 -20q-371 0 -471 317l192 53q36 -91 101 -138.5t178 -47.5t177 43t64 116q0 74 -75 114t-222 40h-57v164h57q141 0 207 35t66 109q0 69 -55.5 108t-157.5 39q-110 0 -172 -47.5t-97 -139.5l-188 54q21 69 54 122.5t85.5 99.5t133 70.5t184.5 24.5q195 0 296.5 -77
t101.5 -212q0 -108 -57.5 -167t-169.5 -91v-20q256 -65 256 -269q0 -136 -111.5 -218t-319.5 -82z" />
    <glyph glyph-name="uni0438" unicode="&#x438;" horiz-adv-x="1334" 
d="M170 0v1096h190v-901h21l493 901h290v-1096h-190v902l-21 -1l-493 -901h-290z" />
    <glyph glyph-name="uni0439" unicode="&#x439;" horiz-adv-x="1334" 
d="M170 0v1096h190v-901h21l493 901h290v-1096h-190v902l-21 -1l-493 -901h-290zM674 1219q-147 0 -224 79t-77 238h164q0 -170 139 -170t139 170h160q0 -159 -77 -238t-224 -79z" />
    <glyph glyph-name="uni043A" unicode="&#x43a;" horiz-adv-x="1242" 
d="M170 0v1096h201v-457h184l224 296q65 85 129.5 127.5t159.5 42.5q43 0 83 -9v-174q-27 3 -48 3q-55 0 -89 -21.5t-79 -81.5l-205 -264v-20l431 -538h-241l-365 457h-184v-457h-201z" />
    <glyph glyph-name="uni043B" unicode="&#x43b;" horiz-adv-x="1394" 
d="M1020 0v911h-513l-31 -568q-11 -194 -72.5 -273t-210.5 -79q-61 0 -119 9v184q42 -3 73 -3q66 0 91.5 33.5t30.5 128.5l40 753h916v-1096h-205z" />
    <glyph glyph-name="uni043C" unicode="&#x43c;" horiz-adv-x="1608" 
d="M170 0v1096h344l278 -922h15l277 922h355v-1096h-201v924h-20l-280 -924h-278l-279 922h-21v-922h-190z" />
    <glyph glyph-name="uni043D" unicode="&#x43d;" horiz-adv-x="1335" 
d="M170 0v1096h201v-514h20q104 125 326 125q150 0 248 -62v451h200v-1096h-200v252q0 137 -75 214t-222 77t-222 -77t-75 -214v-252h-201z" />
    <glyph glyph-name="uni043E" unicode="&#x43e;" horiz-adv-x="1261" 
d="M631 -20q-127 0 -229 44.5t-168 122t-101 180t-35 221.5t35 221.5t101 180t168 122t229 44.5t229 -44.5t167.5 -122t100.5 -180t35 -221.5t-35 -221.5t-100.5 -180t-167.5 -122t-229 -44.5zM631 164q156 0 241.5 103t85.5 281t-86 281t-241 103t-241.5 -103.5
t-86.5 -280.5q0 -178 86 -281t242 -103z" />
    <glyph glyph-name="uni043F" unicode="&#x43f;" horiz-adv-x="1294" 
d="M170 0v1096h954v-1096h-200v922h-553v-922h-201z" />
    <glyph glyph-name="uni0440" unicode="&#x440;" horiz-adv-x="1331" 
d="M714 164q145 0 227.5 97t82.5 287q0 186 -90 285t-231 99q-95 0 -184 -38.5t-148 -98.5v-156q0 -221 84.5 -348t258.5 -127zM170 891q0 108 -20 184v21h187q10 -92 10 -199h21q147 219 392 219q205 0 337 -149.5t132 -418.5q0 -268 -130.5 -418t-328.5 -150
q-247 0 -379 219h-20v-609h-201v1301z" />
    <glyph glyph-name="uni0441" unicode="&#x441;" 
d="M631 -20q-127 0 -229 44.5t-168 122t-101 180t-35 221.5t35 221.5t101 180t168 122t229 44.5q192 0 320 -96t176 -256l-188 -61q-31 107 -110.5 168t-197.5 61q-155 0 -241.5 -103.5t-86.5 -280.5q0 -178 86 -281t242 -103q119 0 198 60t110 167l188 -59
q-48 -160 -176 -256t-320 -96z" />
    <glyph glyph-name="uni0442" unicode="&#x442;" horiz-adv-x="1187" 
d="M494 0v922h-400v174h1000v-174h-400v-922h-200z" />
    <glyph glyph-name="uni0443" unicode="&#x443;" horiz-adv-x="1213" 
d="M347 -430q-93 0 -164.5 40.5t-110.5 110.5l137 104q50 -81 138 -81q58 0 101 40.5t74 131.5l29 84q-43 0 -67.5 16t-41.5 64l-357 1016h207l307 -922h21l307 922h201l-430 -1221q-108 -305 -351 -305z" />
    <glyph glyph-name="uni0444" unicode="&#x444;" horiz-adv-x="2121" 
d="M628 166q95 0 184.5 44.5t148.5 113.5v135q0 221 -85 348t-259 127q-145 0 -227.5 -97t-82.5 -287q0 -186 90 -285t231 -99zM1504 164q145 0 228 97.5t83 286.5q0 186 -90 285t-231 99q-95 0 -184.5 -44.5t-148.5 -113.5v-135q0 -221 84.5 -348t258.5 -127zM961 -410v611
h-21q-138 -219 -369 -219q-205 0 -337 149.5t-132 418.5q0 268 130.5 418t328.5 150q247 0 379 -219h21v637h200v-639h21q138 219 368 219q205 0 337 -149.5t132 -418.5q0 -268 -130 -418t-328 -150q-247 0 -379 219h-21v-609h-200z" />
    <glyph glyph-name="uni0445" unicode="&#x445;" horiz-adv-x="1177" 
d="M81 0l359 545l-343 551h217l270 -442h20l263 442h213l-334 -539l351 -557h-217l-278 450h-20l-288 -450h-213z" />
    <glyph glyph-name="uni0446" unicode="&#x446;" horiz-adv-x="1372" 
d="M1114 -246v246h-944v1096h201v-922h553v922h200v-922h191v-420h-201z" />
    <glyph glyph-name="uni0447" unicode="&#x447;" horiz-adv-x="1269" 
d="M899 0v494h-20q-32 -35 -52 -55t-57.5 -48.5t-72.5 -44t-86.5 -27.5t-109.5 -12q-195 0 -275.5 118.5t-80.5 352.5v318h201v-361q0 -125 59.5 -182t180.5 -57q164 0 313 100v500h201v-1096h-201z" />
    <glyph glyph-name="uni0448" unicode="&#x448;" horiz-adv-x="2007" 
d="M170 0v1096h201v-922h532v922h201v-922h532v922h201v-1096h-1667z" />
    <glyph glyph-name="uni0449" unicode="&#x449;" horiz-adv-x="2084" 
d="M1827 -246v246h-1657v1096h201v-922h532v922h201v-922h532v922h201v-922h191v-420h-201z" />
    <glyph glyph-name="uni044A" unicode="&#x44a;" horiz-adv-x="1603" 
d="M94 922v174h645v-404h384q178 0 281.5 -89t103.5 -257t-103.5 -257t-281.5 -89h-582v922h-447zM1123 174q195 0 195 172q0 81 -47.5 126.5t-147.5 45.5h-384v-344h384z" />
    <glyph glyph-name="uni044B" unicode="&#x44b;" horiz-adv-x="1773" 
d="M753 174q194 0 194 172t-194 172h-384v-344h384zM170 0v1096h199v-404h384q178 0 281.5 -89t103.5 -257t-103.5 -257t-281.5 -89h-583zM1403 0v1096h201v-1096h-201z" />
    <glyph glyph-name="uni044C" unicode="&#x44c;" horiz-adv-x="1232" 
d="M753 174q194 0 194 172t-194 172h-384v-344h384zM170 0v1096h199v-404h384q178 0 281.5 -89t103.5 -257t-103.5 -257t-281.5 -89h-583z" />
    <glyph glyph-name="uni044D" unicode="&#x44d;" 
d="M592 1116q127 0 229 -44.5t167.5 -122t100.5 -180t35 -221.5t-35 -221.5t-100.5 -180t-167.5 -122t-229 -44.5q-192 0 -320.5 96.5t-176.5 255.5l189 60q31 -107 110.5 -167.5t197.5 -60.5q130 0 212.5 74t106.5 206h-374v174h378q-17 148 -100.5 231t-222.5 83
q-119 0 -198 -60t-110 -167l-189 59q48 160 176.5 256t320.5 96z" />
    <glyph glyph-name="uni044E" unicode="&#x44e;" horiz-adv-x="1769" 
d="M1139 -20q-228 0 -366 134t-162 347h-240v-461h-201v1096h201v-461h240q24 213 162 347t366 134q127 0 229 -44.5t167.5 -122t100.5 -180t35 -221.5t-35 -221.5t-100.5 -180t-167.5 -122t-229 -44.5zM1139 164q156 0 241.5 103t85.5 281t-86 281t-241 103t-241.5 -103.5
t-86.5 -280.5q0 -178 86 -281t242 -103z" />
    <glyph glyph-name="uni044F" unicode="&#x44f;" horiz-adv-x="1214" 
d="M844 0v381h-277l-272 -381h-219l308 418v20q-101 30 -161.5 108t-60.5 205q0 158 94.5 251.5t283.5 93.5h504v-1096h-200zM346 737q0 -93 60.5 -138.5t160.5 -45.5h279v369h-279q-100 0 -160.5 -46t-60.5 -139z" />
    <glyph glyph-name="uni0450" unicode="&#x450;" 
d="M631 -20q-126 0 -228 45t-168 122.5t-101.5 180.5t-35.5 220q0 158 60 285t182.5 205t290.5 78q125 0 221 -42.5t156 -118t90 -175.5t30 -221v-65h-830q8 -153 95.5 -241.5t240.5 -88.5q205 0 299 145l167 -73q-67 -117 -184.5 -186.5t-284.5 -69.5zM535 1229l-242 307
h233l203 -307h-194zM301 653h615q-15 279 -285 279q-143 0 -228 -74.5t-102 -204.5z" />
    <glyph glyph-name="uni0451" unicode="&#x451;" 
d="M631 -20q-126 0 -228 45t-168 122.5t-101.5 180.5t-35.5 220q0 158 60 285t182.5 205t290.5 78q125 0 221 -42.5t156 -118t90 -175.5t30 -221v-65h-830q8 -153 95.5 -241.5t240.5 -88.5q205 0 299 145l167 -73q-67 -117 -184.5 -186.5t-284.5 -69.5zM327 1300v236h217
v-236h-217zM718 1300v236h217v-236h-217zM301 653h615q-15 279 -285 279q-143 0 -228 -74.5t-102 -204.5z" />
    <glyph glyph-name="uni0452" unicode="&#x452;" horiz-adv-x="1286" 
d="M719 -129q120 -23 162.5 16t42.5 161v593q0 150 -59 218.5t-177 68.5q-171 0 -317 -133v-795h-201v1203h-170v164h170v169h201v-169h307v-164h-307v-306h20q34 48 62.5 80t74 67.5t104.5 53.5t132 18q360 0 360 -454v-662q0 -377 -405 -303v174z" />
    <glyph glyph-name="uni0453" unicode="&#x453;" horiz-adv-x="1053" 
d="M170 0v1096h789v-174h-588v-922h-201zM473 1229l203 307h233l-241 -307h-195z" />
    <glyph glyph-name="uni0454" unicode="&#x454;" 
d="M631 -20q-127 0 -229 44.5t-168 122t-101 180t-35 221.5t35 221.5t101 180t168 122t229 44.5q192 0 320 -96t176 -256l-188 -61q-31 107 -110.5 168t-197.5 61q-130 0 -213 -74.5t-107 -206.5h375v-174h-379q17 -147 101 -230t223 -83q119 0 198 60t110 167l188 -59
q-48 -160 -176 -256t-320 -96z" />
    <glyph glyph-name="uni0455" unicode="&#x455;" horiz-adv-x="1087" 
d="M580 -20q-199 0 -324.5 90.5t-167.5 233.5l195 53q37 -94 114 -148.5t192 -54.5q100 0 159 39.5t59 106.5q0 51 -37 84t-96 51t-130.5 33t-143 36t-130.5 53t-96 92t-37 145q0 146 104.5 233.5t302.5 87.5q346 0 445 -307l-174 -63q-34 83 -103 139.5t-174 56.5
q-90 0 -147.5 -39t-57.5 -102q0 -48 37 -79.5t96 -49t130 -32t142 -36.5t130 -54.5t96 -94.5t37 -148q0 -151 -101 -238.5t-320 -87.5z" />
    <glyph glyph-name="uni0456" unicode="&#x456;" horiz-adv-x="540" 
d="M170 0v1096h201v-1096h-201zM158 1300v236h225v-236h-225z" />
    <glyph glyph-name="uni0457" unicode="&#x457;" horiz-adv-x="540" 
d="M170 0v1096h201v-1096h-201zM-34 1300v236h217v-236h-217zM357 1300v236h217v-236h-217z" />
    <glyph glyph-name="uni0458" unicode="&#x458;" horiz-adv-x="550" 
d="M168 1300v236h225v-236h-225zM91 -430q-73 0 -149 20l20 181q60 -14 96 -14q128 0 128 134q0 28 -3 105.5t-3 116.5v983h201v-910q0 -39 3 -130t3 -132q0 -179 -73 -266.5t-223 -87.5z" />
    <glyph glyph-name="uni0459" unicode="&#x459;" horiz-adv-x="2082" 
d="M193 -9q-61 0 -119 9v184q42 -3 73 -3q66 0 91.5 33.5t30.5 128.5l40 753h910v-404h384q178 0 281.5 -89t103.5 -257t-103.5 -257t-281.5 -89h-583v911h-513l-31 -568q-11 -194 -72.5 -273t-210.5 -79zM1603 174q194 0 194 172t-194 172h-384v-344h384z" />
    <glyph glyph-name="uni045A" unicode="&#x45a;" horiz-adv-x="2027" 
d="M170 0v1096h201v-530h20q104 125 326 125h248v405h198v-404h384q178 0 281.5 -89t103.5 -257t-103.5 -257t-281.5 -89h-582v527h-297q-147 0 -222 -76.5t-75 -213.5v-237h-201zM1547 174q195 0 195 172q0 81 -47.5 126.5t-147.5 45.5h-384v-344h384z" />
    <glyph glyph-name="uni045B" unicode="&#x45b;" horiz-adv-x="1286" 
d="M0 1203v164h170v169h201v-169h307v-164h-307v-306h20q34 48 62.5 80t74 67.5t104.5 53.5t132 18q360 0 360 -454v-662h-200v641q0 150 -59 218.5t-177 68.5q-171 0 -317 -133v-795h-201v1203h-170z" />
    <glyph glyph-name="uni045C" unicode="&#x45c;" horiz-adv-x="1242" 
d="M170 0v1096h201v-457h184l224 296q65 85 129.5 127.5t159.5 42.5q43 0 83 -9v-174q-27 3 -48 3q-55 0 -89 -21.5t-79 -81.5l-205 -264v-20l431 -538h-241l-365 457h-184v-457h-201zM494 1229l202 307h234l-242 -307h-194z" />
    <glyph glyph-name="uni045D" unicode="&#x45d;" horiz-adv-x="1334" 
d="M170 0v1096h190v-901h21l493 901h290v-1096h-190v902l-21 -1l-493 -901h-290zM580 1229l-242 307h233l203 -307h-194z" />
    <glyph glyph-name="uni045E" unicode="&#x45e;" horiz-adv-x="1213" 
d="M347 -430q-93 0 -164.5 40.5t-110.5 110.5l137 104q50 -81 138 -81q58 0 101 40.5t74 131.5l29 84q-43 0 -67.5 16t-41.5 64l-357 1016h207l307 -922h21l307 922h201l-430 -1221q-108 -305 -351 -305zM617 1219q-147 0 -224 79t-77 238h164q0 -85 36.5 -127.5
t103.5 -42.5q139 0 139 170h160q0 -159 -77.5 -238t-224.5 -79z" />
    <glyph glyph-name="uni045F" unicode="&#x45f;" horiz-adv-x="1294" 
d="M547 -246v246h-377v1096h201v-922h553v922h200v-1096h-376v-246h-201z" />
    <glyph glyph-name="uni0490" unicode="&#x490;" horiz-adv-x="1211" 
d="M201 0v1434h691v245h205v-440h-691v-1239h-205z" />
    <glyph glyph-name="uni0491" unicode="&#x491;" horiz-adv-x="1053" 
d="M170 0v1096h589v245h200v-419h-588v-922h-201z" />
    <glyph glyph-name="uni0492" unicode="&#x492;" horiz-adv-x="1267" 
d="M31 573v185h211v676h896v-195h-692v-481h406v-185h-406v-573h-204v573h-211z" />
    <glyph glyph-name="uni0493" unicode="&#x493;" horiz-adv-x="1118" 
d="M61 410v174h173v512h790v-174h-589v-340h322v-170h-322v-412h-201v410h-173z" />
    <glyph glyph-name="uni0496" unicode="&#x496;" horiz-adv-x="2143" 
d="M1877 -246v246h-119l-426 626h-188v-626h-203v626h-188l-426 -626h-246l492 707v20l-241 401q-42 70 -85 97t-108 27q-21 0 -48 -3v185q40 9 83 9q188 0 293 -170l286 -465h188v626h203v-626h188l286 465q105 170 293 170q43 0 83 -9v-185q-27 3 -48 3q-65 0 -108 -27
t-85 -97l-242 -401v-20l366 -525v2h205v-430h-205z" />
    <glyph glyph-name="uni0497" unicode="&#x497;" horiz-adv-x="1886" 
d="M1628 -246v246h-91l-344 457h-164v-457h-199v457h-163l-344 -457h-242l411 538v20l-191 264q-43 60 -75.5 81.5t-86.5 21.5q-21 0 -48 -3v174q40 9 83 9q97 0 164 -43t125 -127l204 -296h163v457h199v-457h164l204 296q58 84 125 127t164 43q42 0 82 -9v-174q-27 3 -48 3
q-54 0 -86 -21.5t-75 -81.5l-191 -264v-20l278 -364h183v-420h-201z" />
    <glyph glyph-name="uni049A" unicode="&#x49a;" horiz-adv-x="1438" 
d="M1172 -246v246h-111l-447 626h-208v-626h-205v1434h205v-626h208l307 465q56 83 125 126.5t167 43.5q43 0 83 -9v-185q-27 3 -48 3q-64 0 -105 -27t-87 -97l-262 -401v-20l378 -523h205v-430h-205z" />
    <glyph glyph-name="uni049B" unicode="&#x49b;" horiz-adv-x="1268" 
d="M1011 -246v246h-91l-365 457h-184v-457h-201v1096h201v-457h184l224 296q65 85 129.5 127.5t159.5 42.5q43 0 83 -9v-174q-27 3 -48 3q-55 0 -89 -21.5t-79 -81.5l-205 -264v-20l292 -364h189v-420h-200z" />
    <glyph glyph-name="uni049C" unicode="&#x49c;" horiz-adv-x="1418" 
d="M201 0v1434h205v-626h110l-4 358h154l-4 -358h20l275 465q99 170 286 170q43 0 84 -9v-185q-28 3 -53 3q-63 0 -101.5 -26.5t-80.5 -97.5l-237 -401v-20l482 -707h-239l-416 626h-20l4 -359h-154l4 359h-110v-626h-205z" />
    <glyph glyph-name="uni049D" unicode="&#x49d;" horiz-adv-x="1256" 
d="M170 0v1096h201v-457h95l-4 266h138l-4 -266h20l194 296q56 85 117.5 127.5t154.5 42.5q43 0 83 -9v-174q-27 3 -48 3q-56 0 -88.5 -22t-72.5 -84l-171 -261v-20l391 -538h-236l-324 457h-20l4 -267h-138l4 267h-95v-457h-201z" />
    <glyph glyph-name="uni04A2" unicode="&#x4a2;" horiz-adv-x="1591" 
d="M1325 -246v246h-195v378q0 145 -94 228t-268 83t-268 -83t-94 -228v-378h-205v1434h205v-711h20q69 65 170.5 100t220.5 35q170 0 313 -72v648h205v-1250h195v-430h-205z" />
    <glyph glyph-name="uni04A3" unicode="&#x4a3;" horiz-adv-x="1413" 
d="M1155 -246v246h-190v252q0 137 -75 214t-222 77t-222 -77t-75 -214v-252h-201v1096h201v-514h20q104 125 326 125q150 0 248 -62v451h200v-922h191v-420h-201z" />
    <glyph glyph-name="uni04AE" unicode="&#x4ae;" horiz-adv-x="1306" 
d="M551 0v548l-502 886h225l376 -722h21l376 722h210l-501 -886v-548h-205z" />
    <glyph glyph-name="uni04AF" unicode="&#x4af;" horiz-adv-x="1254" 
d="M527 -410v410l-450 1096h209l334 -891h20l334 891h204l-450 -1096v-410h-201z" />
    <glyph glyph-name="uni04B2" unicode="&#x4b2;" horiz-adv-x="1442" 
d="M1177 -246v246h-115l-361 608h-20l-377 -608h-223l450 713l-430 721h228l350 -600h20l347 600h223l-422 -707l331 -543h203v-430h-204z" />
    <glyph glyph-name="uni04B3" unicode="&#x4b3;" horiz-adv-x="1229" 
d="M972 -246v246h-92l-278 450h-20l-288 -450h-213l359 545l-343 551h217l270 -442h20l263 442h213l-334 -539l241 -383h185v-420h-200z" />
    <glyph glyph-name="uni04B8" unicode="&#x4b8;" horiz-adv-x="1402" 
d="M614 190v242l-51 -2q-213 0 -307 130t-94 382v492h200v-535q0 -141 64.5 -208.5t187.5 -72.5v442h164v-421q123 35 219 111v684h205v-1434h-205v606h-20q-100 -97 -199 -136v-280h-164z" />
    <glyph glyph-name="uni04B9" unicode="&#x4b9;" horiz-adv-x="1269" 
d="M561 112v198q-29 -3 -60 -3q-195 0 -275.5 118.5t-80.5 352.5v318h201v-361q0 -119 53.5 -176t161.5 -62v301h156v-286q94 24 182 84v500h201v-1096h-201v494h-20q-30 -33 -48 -51t-50 -43.5t-64 -42.5v-245h-156z" />
    <glyph glyph-name="uni04BA" unicode="&#x4ba;" horiz-adv-x="1402" 
d="M406 1434v-607h20q84 81 179 129t235 48q213 0 307 -130t94 -382v-492h-201v535q0 146 -69 213t-201 67q-98 0 -192.5 -35t-171.5 -96v-684h-205v1434h205z" />
    <glyph glyph-name="uni04BB" unicode="&#x4bb;" horiz-adv-x="1286" 
d="M170 0v1536h201v-639h20q34 48 62.5 80t74 67.5t104.5 53.5t132 18q360 0 360 -454v-662h-200v641q0 150 -59 218.5t-177 68.5q-171 0 -317 -133v-795h-201z" />
    <glyph glyph-name="uni04C0" unicode="&#x4c0;" horiz-adv-x="606" 
d="M201 0v1434h205v-1434h-205z" />
    <glyph glyph-name="uni04CF" unicode="&#x4cf;" horiz-adv-x="540" 
d="M170 0v1536h201v-1536h-201z" />
    <glyph glyph-name="uni04D8" unicode="&#x4d8;" horiz-adv-x="1584" 
d="M772 -25q-163 0 -289.5 56t-205 156t-119 233t-40.5 293v85h1131q-18 223 -138.5 347.5t-338.5 124.5q-147 0 -248.5 -54.5t-152.5 -144.5l-180 84q71 135 220.5 219t360.5 84q132 0 244 -38t193 -106.5t138.5 -161.5t85.5 -203t28 -232q0 -155 -45 -288.5t-129.5 -235
t-217 -160t-297.5 -58.5zM332 613q4 -99 30 -178.5t77 -141.5t135.5 -95.5t197.5 -33.5q212 0 332 118t143 331h-915z" />
    <glyph glyph-name="uni04D9" unicode="&#x4d9;" 
d="M592 -20q-125 0 -221.5 42.5t-156 118t-90 175.5t-30.5 221v65h831q-8 153 -95.5 241.5t-240.5 88.5q-205 0 -299 -146l-167 74q67 117 184.5 186.5t284.5 69.5t289.5 -78t182.5 -205t60 -285q0 -118 -35 -220.5t-100.5 -180t-168 -122.5t-228.5 -45zM306 442
q15 -278 286 -278q143 0 228 74t102 204h-616z" />
    <glyph glyph-name="uni04E8" unicode="&#x4e8;" horiz-adv-x="1609" 
d="M805 -25q-159 0 -288.5 56.5t-215 155.5t-132 235t-46.5 295q0 214 79.5 380.5t235.5 263.5t367 97t367 -97t235.5 -263.5t79.5 -380.5q0 -159 -46.5 -295t-132 -235t-215 -155.5t-288.5 -56.5zM805 164q204 0 325.5 121t143.5 341h-938q22 -220 143.5 -341t325.5 -121z
M336 808h938q-22 220 -143.5 341t-325.5 121t-325.5 -121t-143.5 -341z" />
    <glyph glyph-name="uni04E9" unicode="&#x4e9;" horiz-adv-x="1261" 
d="M631 -20q-127 0 -229 44.5t-168 122t-101 180t-35 221.5t35 221.5t101 180t168 122t229 44.5t229 -44.5t167.5 -122t100.5 -180t35 -221.5t-35 -221.5t-100.5 -180t-167.5 -122t-229 -44.5zM631 164q135 0 218 78.5t103 218.5h-643q20 -140 103 -218.5t219 -78.5z
M309 635h643q-21 140 -104 218.5t-217 78.5t-218 -78.5t-104 -218.5z" />
    <glyph glyph-name="Wgrave" unicode="&#x1e80;" horiz-adv-x="2062" 
d="M461 0l-360 1434h220l286 -1239h21l278 1239h254l279 -1239h20l287 1239h215l-359 -1434h-302l-259 1158h-20l-259 -1158h-301zM937 1567l-242 307h234l203 -307h-195z" />
    <glyph glyph-name="wgrave" unicode="&#x1e81;" horiz-adv-x="1860" 
d="M417 0l-315 1096h209l246 -922h21l221 922h267l221 -922h21l246 922h204l-315 -1096h-289l-215 891h-19l-214 -891h-289zM836 1229l-242 307h233l203 -307h-194z" />
    <glyph glyph-name="Wacute" unicode="&#x1e82;" horiz-adv-x="2062" 
d="M461 0l-360 1434h220l286 -1239h21l278 1239h254l279 -1239h20l287 1239h215l-359 -1434h-302l-259 1158h-20l-259 -1158h-301zM933 1567l203 307h233l-242 -307h-194z" />
    <glyph glyph-name="wacute" unicode="&#x1e83;" horiz-adv-x="1860" 
d="M417 0l-315 1096h209l246 -922h21l221 922h267l221 -922h21l246 922h204l-315 -1096h-289l-215 891h-19l-214 -891h-289zM831 1229l203 307h234l-242 -307h-195z" />
    <glyph glyph-name="Wdieresis" unicode="&#x1e84;" horiz-adv-x="2062" 
d="M461 0l-360 1434h220l286 -1239h21l278 1239h254l279 -1239h20l287 1239h215l-359 -1434h-302l-259 1158h-20l-259 -1158h-301zM729 1638v236h217v-236h-217zM1120 1638v236h217v-236h-217z" />
    <glyph glyph-name="wdieresis" unicode="&#x1e85;" horiz-adv-x="1860" 
d="M417 0l-315 1096h209l246 -922h21l221 922h267l221 -922h21l246 922h204l-315 -1096h-289l-215 891h-19l-214 -891h-289zM628 1300v236h217v-236h-217zM1019 1300v236h217v-236h-217z" />
    <glyph glyph-name="uni1E9E" unicode="&#x1e9e;" horiz-adv-x="1419" 
d="M865 -9q-122 0 -249 29v190q106 -30 208 -30q134 0 213 64.5t79 178.5q0 116 -93 179t-266 63h-41v143l343 391q-137 70 -301 70q-180 0 -272.5 -96t-92.5 -288v-885h-205v885q0 282 142 427.5t416 145.5q143 0 275 -37.5t228 -94.5v-163l-316 -355v-21q78 -10 145.5 -37
t123 -73t87.5 -117.5t32 -161.5q0 -82 -27 -153.5t-80.5 -129t-143 -91t-205.5 -33.5z" />
    <glyph glyph-name="Ygrave" unicode="&#x1ef2;" horiz-adv-x="1306" 
d="M551 0v548l-502 886h225l376 -722h21l376 722h210l-501 -886v-548h-205zM557 1567l-242 307h234l203 -307h-195z" />
    <glyph glyph-name="ygrave" unicode="&#x1ef3;" horiz-adv-x="1213" 
d="M347 -430q-93 0 -164.5 40.5t-110.5 110.5l137 104q50 -81 138 -81q58 0 101 40.5t74 131.5l29 84q-43 0 -67.5 16t-41.5 64l-357 1016h207l307 -922h21l307 922h201l-430 -1221q-108 -305 -351 -305zM523 1229l-241 307h233l203 -307h-195z" />
    <glyph glyph-name="uni2010" unicode="&#x2010;" horiz-adv-x="802" 
d="M102 650v185h598v-185h-598z" />
    <glyph glyph-name="uni2011" unicode="&#x2011;" horiz-adv-x="802" 
d="M102 650v185h598v-185h-598z" />
    <glyph glyph-name="endash" unicode="&#x2013;" horiz-adv-x="1101" 
d="M102 650v185h897v-185h-897z" />
    <glyph glyph-name="emdash" unicode="&#x2014;" horiz-adv-x="1699" 
d="M102 650v185h1495v-185h-1495z" />
    <glyph glyph-name="uni2015" unicode="&#x2015;" horiz-adv-x="1699" 
d="M102 650v185h1495v-185h-1495z" />
    <glyph glyph-name="underscoredbl" unicode="&#x2017;" horiz-adv-x="921" 
d="M12 -469v142h897v-142h-897zM12 -234v142h897v-142h-897z" />
    <glyph glyph-name="quoteleft" unicode="&#x2018;" horiz-adv-x="436" 
d="M354 1427q-81 0 -112 -27t-31 -100h124v-234h-237v203q0 144 59 205t197 61v-108z" />
    <glyph glyph-name="quoteright" unicode="&#x2019;" horiz-adv-x="436" 
d="M82 1174q81 0 112 26.5t31 99.5h-124v235h237v-203q0 -144 -59 -205t-197 -61v108z" />
    <glyph glyph-name="quotesinglbase" unicode="&#x201a;" horiz-adv-x="436" 
d="M82 -127q81 0 112 27t31 100h-124v234h237v-202q0 -144 -59 -205t-197 -61v107z" />
    <glyph glyph-name="quotereversed" unicode="&#x201b;" horiz-adv-x="436" 
d="M354 1066q-138 0 -197 61t-59 205v203h237v-235h-124q0 -73 31 -99.5t112 -26.5v-108z" />
    <glyph glyph-name="quotedblleft" unicode="&#x201c;" horiz-adv-x="841" 
d="M760 1427q-81 0 -112.5 -27t-31.5 -100h124v-234h-236v203q0 144 59 205t197 61v-108zM354 1427q-81 0 -112 -27t-31 -100h124v-234h-237v203q0 144 59 205t197 61v-108z" />
    <glyph glyph-name="quotedblright" unicode="&#x201d;" horiz-adv-x="841" 
d="M82 1174q81 0 112 26.5t31 99.5h-124v235h237v-203q0 -144 -59 -205t-197 -61v108zM487 1174q81 0 112.5 26.5t31.5 99.5h-124v235h236v-203q0 -144 -59 -205t-197 -61v108z" />
    <glyph glyph-name="quotedblbase" unicode="&#x201e;" horiz-adv-x="841" 
d="M82 -127q81 0 112 27t31 100h-124v234h237v-202q0 -144 -59 -205t-197 -61v107zM487 -127q81 0 112.5 27t31.5 100h-124v234h236v-202q0 -144 -59 -205t-197 -61v107z" />
    <glyph glyph-name="dagger" unicode="&#x2020;" horiz-adv-x="726" 
d="M98 1186v174h173v176h185v-176h172v-174h-177l-26 -389h-123l-26 389h-178z" />
    <glyph glyph-name="daggerdbl" unicode="&#x2021;" horiz-adv-x="726" 
d="M98 879v174h175v133h-175v174h173v176h185v-176h172v-174h-174v-133h174v-174h-181l-22 -248h-123l-22 248h-182z" />
    <glyph glyph-name="bullet" unicode="&#x2022;" horiz-adv-x="704" 
d="M352 507q-106 0 -167.5 61.5t-61.5 167.5t61.5 168t167.5 62t168 -62t62 -168t-62 -167.5t-168 -61.5z" />
    <glyph glyph-name="ellipsis" unicode="&#x2026;" horiz-adv-x="1474" 
d="M123 0v246h246v-246h-246zM614 0v246h246v-246h-246zM1106 0v246h246v-246h-246z" />
    <glyph glyph-name="perthousand" unicode="&#x2030;" horiz-adv-x="3090" 
d="M388 0l523 589h174l-492 -589h-205zM1063 835l492 599h205l-523 -599h-174zM1630 -20q-186 0 -290 113t-104 286t104 286.5t290 113.5q187 0 291 -113.5t104 -286.5t-104 -286t-291 -113zM1630 130q111 0 171.5 65t60.5 184t-61 184.5t-171 65.5t-170 -65.5t-60 -184.5
t59.5 -184t170.5 -65zM517 654q-186 0 -290 113.5t-104 286.5t104 286.5t290 113.5q187 0 291 -113.5t104 -286.5t-104 -286.5t-291 -113.5zM517 805q111 0 171.5 65t60.5 184t-61 184.5t-171 65.5t-170 -65.5t-60 -184.5t59.5 -184t170.5 -65zM2572 -20q-186 0 -290 113
t-104 286t104 286.5t290 113.5q187 0 291.5 -113.5t104.5 -286.5t-104.5 -286t-291.5 -113zM2572 130q111 0 171.5 65t60.5 184t-61 184.5t-171 65.5t-170 -65.5t-60 -184.5t59.5 -184t170.5 -65z" />
    <glyph glyph-name="minute" unicode="&#x2032;" horiz-adv-x="409" 
d="M133 881l-31 553h205l-31 -553h-143z" />
    <glyph glyph-name="second" unicode="&#x2033;" horiz-adv-x="819" 
d="M133 881l-31 553h205l-31 -553h-143zM543 881l-31 553h205l-31 -553h-143z" />
    <glyph glyph-name="guilsinglleft" unicode="&#x2039;" horiz-adv-x="644" 
d="M543 94l-442 377v184l442 377v-235l-247 -224v-20l247 -223v-236z" />
    <glyph glyph-name="guilsinglright" unicode="&#x203a;" horiz-adv-x="644" 
d="M101 94v236l247 223v20l-247 224v235l442 -377v-184z" />
    <glyph glyph-name="exclamdbl" unicode="&#x203c;" horiz-adv-x="1024" 
d="M133 0v229h246v-229h-246zM189 496l-46 938h226l-46 -938h-134zM645 0v229h246v-229h-246zM701 496l-46 938h226l-46 -938h-134z" />
    <glyph glyph-name="uni203D" unicode="&#x203d;" horiz-adv-x="1243" 
d="M539 496l-31 630h215l-24 -363q23 23 67.5 62.5t70 64.5t55 59.5t43.5 70t14 72.5q0 85 -76 135t-214 50q-151 0 -241 -67t-136 -193l-182 55q117 387 559 387q237 0 360.5 -96.5t123.5 -258.5q0 -66 -21.5 -122.5t-57.5 -98t-79.5 -78.5t-89.5 -71.5t-86.5 -68.5
t-72.5 -77.5t-44 -91.5h-153zM485 0v227h246v-227h-246z" />
    <glyph glyph-name="uni203E" unicode="&#x203e;" horiz-adv-x="921" 
d="M12 1508v143h897v-143h-897z" />
    <glyph glyph-name="fraction" unicode="&#x2044;" horiz-adv-x="660" 
d="M-302 0l523 589h174l-492 -589h-205zM373 835l492 599h205l-523 -599h-174z" />
    <glyph glyph-name="uni2070" unicode="&#x2070;" horiz-adv-x="933" 
d="M467 617q-169 0 -262.5 109t-93.5 286t93.5 285.5t262.5 108.5t262.5 -108.5t93.5 -285.5t-93.5 -286t-262.5 -109zM467 765q90 0 138.5 65t48.5 182q0 118 -48.5 182t-138.5 64t-138 -64t-48 -182t48 -182.5t138 -64.5z" />
    <glyph glyph-name="uni2074" unicode="&#x2074;" horiz-adv-x="866" 
d="M243 934l237 2v310h-16zM475 631v165h-407v136l326 461h249v-454l123 2v-149h-123v-161h-168z" />
    <glyph glyph-name="uni2075" unicode="&#x2075;" horiz-adv-x="859" 
d="M453 616q-145 0 -224.5 59t-96.5 146l163 34q29 -97 155 -97q140 0 140 122q0 116 -135 116q-92 0 -150 -49h-153v448h582v-156l-422 4v-213h16q77 84 199 84q109 0 172 -63.5t63 -173.5q0 -118 -74.5 -189.5t-234.5 -71.5z" />
    <glyph glyph-name="uni2076" unicode="&#x2076;" horiz-adv-x="862" 
d="M451 754q70 0 107 30t37 85t-37 86t-107 31t-107.5 -31t-37.5 -86q0 -54 37.5 -84.5t107.5 -30.5zM457 614q-174 0 -260 105t-86 285q0 119 33.5 206t112 140t196.5 53q234 0 295 -186l-158 -48q-40 91 -145 91q-92 0 -131 -63t-34 -192h15q74 96 217 96q118 0 185 -61.5
t67 -173.5q0 -121 -79.5 -186.5t-227.5 -65.5z" />
    <glyph glyph-name="uni2077" unicode="&#x2077;" horiz-adv-x="796" 
d="M270 673q0 155 30 264t83 174.5t136 110.5v20l-429 -4v155h617v-144q-145 -64 -205.5 -190t-60.5 -359v-69h-171v42z" />
    <glyph glyph-name="uni2078" unicode="&#x2078;" horiz-adv-x="825" 
d="M413 756q72 0 110 25.5t38 73.5t-38.5 75.5t-109.5 27.5q-70 0 -109 -27.5t-39 -75.5q0 -47 38 -73t110 -26zM413 1070q66 0 101.5 25.5t35.5 70.5q0 46 -35 71t-102 25t-102 -25t-35 -71q0 -45 35.5 -70.5t101.5 -25.5zM413 614q-152 0 -235 51.5t-83 155.5
q0 144 162 186v16q-72 23 -110 64.5t-38 111.5q0 99 79 151.5t225 52.5t225 -52.5t79 -151.5q0 -129 -149 -176v-16q162 -42 162 -186q0 -104 -82.5 -155.5t-234.5 -51.5z" />
    <glyph glyph-name="uni2079" unicode="&#x2079;" horiz-adv-x="862" 
d="M412 1031q70 0 107 31t37 86q0 54 -37.5 85t-106.5 31q-70 0 -107.5 -30.5t-37.5 -85.5t37.5 -86t107.5 -31zM410 614q-233 0 -295 187l157 47q40 -90 145 -90q92 0 131.5 63t34.5 192h-16q-75 -97 -217 -97q-118 0 -185 61.5t-67 173.5q0 121 80 186.5t228 65.5
q174 0 260 -104.5t86 -284.5q0 -88 -19.5 -159.5t-59.5 -126t-107 -84.5t-156 -30z" />
    <glyph glyph-name="uni207F" unicode="&#x207f;" horiz-adv-x="1028" 
d="M170 771v765h143q11 -86 11 -143h16q24 33 46.5 58t55.5 51.5t75 41t89 14.5q130 0 195 -74t65 -192v-521h-174v487q0 64 -37.5 97t-107.5 33q-103 0 -203 -102v-515h-174z" />
    <glyph glyph-name="uni2080" unicode="&#x2080;" horiz-adv-x="933" 
d="M467 -349q-169 0 -262.5 108.5t-93.5 285.5t93.5 285.5t262.5 108.5t262.5 -108.5t93.5 -285.5t-93.5 -285.5t-262.5 -108.5zM467 -202q90 0 138.5 65t48.5 182q0 118 -48.5 182.5t-138.5 64.5t-138 -64.5t-48 -182.5t48 -182.5t138 -64.5z" />
    <glyph glyph-name="uni2081" unicode="&#x2081;" horiz-adv-x="742" 
d="M102 -333v146h198v440l-14 2q-54 -39 -184 -39v149h138q40 0 58 13.5t24 50.5h146v-616h184v-146h-550z" />
    <glyph glyph-name="uni2082" unicode="&#x2082;" horiz-adv-x="841" 
d="M118 -240q0 110 53.5 183.5t194.5 133.5q105 44 141 75.5t36 67.5q0 76 -112 76q-119 0 -151 -106l-159 31q11 48 32 85.5t56.5 68.5t92.5 47.5t134 16.5q276 0 276 -211q0 -87 -52.5 -144t-183.5 -111q-108 -44 -146 -78t-43 -86l433 5v-147h-602v93z" />
    <glyph glyph-name="uni2083" unicode="&#x2083;" horiz-adv-x="831" 
d="M432 -349q-266 0 -320 227l162 37q17 -60 54.5 -90.5t105.5 -30.5q64 0 98.5 27t34.5 74q0 100 -159 100h-39v118h45q139 0 139 91q0 43 -30 67t-88 24q-114 0 -148 -114l-161 36q24 103 95 162.5t215 59.5q142 0 213.5 -54.5t71.5 -146.5q0 -127 -151 -177v-16
q166 -37 166 -181q0 -98 -75.5 -155.5t-228.5 -57.5z" />
    <glyph glyph-name="uni2084" unicode="&#x2084;" horiz-adv-x="866" 
d="M243 -30l237 2v311h-16zM475 -333v165h-407v136l326 461h249v-454l123 2v-149h-123v-161h-168z" />
    <glyph glyph-name="uni2085" unicode="&#x2085;" horiz-adv-x="859" 
d="M453 -349q-145 0 -224.5 59t-96.5 146l163 33q29 -97 155 -97q140 0 140 122q0 117 -135 117q-92 0 -150 -49h-153v447h582v-156l-422 5v-213h16q76 83 199 83q109 0 172 -63.5t63 -173.5q0 -118 -74.5 -189t-234.5 -71z" />
    <glyph glyph-name="uni2086" unicode="&#x2086;" horiz-adv-x="862" 
d="M451 -210q70 0 107 30.5t37 85.5t-37 86t-107 31t-107.5 -31t-37.5 -86q0 -54 37.5 -85t107.5 -31zM457 -349q-174 0 -260 104.5t-86 284.5q0 119 33.5 206t112 140t196.5 53q234 0 295 -186l-158 -47q-40 90 -145 90q-92 0 -131 -63t-34 -192h15q74 96 217 96
q118 0 185 -61t67 -173q0 -121 -79.5 -186.5t-227.5 -65.5z" />
    <glyph glyph-name="uni2087" unicode="&#x2087;" horiz-adv-x="796" 
d="M270 -291q0 155 30 264t83 174.5t136 110.5v21l-429 -5v155h617v-143q-145 -64 -205.5 -190t-60.5 -359v-70h-171v42z" />
    <glyph glyph-name="uni2088" unicode="&#x2088;" horiz-adv-x="825" 
d="M413 -209q72 0 110 25.5t38 73.5t-38.5 76t-109.5 28q-70 0 -109 -28t-39 -76q0 -47 38 -73t110 -26zM413 105q66 0 101.5 26t35.5 71t-35 70t-102 25t-102 -25t-35 -70t35.5 -71t101.5 -26zM413 -350q-152 0 -235 51.5t-83 155.5q0 143 162 185v16q-72 23 -110 64.5
t-38 111.5q0 99 79 151.5t225 52.5t225 -52.5t79 -151.5q0 -129 -149 -176v-16q162 -42 162 -185q0 -104 -82.5 -155.5t-234.5 -51.5z" />
    <glyph glyph-name="uni2089" unicode="&#x2089;" horiz-adv-x="862" 
d="M412 68q70 0 107 30.5t37 85.5q0 54 -37.5 85t-106.5 31q-70 0 -107.5 -30.5t-37.5 -85.5t37.5 -85.5t107.5 -30.5zM410 -349q-234 0 -295 186l157 47q40 -90 145 -90q92 0 131.5 63t34.5 192h-16q-74 -96 -217 -96q-118 0 -185 61t-67 173q0 121 80 186.5t228 65.5
q174 0 260 -104.5t86 -284.5q0 -119 -33.5 -206t-112 -140t-196.5 -53z" />
    <glyph glyph-name="uni2099" unicode="&#x2099;" horiz-adv-x="1028" 
d="M170 0v765h143q11 -86 11 -143h16q52 73 114.5 118.5t151.5 45.5q131 0 195.5 -73.5t64.5 -191.5v-521h-174v487q0 129 -145 129q-104 0 -203 -101v-515h-174z" />
    <glyph glyph-name="franc" unicode="&#x20a3;" horiz-adv-x="1283" 
d="M216 0v217h-185v178h185v1039h937v-185h-735v-428h592v-182h-592v-244h362v-178h-362v-217h-202z" />
    <glyph glyph-name="lira" unicode="&#x20a4;" horiz-adv-x="1282" 
d="M111 381v166h312q-14 49 -61 112h-251v166h114q-83 117 -83 251q0 176 119.5 279.5t339.5 103.5q408 0 518 -387l-186 -55q-41 126 -121 193t-211 67q-120 0 -192 -57t-72 -149q0 -61 28.5 -113t85.5 -122h482v-164h-364q33 -66 40 -117h324v-164h-335
q-26 -79 -84 -129.5t-121 -61.5v-21l726 5v-184h-1008v169l37 8q93 20 168 72.5t103 131.5h-308z" />
    <glyph glyph-name="peseta" unicode="&#x20a7;" horiz-adv-x="1608" 
d="M100 801v180h201v453h447q276 0 415 -111.5t159 -341.5h194v-180h-195q-23 -219 -143 -332t-310 -113q-198 0 -342 101h-20v-457h-205v801h-201zM506 612q132 -69 286 -69q136 0 218.5 69t103.5 197h-608v-197zM506 973h609q-39 276 -367 276h-242v-276z" />
    <glyph glyph-name="Euro" unicode="&#x20ac;" horiz-adv-x="1545" 
d="M31 481v181h154l-1 55l1 55h-154v180h180q56 232 218.5 369t404.5 137q218 0 371 -113t222 -309l-191 -60q-47 142 -149.5 218t-252.5 76q-159 0 -266 -85t-149 -243h453v-164h-479l-2 -61l2 -62h479v-163h-453q42 -158 149 -243t266 -85q150 0 252.5 76t149.5 218
l191 -61q-69 -196 -222 -309t-371 -113q-242 0 -404 137t-219 369h-180z" />
    <glyph glyph-name="uni20B8" unicode="&#x20b8;" horiz-adv-x="1362" 
d="M580 0v844h-480v192h1163v-192h-479v-844h-204zM100 1241v193h1163v-193h-1163z" />
    <glyph glyph-name="uni20B9" unicode="&#x20b9;" horiz-adv-x="1282" 
d="M992 -18q-69 0 -126 27.5t-98 71t-80 96t-83 105.5t-95.5 96.5t-128 71t-170.5 27.5h-111v185h377q271 0 316 209h-680v168h680q-45 210 -316 210h-364v185h413q111 0 198 -29.5t143 -83.5t88.5 -123.5t41.5 -154.5h195v-174h-203q-34 -146 -158.5 -237t-317.5 -91v-21
q73 -15 147 -64t135.5 -112t115.5 -126t106 -119.5t87 -78.5v-20q-60 -18 -112 -18z" />
    <glyph glyph-name="uni20BA" unicode="&#x20ba;" horiz-adv-x="1348" 
d="M301 0v398l-201 -73v184l201 74v137l-201 -74v184l201 74v530h205v-473l314 112v-182l-314 -115v-137l314 113v-183l-314 -114v-271h235q148 0 237.5 97.5t117.5 286.5l179 -59q-27 -248 -167.5 -378.5t-371.5 -130.5h-435z" />
    <glyph glyph-name="uni20BC" unicode="&#x20bc;" horiz-adv-x="1669" 
d="M931 1434v-229q292 -20 434 -164.5t142 -412.5v-628h-204v628q0 182 -91.5 278t-288.5 114l5 -1020h-199l5 1020q-198 -18 -289 -114t-91 -278v-628h-192v628q0 266 138.5 410t425.5 166v230h205z" />
    <glyph glyph-name="uni20BD" unicode="&#x20bd;" horiz-adv-x="1411" 
d="M100 555v168h204v711h458q290 0 423 -107.5t133 -336.5t-133 -336t-423 -107h-253v-180h395v-164h-395v-203h-205v201h-204v168h204v186h-204zM509 723h297q148 0 227.5 68t79.5 195q0 128 -79 195.5t-228 67.5h-297v-526z" />
    <glyph glyph-name="uni2105" unicode="&#x2105;" horiz-adv-x="2148" 
d="M517 654q-186 0 -290 113.5t-104 286.5t104 286.5t290 113.5q146 0 242.5 -71t130.5 -190l-150 -51q-46 162 -223 162q-110 0 -170 -65.5t-60 -184.5t59.5 -184t170.5 -65q179 0 223 161l150 -52q-34 -119 -130.5 -189.5t-242.5 -70.5zM1630 -20q-186 0 -290 113
t-104 286t104 286.5t290 113.5q187 0 291 -113.5t104 -286.5t-104 -286t-291 -113zM1630 130q111 0 171.5 65t60.5 184t-61 184.5t-171 65.5t-170 -65.5t-60 -184.5t59.5 -184t170.5 -65zM388 0l523 589h174l-492 -589h-205zM1063 835l492 599h205l-523 -599h-174z" />
    <glyph glyph-name="uni2113" unicode="&#x2113;" horiz-adv-x="1184" 
d="M755 -20q-297 0 -387 390q-136 -26 -285 -37l-10 174q145 9 266 32q-14 131 -14 285q0 375 94.5 556t301.5 181q168 0 254.5 -125t86.5 -354q0 -116 -24.5 -211t-80.5 -182.5t-157 -156t-246 -115.5q57 -261 223 -261q93 0 166 73l98 -121q-107 -128 -286 -128zM519 825
q0 -132 9 -234q100 38 170 92t108.5 120t55 136t16.5 153q0 294 -162 294q-103 0 -150 -128.5t-47 -432.5z" />
    <glyph glyph-name="uni2116" unicode="&#x2116;" horiz-adv-x="2701" 
d="M2094 462q-230 0 -357 137t-127 358t127 359t357 138t357 -138t127 -359t-127 -358t-357 -137zM2094 629q144 0 221 84.5t77 243.5q0 160 -77.5 244.5t-220.5 84.5t-220.5 -84.5t-77.5 -244.5q0 -159 77 -243.5t221 -84.5zM201 0v1434h315l617 -1229h20v1229h195v-1434
h-316l-616 1229l-21 1v-1230h-194zM1971 0v246h246v-246h-246z" />
    <glyph glyph-name="uni2117" unicode="&#x2117;" horiz-adv-x="962" 
d="M359 1054v308h157q63 0 96 -29.5t33 -84.5q0 -54 -32 -84.5t-87 -30.5q-33 0 -64 14v-93h-103zM481 847q-183 0 -283 97.5t-100 259.5t100 259.5t283 97.5q182 0 282.5 -98t100.5 -259q0 -162 -100.5 -259.5t-282.5 -97.5zM481 945q134 0 202.5 69.5t68.5 189.5
q0 119 -68.5 188.5t-202.5 69.5q-135 0 -202.5 -69.5t-67.5 -188.5q0 -120 67.5 -189.5t202.5 -69.5zM462 1207h43q42 0 42 37t-42 37h-43v-74z" />
    <glyph glyph-name="trademark" unicode="&#x2122;" horiz-adv-x="1665" 
d="M291 943v432h-191v161h537v-161h-191v-432h-155zM739 944v592h269l85 -424h20l84 424h267v-592h-159l6 431h-21l-99 -431h-179l-99 431h-20l5 -431h-159z" />
    <glyph glyph-name="uni2126" unicode="&#x2126;" horiz-adv-x="1609" 
d="M123 0v184l364 -5v21q-68 23 -129 66.5t-115.5 111.5t-87 171.5t-32.5 228.5q0 143 46.5 267t132 216t215.5 144.5t288 52.5t288 -52.5t215.5 -144.5t132 -216t46.5 -267q0 -125 -32.5 -228.5t-87.5 -171.5t-116 -111.5t-129 -66.5v-21l365 5v-184h-569v195
q360 123 360 542q0 251 -124 392t-349 141t-349 -141t-124 -392q0 -419 360 -542v-195h-569z" />
    <glyph glyph-name="estimated" unicode="&#x212e;" horiz-adv-x="1731" 
d="M1330 740q12 0 20 7t8 19v340q0 30 -6.5 48.5t-24.5 35.5q-194 191 -460 191q-273 0 -464 -191q-19 -17 -24.5 -35t-5.5 -49v-340q0 -12 7.5 -19t18.5 -7h931zM867 0q-175 0 -322.5 54t-248.5 148.5t-157.5 226.5t-56.5 286q0 152 54.5 283.5t154 228t248 152t328.5 55.5
q181 0 331 -59.5t247.5 -161t151 -235t53.5 -283.5h-1251q-11 0 -18.5 -7t-7.5 -18v-341q0 -33 6 -52.5t24 -36.5q191 -188 464 -188q147 0 277 61.5t212 162.5h140q-37 -52 -91.5 -98t-131 -87.5t-182 -66t-224.5 -24.5z" />
    <glyph glyph-name="uni2166" unicode="&#x2166;" horiz-adv-x="2666" 
d="M590 0l-522 1434h223l431 -1239h20l432 1239h212l-522 -1434h-274zM1655 0v1434h205v-1434h-205zM2261 0v1434h205v-1434h-205z" />
    <glyph glyph-name="partialdiff" unicode="&#x2202;" horiz-adv-x="1266" 
d="M634 164q150 0 237 94t87 280q0 184 -90.5 278.5t-238.5 94.5q-147 0 -236.5 -94t-89.5 -279t90 -279.5t241 -94.5zM608 -20q-109 0 -201.5 36t-161.5 104.5t-108 175.5t-39 242q0 131 37.5 236.5t102.5 172.5t150 102.5t182 35.5q236 0 360 -188h20q-32 156 -166 325
t-350 314h242q487 -345 487 -903q0 -171 -45.5 -300.5t-124.5 -204.5t-175.5 -111.5t-209.5 -36.5z" />
    <glyph glyph-name="uni2206" unicode="&#x2206;" horiz-adv-x="1464" 
d="M81 0v184l522 1250h262l518 -1250v-184h-1302zM271 145l17 -12q89 51 226 51h655l-424 1060h-20z" />
    <glyph glyph-name="product" unicode="&#x220f;" horiz-adv-x="1594" 
d="M326 0v1239h-226v195h1394v-195h-226v-1239h-205v1239h-533v-1239h-204z" />
    <glyph glyph-name="summation" unicode="&#x2211;" horiz-adv-x="1439" 
d="M153 0l3 3v168l593 548v20l-580 524v168l-4 3h1100v-195l-807 5l485 -436v-154l-504 -465l838 6v-195h-1124z" />
    <glyph glyph-name="minus" unicode="&#x2212;" horiz-adv-x="1191" 
d="M102 626v184h988v-184h-988z" />
    <glyph glyph-name="uni2215" unicode="&#x2215;" horiz-adv-x="659" 
d="M-302 0l523 589h174l-492 -589h-205zM373 835l492 599h205l-523 -599h-174z" />
    <glyph glyph-name="uni2219" unicode="&#x2219;" horiz-adv-x="704" 
d="M352 507q-106 0 -167.5 61.5t-61.5 167.5t61.5 168t167.5 62t168 -62t62 -168t-62 -167.5t-168 -61.5z" />
    <glyph glyph-name="radical" unicode="&#x221a;" horiz-adv-x="1531" 
d="M387 0l-302 847h207l224 -673h21l415 1260h495v-195h-369l-418 -1239h-273z" />
    <glyph glyph-name="infinity" unicode="&#x221e;" horiz-adv-x="1526" 
d="M435 548q60 0 116.5 34t125.5 114v21q-68 87 -126.5 123.5t-119.5 36.5q-73 0 -119 -45t-46 -120t47.5 -119.5t121.5 -44.5zM1096 548q73 0 119 44.5t46 119.5t-47 120t-120 45q-59 0 -116.5 -35t-127.5 -116v-19q68 -86 126.5 -122.5t119.5 -36.5zM430 388
q-151 0 -239.5 88.5t-88.5 234.5q0 150 89.5 237.5t235.5 87.5q93 0 161.5 -38.5t161.5 -133.5h20q39 42 65.5 66t67.5 52t89 41t106 13q148 0 237 -89.5t89 -235.5q0 -149 -89.5 -236t-234.5 -87q-92 0 -161.5 39t-162.5 134h-20q-39 -42 -65.5 -66t-67.5 -52.5
t-88.5 -41.5t-104.5 -13z" />
    <glyph glyph-name="integral" unicode="&#x222b;" horiz-adv-x="1126" 
d="M232 -203q-85 0 -181 25l21 178q70 -18 139 -18q62 0 100.5 14t63 52t36.5 89.5t21 140.5l72 716q24 244 119.5 354t270.5 110q89 0 181 -24l-20 -179q-74 19 -140 19q-62 0 -100.5 -14t-63 -52t-36.5 -89.5t-21 -140.5l-71 -717q-24 -244 -119.5 -354t-271.5 -110z" />
    <glyph glyph-name="approxequal" unicode="&#x2248;" horiz-adv-x="1054" 
d="M758 338q-49 0 -108.5 20t-105 43.5t-97.5 43.5t-88 20q-44 0 -63.5 -30.5t-19.5 -92.5h-174q0 156 48.5 230.5t146.5 74.5q49 0 108.5 -19t104.5 -42.5t97 -42.5t88 -19q44 0 63.5 30.5t19.5 92.5h174q0 -309 -194 -309zM102 786q0 310 195 310q62 0 138.5 -32
t146 -63.5t113.5 -31.5t63.5 30.5t19.5 92.5h174q0 -157 -48 -231.5t-146 -74.5q-49 0 -108.5 19t-105 42.5t-97.5 42.5t-88 19q-44 0 -63.5 -30.5t-19.5 -92.5h-174z" />
    <glyph glyph-name="notequal" unicode="&#x2260;" horiz-adv-x="1191" 
d="M164 194l116 184h-178v184h294l196 310h-490v185h607l115 184h204l-116 -184h178v-185h-294l-195 -310h489v-184h-606l-115 -184h-205z" />
    <glyph glyph-name="lessequal" unicode="&#x2264;" horiz-adv-x="1085" 
d="M983 253h-881v184h881v-184zM983 565l-881 179v257l881 180v-181l-676 -120v-21l676 -120v-174z" />
    <glyph glyph-name="greaterequal" unicode="&#x2265;" horiz-adv-x="1085" 
d="M102 253v184h881v-184h-881zM102 565v174l676 120v21l-676 120v181l881 -180v-257z" />
    <glyph glyph-name="lozenge" unicode="&#x25ca;" horiz-adv-x="1286" 
d="M634 -143h20l341 693l-341 694h-20l-341 -694zM522 -333l-420 845v77l420 845h242l420 -845v-77l-420 -845h-242z" />
    <glyph glyph-name="uniFEFF" unicode="&#xfeff;" horiz-adv-x="0" 
 />
    <glyph glyph-name="n.001" horiz-adv-x="1286" 
d="M170 0v1096h170q10 -100 10 -197h21q35 41 55 63.5t59.5 56.5t75.5 51.5t89 31.5t114 14q192 0 276 -123t84 -356v-637h-200v657q0 271 -236 271q-169 0 -317 -131v-797h-201z" />
    <glyph glyph-name="zero.dnom" horiz-adv-x="933" 
d="M467 -16q-169 0 -262.5 108.5t-93.5 285.5t93.5 285.5t262.5 108.5t262.5 -108.5t93.5 -285.5t-93.5 -285.5t-262.5 -108.5zM467 131q90 0 138.5 65t48.5 182q0 118 -48.5 182.5t-138.5 64.5t-138 -64.5t-48 -182.5t48 -182.5t138 -64.5z" />
    <glyph glyph-name="one.dnom" horiz-adv-x="742" 
d="M102 0v145h198v441l-14 2q-54 -39 -184 -39v148h138q40 0 58 14t24 51h146v-617h184v-145h-550z" />
    <glyph glyph-name="two.dnom" horiz-adv-x="841" 
d="M118 93q0 110 53.5 183.5t194.5 133.5q105 44 141 75.5t36 67.5q0 76 -112 76q-119 0 -151 -106l-159 31q11 48 32 85.5t56.5 68.5t92.5 47.5t134 16.5q276 0 276 -211q0 -87 -52.5 -144t-183.5 -111q-108 -44 -146 -78.5t-43 -86.5l433 5v-146h-602v93z" />
    <glyph glyph-name="three.dnom" horiz-adv-x="831" 
d="M432 -16q-266 0 -320 227l162 37q17 -60 54.5 -90.5t105.5 -30.5q64 0 98.5 26.5t34.5 73.5q0 101 -159 101h-39v117h45q139 0 139 92q0 43 -30 67t-88 24q-114 0 -148 -114l-161 36q24 103 95 162.5t215 59.5q142 0 213.5 -55t71.5 -147q0 -126 -151 -176v-16
q166 -37 166 -181q0 -98 -75.5 -155.5t-228.5 -57.5z" />
    <glyph glyph-name="four.dnom" horiz-adv-x="866" 
d="M243 303l237 2v310h-16zM475 0v165h-407v136l326 461h249v-454l123 2v-149h-123v-161h-168z" />
    <glyph glyph-name="five.dnom" horiz-adv-x="859" 
d="M453 -16q-145 0 -224.5 58.5t-96.5 145.5l163 34q29 -97 155 -97q140 0 140 122q0 117 -135 117q-91 0 -150 -50h-153v448h582v-156l-422 4v-213h16q77 84 199 84q109 0 172 -63.5t63 -173.5q0 -118 -74.5 -189t-234.5 -71z" />
    <glyph glyph-name="six.dnom" horiz-adv-x="862" 
d="M451 123q70 0 107 30.5t37 85.5t-37 85.5t-107 30.5t-107.5 -30.5t-37.5 -85.5q0 -54 37.5 -85t107.5 -31zM457 -16q-174 0 -260 104.5t-86 284.5q0 119 33.5 206t112 140t196.5 53q234 0 295 -186l-158 -47q-40 90 -145 90q-92 0 -131 -63t-34 -192h15q74 96 217 96
q118 0 185 -61t67 -173q0 -121 -79.5 -186.5t-227.5 -65.5z" />
    <glyph glyph-name="seven.dnom" horiz-adv-x="796" 
d="M270 42q0 155 30 264t83 174.5t136 110.5v20l-429 -4v155h617v-144q-145 -64 -205.5 -189.5t-60.5 -358.5v-70h-171v42z" />
    <glyph glyph-name="eight.dnom" horiz-adv-x="825" 
d="M413 125q72 0 110 25.5t38 73.5t-38.5 76t-109.5 28q-70 0 -109 -28t-39 -76q0 -47 38 -73t110 -26zM413 439q66 0 101.5 26t35.5 71t-35 70t-102 25t-102 -25t-35 -70t35.5 -71t101.5 -26zM413 -16q-152 0 -235 51t-83 155q0 144 162 186v16q-72 23 -110 64.5t-38 111.5
q0 99 79 151.5t225 52.5t225 -52.5t79 -151.5q0 -129 -149 -176v-16q162 -42 162 -186q0 -104 -82.5 -155t-234.5 -51z" />
    <glyph glyph-name="nine.dnom" horiz-adv-x="862" 
d="M412 400q70 0 107 31t37 86q0 54 -37.5 85t-106.5 31q-70 0 -107.5 -30.5t-37.5 -85.5t37.5 -86t107.5 -31zM410 -16q-234 0 -295 186l157 47q40 -90 145 -90q92 0 131.5 63t34.5 192h-16q-74 -96 -217 -96q-118 0 -185 61t-67 173q0 121 80 186.5t228 65.5
q174 0 260 -104.5t86 -284.5q0 -119 -33.5 -206t-112 -140t-196.5 -53z" />
    <glyph glyph-name="zero.numr" horiz-adv-x="911" 
d="M467 592q-169 0 -262.5 108.5t-93.5 285.5t93.5 285.5t262.5 108.5t262.5 -108.5t93.5 -285.5t-93.5 -285.5t-262.5 -108.5zM467 739q90 0 138.5 65t48.5 182q0 118 -48.5 182.5t-138.5 64.5t-138 -64.5t-48 -182.5t48 -182.5t138 -64.5z" />
    <glyph glyph-name="one.numr" horiz-adv-x="750" 
d="M102 605v146h198v440l-14 2q-54 -39 -184 -39v149h138q40 0 58 13.5t24 50.5h146v-616h184v-146h-550z" />
    <glyph glyph-name="two.numr" horiz-adv-x="845" 
d="M118 698q0 110 53.5 183.5t194.5 133.5q105 44 141 75.5t36 67.5q0 76 -112 76q-119 0 -151 -106l-159 31q11 48 32 85.5t56.5 68.5t92.5 47.5t134 16.5q276 0 276 -211q0 -87 -52.5 -144t-183.5 -111q-108 -44 -146 -78.5t-43 -86.5l433 6v-147h-602v93z" />
    <glyph glyph-name="three.numr" horiz-adv-x="848" 
d="M432 589q-266 0 -320 227l162 37q17 -60 54.5 -90.5t105.5 -30.5q64 0 98.5 27t34.5 74q0 100 -159 100h-39v118h45q139 0 139 91q0 43 -30 67t-88 24q-114 0 -148 -114l-161 36q24 103 95 162.5t215 59.5q142 0 213.5 -54.5t71.5 -146.5q0 -127 -151 -177v-16
q166 -37 166 -181q0 -98 -75.5 -155.5t-228.5 -57.5z" />
    <glyph glyph-name="four.numr" horiz-adv-x="869" 
d="M243 908l237 2v311h-16zM475 605v165h-407v136l326 461h249v-454l123 2v-149h-123v-161h-168z" />
    <glyph glyph-name="five.numr" horiz-adv-x="845" 
d="M453 591q-145 0 -224.5 59t-96.5 146l163 33q29 -97 155 -97q140 0 140 122q0 117 -135 117q-92 0 -150 -49h-153v447h582v-156l-422 5v-213h16q77 84 199 84q109 0 172 -64t63 -174q0 -118 -74.5 -189t-234.5 -71z" />
    <glyph glyph-name="six.numr" horiz-adv-x="846" 
d="M451 728q70 0 107 30.5t37 85.5t-37 86t-107 31t-107.5 -31t-37.5 -86q0 -54 37.5 -85t107.5 -31zM457 589q-174 0 -260 104.5t-86 284.5q0 119 33.5 206t112 140t196.5 53q234 0 295 -186l-158 -47q-40 90 -145 90q-92 0 -131 -63t-34 -192h15q74 96 217 96
q118 0 185 -61t67 -173q0 -121 -79.5 -186.5t-227.5 -65.5z" />
    <glyph glyph-name="seven.numr" horiz-adv-x="752" 
d="M270 647q0 155 30 264t83 174.5t136 110.5v21l-429 -5v155h617v-143q-145 -64 -205.5 -190t-60.5 -359v-70h-171v42z" />
    <glyph glyph-name="eight.numr" horiz-adv-x="837" 
d="M413 730q72 0 110 25.5t38 73.5t-38.5 76t-109.5 28q-70 0 -109 -28t-39 -76q0 -47 38 -73t110 -26zM413 1044q66 0 101.5 26t35.5 71t-35 70t-102 25t-102 -25t-35 -70t35.5 -71t101.5 -26zM413 589q-152 0 -235 51.5t-83 155.5q0 143 162 185v16q-148 47 -148 177
q0 99 79 151t225 52t225 -52t79 -151q0 -130 -149 -177v-16q162 -42 162 -185q0 -104 -82.5 -155.5t-234.5 -51.5z" />
    <glyph glyph-name="nine.numr" horiz-adv-x="846" 
d="M412 1006q70 0 107 30.5t37 85.5q0 54 -37.5 85t-106.5 31q-70 0 -107.5 -30.5t-37.5 -85.5t37.5 -85.5t107.5 -30.5zM410 589q-234 0 -295 186l157 47q40 -90 145 -90q92 0 131.5 63t34.5 192h-16q-74 -96 -217 -96q-118 0 -185 61t-67 173q0 121 80 186.5t228 65.5
q174 0 260 -104.5t86 -284.5q0 -119 -33.5 -206t-112 -140t-196.5 -53z" />
    <glyph glyph-name="colon.case" horiz-adv-x="491" 
d="M123 225v246h246v-246h-246zM123 963v245h246v-245h-246z" />
    <glyph glyph-name="exclamdown.case" horiz-adv-x="512" 
d="M143 0l46 938h134l46 -938h-226zM133 1204v230h246v-230h-246z" />
    <glyph glyph-name="questiondown.case" 
d="M501 1169v230h245v-230h-245zM573 -60q-232 0 -352.5 98t-120.5 265q0 54 14 101t32 78t54.5 67t60.5 54.5t72 52.5q50 36 74 55t56.5 51.5t49.5 66t23 74.5h174q0 -59 -17.5 -110t-52 -93t-68.5 -72t-85 -66q-96 -68 -142 -123t-46 -127q0 -89 71.5 -139.5t202.5 -50.5
q146 0 232.5 67t130.5 193l186 -55q-115 -387 -549 -387z" />
    <glyph glyph-name="slash.case" horiz-adv-x="1110" 
d="M29 -25l843 1483h209l-845 -1483h-207z" />
    <glyph glyph-name="backslash.case" horiz-adv-x="1110" 
d="M1081 -25h-207l-845 1483h209z" />
    <glyph glyph-name="parenleft.case" horiz-adv-x="768" 
d="M707 -51q-294 -39 -439 79t-145 402v574q0 284 145 402t439 79v-180q-215 23 -299 -46.5t-84 -254.5v-574q0 -185 84 -254.5t299 -46.5v-180z" />
    <glyph glyph-name="parenright.case" horiz-adv-x="768" 
d="M61 1485q294 39 439 -79t145 -402v-574q0 -284 -145 -402t-439 -79v180q215 -23 299 46.5t84 254.5v574q0 185 -84 254.5t-299 46.5v180z" />
    <glyph glyph-name="braceleft.case" horiz-adv-x="836" 
d="M775 -51q-275 -38 -414 27t-139 198q0 57 27 116.5t59.5 101t59.5 85t27 70.5q0 45 -61.5 61.5t-231.5 16.5v184q170 0 231.5 16.5t61.5 60.5q0 28 -27 71.5t-59.5 84.5t-59.5 101t-27 117q0 133 139 197.5t414 27.5v-180q-341 34 -341 -99q0 -35 24.5 -80.5t53.5 -83
t53.5 -85.5t24.5 -88q0 -60 -48.5 -99t-134.5 -45v-17q86 -5 134.5 -45t48.5 -100q0 -40 -24.5 -87.5t-53.5 -85t-53.5 -83t-24.5 -81.5q0 -133 341 -97v-180z" />
    <glyph glyph-name="braceright.case" horiz-adv-x="836" 
d="M61 1485q275 38 414 -27t139 -198q0 -57 -27 -116.5t-59.5 -101t-59.5 -85t-27 -70.5q0 -45 61.5 -61.5t231.5 -16.5v-184q-170 0 -231.5 -16.5t-61.5 -60.5q0 -28 27 -71.5t59.5 -84.5t59.5 -101t27 -117q0 -133 -139 -197.5t-414 -27.5v180q127 -14 202.5 -3.5
t107 35.5t31.5 66q0 35 -24 80.5t-53.5 83t-53.5 85.5t-24 88q0 60 48.5 99.5t134.5 45.5v17q-86 5 -134.5 44.5t-48.5 99.5q0 40 24 87.5t53.5 85t53.5 83t24 81.5q0 134 -341 98v180z" />
    <glyph glyph-name="bracketleft.case" horiz-adv-x="768" 
d="M348 -51q-122 0 -173.5 51.5t-51.5 173.5v1086q0 122 51.5 173.5t173.5 51.5h359v-180h-381v-1176h381v-180h-359z" />
    <glyph glyph-name="bracketright.case" horiz-adv-x="768" 
d="M420 1485q122 0 173.5 -51.5t51.5 -173.5v-1086q0 -122 -51.5 -173.5t-173.5 -51.5h-359v180h381v1176h-381v180h359z" />
    <glyph glyph-name="at.case" horiz-adv-x="2092" 
d="M1024 393q156 0 236.5 122t80.5 318v85q-55 56 -142 89t-175 33q-131 0 -208.5 -81t-77.5 -242t78 -242.5t208 -81.5zM1036 -185q-273 0 -477.5 100.5t-320 301.5t-115.5 483q0 293 115.5 499t327 309.5t504.5 103.5q415 0 657 -217t242 -595q0 -265 -93 -420t-262 -155
q-109 0 -180.5 59t-86.5 160h-19q-123 -219 -360 -219q-183 0 -299 128t-116 364q0 120 34 214.5t93 154.5t136 91t166 31q117 0 210.5 -53t152.5 -144h18q0 76 9 179h152v-647q0 -70 30 -110t81 -40q70 0 115 96t45 311q0 321 -190 482.5t-535 161.5q-363 0 -563 -188.5
t-200 -555.5q0 -228 93 -391t257.5 -244.5t384.5 -81.5q207 0 375 84l74 -143q-183 -109 -455 -109z" />
    <glyph glyph-name="bar.case" horiz-adv-x="593" 
d="M201 -102v1638h192v-1638h-192z" />
    <glyph glyph-name="brokenbar.case" horiz-adv-x="593" 
d="M201 -102v716h192v-716h-192zM201 819v717h192v-717h-192z" />
    <glyph glyph-name="tonos_case" horiz-adv-x="1227" 
d="M492 1096l107 363h223l-148 -363h-182z" />
    </font>
</defs>
</svg>
