<svg xmlns:xlink="http://www.w3.org/1999/xlink" width="19" height="19" viewBox="0 0 19 19" fill="none" xmlns="http://www.w3.org/2000/svg">
<path fill-rule="evenodd" clip-rule="evenodd" d="M18.6667 17.636C18.6667 18.205 18.2055 18.6667 17.6365 18.6667H12.8797V11.4379H15.3062L15.6697 8.62098H12.8797V6.82204C12.8797 6.00646 13.1065 5.45072 14.276 5.45072L15.7679 5.45021V2.93027C15.5095 2.8962 14.6243 2.81942 13.5941 2.81942C11.4433 2.81942 9.97071 4.13227 9.97071 6.5434V8.62098H7.53816V11.4379H9.97071V18.6667H1.03017C0.461188 18.6667 0 18.205 0 17.636V1.03065C0 0.461175 0.461188 0 1.03017 0H17.6365C18.2055 0 18.6667 0.461175 18.6667 1.03065V17.636Z" fill="#FFFFFF"></path>
</svg>