<svg xmlns:xlink="http://www.w3.org/1999/xlink" width="20" height="20" viewBox="0 0 20 20" fill="none" xmlns="http://www.w3.org/2000/svg">
<path fill-rule="evenodd" clip-rule="evenodd" d="M16.1149 0H4.37883C2.34071 0 0.681641 1.65794 0.681641 3.69719V15.4332C0.681641 17.4725 2.34071 19.1304 4.37883 19.1304H16.1149C18.153 19.1304 19.8121 17.4725 19.8121 15.4332V3.69719C19.8121 1.65794 18.153 0 16.1149 0ZM17.1757 2.20572L17.5986 2.20347V5.44624L14.3659 5.45636L14.3547 2.21359L17.1757 2.20572ZM7.51793 7.60135C8.12981 6.75326 9.12413 6.19761 10.2478 6.19761C11.3715 6.19761 12.3658 6.75326 12.9777 7.60135C13.377 8.15475 13.6154 8.83187 13.6154 9.56523C13.6154 11.4211 12.1048 12.9317 10.2478 12.9317C8.39189 12.9317 6.8813 11.4211 6.8813 9.56523C6.8813 8.83187 7.11975 8.15475 7.51793 7.60135ZM17.9478 15.4333C17.9478 16.4444 17.1256 17.2667 16.1144 17.2667H4.37835C3.36716 17.2667 2.54494 16.4444 2.54494 15.4333V7.60135H5.40191C5.15445 8.20873 5.01611 8.87123 5.01611 9.56523C5.01611 12.4492 7.36242 14.7966 10.2464 14.7966C13.1315 14.7966 15.4778 12.4492 15.4778 9.56523C15.4778 8.87123 15.3372 8.20873 15.092 7.60135H17.9478V15.4333Z" fill="#FFFFFF"></path>
</svg>