<svg version="1.1" id="Layer_1" xmlns="http://www.w3.org/2000/svg" xmlns:xlink="http://www.w3.org/1999/xlink" x="0px" y="0px" viewBox="0 0 144 144" style="enable-background:new 0 0 144 144;" xml:space="preserve" width="144"  height="144" >
<style type="text/css">
	.st0{fill:#FFFFFF;}
</style>
<path class="st0" d="M747.1,60.9c0-13.7-11.1-24.9-24.9-24.9h-63.6c-13.7,0-24.9,11.1-24.9,24.9v29.6c0,13.7,11.1,24.9,24.9,24.9
	h63.6c13.7,0,24.9-11.1,24.9-24.9V60.9z M709.8,77.9L681.2,92c-1.1,0.6-4.9-0.2-4.9-1.5v-29c0-1.3,3.8-2.1,4.9-1.5L708.6,75
	C709.7,75.6,710.9,77.3,709.8,77.9z" fill="#FFFFFF"></path>
<g>
	<path class="st0" d="M415,34.5c-3.9,0-7.1,3.2-7.1,7.1c0,3.9,3.2,7.1,7.1,7.1c3.9,0,7.1-3.2,7.1-7.1
		C422.1,37.7,418.9,34.5,415,34.5z" fill="#FFFFFF"></path>
	<path class="st0" d="M383.3,43.6c-16.5,0-29.9,13.4-29.9,29.9c0,16.5,13.4,29.9,29.9,29.9c16.5,0,29.9-13.4,29.9-29.9
		C413.2,57,399.8,43.6,383.3,43.6z M383.3,92.6c-10.6,0-19.2-8.6-19.2-19.2s8.6-19.2,19.2-19.2c10.6,0,19.2,8.6,19.2,19.2
		S393.9,92.6,383.3,92.6z" fill="#FFFFFF"></path>
	<path class="st0" d="M407.1,134.2h-48.5c-20.1,0-36.5-16.4-36.5-36.5V49.3c0-20.1,16.4-36.5,36.5-36.5h48.5
		c20.1,0,36.5,16.4,36.5,36.5v48.5C443.5,117.8,427.2,134.2,407.1,134.2z M358.6,24.2c-13.8,0-25,11.2-25,25v48.5
		c0,13.8,11.2,25,25,25h48.5c13.8,0,25-11.2,25-25V49.3c0-13.8-11.2-25-25-25H358.6z" fill="#FFFFFF"></path>
</g>
<path class="st0" d="M-73.1,138.2V83.1h18.4l3.5-22.8h-21.9V45.5c0-6.2,3.1-12.3,12.9-12.3h9.9V13.8c0,0-9-1.5-17.7-1.5
	c-18,0-29.8,10.9-29.8,30.7v17.4h-20v22.8h20v55.1H-73.1z" fill="#FFFFFF"></path>
<path class="st0" d="M124.6,60.8L124.6,60.8c-1,0.1-2,0.1-3,0.2c-11,0-21.3-5.6-27.3-14.8v50.3c0,20.5-16.7,37.2-37.2,37.2
	c-20.5,0-37.2-16.7-37.2-37.2S36.5,59.3,57,59.3c0.8,0,1.5,0.1,2.3,0.1v18.3c-0.8-0.1-1.5-0.2-2.3-0.2c-10.5,0-19,8.5-19,19
	c0,10.5,8.5,19,19,19c10.5,0,19.7-8.3,19.7-18.7l0.2-85.5h17.5c1.7,15.7,14.3,28,30.1,29.2V60.8z" fill="#FFFFFF"></path>
<path class="st0" d="M312.7,65.3l38.7-45h-9.2l-33.6,39.1l-26.8-39.1h-30.9l40.6,59.1l-40.6,47.2h9.2l35.5-41.2l28.3,41.2h30.9
	L312.7,65.3L312.7,65.3z M300.2,79.9l-4.1-5.9l-32.7-46.8h14.1L303.8,65l4.1,5.9l34.3,49.1h-14.1L300.2,79.9L300.2,79.9z" fill="#FFFFFF"></path>
</svg>