<svg xmlns:xlink="http://www.w3.org/1999/xlink" width="26" height="18" viewBox="0 0 26 18" fill="none" xmlns="http://www.w3.org/2000/svg">
<path d="M25.1788 2.81647C24.8824 1.71529 24.0141 0.847059 22.9129 0.550588C20.9012 0 12.8541 0 12.8541 0C12.8541 0 4.80706 0 2.7953 0.529412C1.71529 0.825882 0.825883 1.71529 0.529412 2.81647C0 4.82824 0 9 0 9C0 9 0 13.1929 0.529412 15.1835C0.825883 16.2847 1.69412 17.1529 2.7953 17.4494C4.82824 18 12.8541 18 12.8541 18C12.8541 18 20.9012 18 22.9129 17.4706C24.0141 17.1741 24.8824 16.3059 25.1788 15.2047C25.7082 13.1929 25.7082 9.02118 25.7082 9.02118C25.7082 9.02118 25.7294 4.82824 25.1788 2.81647ZM10.2918 12.8541V5.14588L16.9835 9L10.2918 12.8541Z" fill="#FFFFFF"></path>
</svg>